<svg viewBox="0 0 72 73" xmlns="http://www.w3.org/2000/svg">
<path d="M51.5372 72.1259H31.1242C30.3816 72.1259 29.6694 71.8309 29.1443 71.3058C28.6192 70.7807 28.3242 70.0686 28.3242 69.326V57.6259C28.3242 57.3785 28.4225 57.1412 28.5975 56.9662C28.7725 56.7912 29.0098 56.693 29.2572 56.693C29.5047 56.693 29.742 56.7912 29.9169 56.9662C30.0919 57.1412 30.1902 57.3785 30.1902 57.6259V69.326C30.191 69.5732 30.2896 69.81 30.4644 69.9848C30.6392 70.1596 30.876 70.2581 31.1232 70.2589H51.5372C51.7844 70.2581 52.0213 70.1596 52.1961 69.9848C52.3709 69.81 52.4694 69.5732 52.4702 69.326V21.4959C52.4704 21.3666 52.4439 21.2387 52.3922 21.1201C52.3406 21.0015 52.265 20.8949 52.1702 20.8069L43.9762 13.27C43.7996 13.1008 43.6963 12.8692 43.6886 12.6247C43.6808 12.3803 43.7693 12.1426 43.935 11.9626C44.1006 11.7827 44.3302 11.6749 44.5745 11.6625C44.8187 11.65 45.0581 11.7338 45.2412 11.896L53.4352 19.4329C53.7191 19.6964 53.9456 20.0156 54.1005 20.3705C54.2553 20.7255 54.3352 21.1086 54.3352 21.4959V69.326C54.3352 70.0682 54.0405 70.7801 53.5158 71.3051C52.9912 71.8302 52.2795 72.1254 51.5372 72.1259Z" fill="#5869A3"/>
<path d="M20.6061 69.258C20.0825 69.2584 19.5694 69.1107 19.1261 68.832L1.81411 58.016C1.18489 57.622 0.737878 56.9943 0.571358 56.2708C0.404838 55.5473 0.532437 54.7874 0.92611 54.158L26.2631 13.6059C26.4723 13.2715 26.7496 12.985 27.077 12.765C27.4044 12.5449 27.7745 12.3964 28.1631 12.329L41.8501 9.95095C42.5364 9.82482 43.2449 9.96212 43.8344 10.3354C44.4238 10.7088 44.8508 11.2907 45.0301 11.965L48.6571 25.15C48.7588 25.524 48.7823 25.915 48.7261 26.2985C48.6698 26.6821 48.535 27.0499 48.3301 27.379L22.9851 67.939C22.7908 68.2509 22.5368 68.5215 22.2377 68.7351C21.9386 68.9488 21.6003 69.1013 21.2421 69.184C21.0336 69.2324 20.8202 69.2572 20.6061 69.258ZM42.3321 11.7779C42.2772 11.7777 42.2223 11.7821 42.1681 11.7909L28.4771 14.173C28.3476 14.1949 28.2243 14.244 28.1152 14.3171C28.006 14.3902 27.9137 14.4855 27.8441 14.5969L2.50712 55.147C2.44228 55.2511 2.39859 55.3669 2.37858 55.4879C2.35856 55.6089 2.3626 55.7327 2.39047 55.8522C2.41833 55.9716 2.46947 56.0844 2.54096 56.184C2.61245 56.2837 2.70291 56.3683 2.80712 56.433L20.1171 67.249C20.2213 67.3142 20.3373 67.3583 20.4585 67.3785C20.5798 67.3988 20.7038 67.3949 20.8235 67.367C20.9433 67.3391 21.0563 67.2878 21.1561 67.2161C21.2559 67.1443 21.3405 67.0536 21.4051 66.949L46.7501 26.387C46.818 26.2775 46.8625 26.1551 46.8808 26.0276C46.899 25.9 46.8906 25.7701 46.8561 25.646L43.2291 12.461C43.175 12.2644 43.0578 12.0911 42.8955 11.9677C42.7333 11.8443 42.535 11.7776 42.3311 11.7779H42.3321Z" fill="#5869A3"/>
<path d="M15.4511 52.833C15.2758 52.8331 15.1041 52.7832 14.9561 52.689C14.8521 52.6244 14.7618 52.54 14.6904 52.4405C14.619 52.341 14.5679 52.2284 14.5401 52.1092C14.5122 51.9899 14.5081 51.8664 14.528 51.7456C14.548 51.6247 14.5915 51.509 14.6561 51.405L30.3901 26.228C30.5239 26.0243 30.732 25.881 30.97 25.8287C31.208 25.7765 31.457 25.8194 31.6638 25.9483C31.8705 26.0772 32.0187 26.2819 32.0765 26.5186C32.1343 26.7554 32.0972 27.0053 31.9731 27.215L16.2391 52.392C16.1561 52.5265 16.0402 52.6375 15.9023 52.7147C15.7644 52.7919 15.6092 52.8326 15.4511 52.833Z" fill="#5869A3"/>
<path d="M22.921 49.525C22.7459 49.5258 22.5741 49.4765 22.426 49.383C22.2158 49.2522 22.066 49.0433 22.0098 48.8021C21.9535 48.561 21.9953 48.3074 22.126 48.097L29.963 35.556C30.0967 35.3523 30.3048 35.209 30.5428 35.1567C30.7808 35.1045 31.0299 35.1474 31.2366 35.2763C31.4434 35.4052 31.5915 35.6099 31.6493 35.8466C31.7072 36.0833 31.6701 36.3333 31.546 36.543L23.709 49.086C23.6256 49.2199 23.5095 49.3304 23.3717 49.4072C23.2338 49.484 23.0788 49.5245 22.921 49.525Z" fill="#5869A3"/>
<path d="M38.6283 20.759C37.9824 20.759 37.3509 20.5674 36.8138 20.2085C36.2767 19.8496 35.8581 19.3396 35.6109 18.7428C35.3637 18.146 35.299 17.4893 35.4251 16.8558C35.5511 16.2222 35.8621 15.6403 36.3189 15.1835C36.7756 14.7268 37.3576 14.4157 37.9911 14.2897C38.6247 14.1637 39.2814 14.2283 39.8781 14.4755C40.4749 14.7227 40.985 15.1414 41.3439 15.6784C41.7028 16.2155 41.8943 16.847 41.8943 17.4929C41.8932 18.3588 41.5488 19.1889 40.9365 19.8012C40.3243 20.4135 39.4942 20.7579 38.6283 20.759ZM38.6283 16.0929C38.3514 16.0929 38.0807 16.175 37.8505 16.3289C37.6203 16.4827 37.4408 16.7014 37.3349 16.9572C37.2289 17.213 37.2012 17.4945 37.2552 17.7661C37.3092 18.0376 37.4426 18.2871 37.6383 18.4829C37.8341 18.6787 38.0836 18.812 38.3552 18.866C38.6267 18.9201 38.9082 18.8923 39.1641 18.7864C39.4199 18.6804 39.6385 18.501 39.7924 18.2707C39.9462 18.0405 40.0283 17.7698 40.0283 17.4929C40.0284 17.309 39.9923 17.1269 39.922 16.9569C39.8517 16.7869 39.7486 16.6324 39.6186 16.5023C39.4886 16.3722 39.3342 16.269 39.1643 16.1986C38.9944 16.1282 38.8122 16.0919 38.6283 16.0919V16.0929Z" fill="#5869A3"/>
<path d="M29.5293 58.555C29.3444 58.5555 29.1635 58.5011 29.0096 58.3986C28.8557 58.2961 28.7357 58.1502 28.6649 57.9794C28.5941 57.8086 28.5756 57.6206 28.6118 57.4393C28.648 57.258 28.7373 57.0915 28.8683 56.961L52.6683 33.161C52.755 33.0743 52.858 33.0055 52.9713 32.9586C53.0847 32.9116 53.2061 32.8875 53.3288 32.8875C53.4515 32.8875 53.5729 32.9116 53.6863 32.9586C53.7996 33.0055 53.9026 33.0743 53.9893 33.161C54.076 33.2478 54.1448 33.3508 54.1918 33.4641C54.2387 33.5774 54.2629 33.6989 54.2629 33.8215C54.2629 33.9442 54.2387 34.0657 54.1918 34.179C54.1448 34.2923 54.076 34.3953 53.9893 34.482L30.1893 58.282C30.014 58.4566 29.7767 58.5547 29.5293 58.555Z" fill="#5869A3"/>
<path d="M29.5293 66.021C29.3444 66.0215 29.1635 65.967 29.0096 65.8645C28.8557 65.762 28.7357 65.6162 28.6649 65.4454C28.5941 65.2746 28.5756 65.0866 28.6118 64.9052C28.648 64.7239 28.7373 64.5575 28.8683 64.427L52.6683 40.627C52.755 40.5402 52.858 40.4714 52.9713 40.4245C53.0847 40.3776 53.2061 40.3534 53.3288 40.3534C53.4515 40.3534 53.5729 40.3776 53.6863 40.4245C53.7996 40.4714 53.9026 40.5402 53.9893 40.627C54.076 40.7137 54.1448 40.8167 54.1918 40.93C54.2387 41.0434 54.2629 41.1648 54.2629 41.2875C54.2629 41.4101 54.2387 41.5316 54.1918 41.6449C54.1448 41.7583 54.076 41.8612 53.9893 41.948L30.1893 65.748C30.014 65.9226 29.7767 66.0207 29.5293 66.021Z" fill="#5869A3"/>
<path d="M31.0073 72.0049C30.8224 72.0054 30.6415 71.951 30.4876 71.8485C30.3337 71.746 30.2138 71.6001 30.1429 71.4293C30.0721 71.2585 30.0536 71.0705 30.0898 70.8892C30.1261 70.7079 30.2153 70.5414 30.3463 70.4109L52.6653 48.0919C52.8405 47.9168 53.0781 47.8184 53.3258 47.8184C53.5736 47.8184 53.8111 47.9168 53.9863 48.0919C54.1615 48.2671 54.2599 48.5047 54.2599 48.7524C54.2599 49.0002 54.1615 49.2378 53.9863 49.4129L31.6683 71.7349C31.4923 71.9086 31.2547 72.0057 31.0073 72.0049Z" fill="#5869A3"/>
<path d="M38.6293 18.426C38.4197 18.4261 38.2162 18.3556 38.0517 18.2259C37.8871 18.0962 37.7711 17.9148 37.7223 17.711C37.6683 17.491 36.4473 12.235 39.8853 8.444C42.7613 5.271 47.9333 4.18698 55.2443 5.21298C66.3503 6.77498 68.7313 4.99098 69.2443 4.15298C69.8083 3.22898 68.9863 2.02097 68.9773 2.00997C68.8342 1.80801 68.7772 1.55749 68.8188 1.3135C68.8605 1.06952 68.9973 0.852064 69.1993 0.70898C69.4012 0.565895 69.6518 0.508899 69.8957 0.550532C70.1397 0.592165 70.3572 0.729033 70.5003 0.930995C70.5633 1.02099 72.0403 3.14798 70.8403 5.12298C69.2653 7.70598 64.0783 8.34099 54.9883 7.05999C48.3213 6.12699 43.7073 7.01099 41.2683 9.69699C38.4893 12.762 39.5273 17.226 39.5383 17.273C39.5672 17.3922 39.5722 17.5159 39.5532 17.637C39.5342 17.7582 39.4915 17.8744 39.4275 17.979C39.3635 18.0836 39.2795 18.1745 39.1802 18.2466C39.081 18.3187 38.9685 18.3705 38.8493 18.399C38.7772 18.4162 38.7034 18.4253 38.6293 18.426Z" fill="#5869A3"/>
</svg>
