<svg viewBox="0 0 158 10" xmlns="http://www.w3.org/2000/svg">
<path d="M3.38403 1.483V9.22601H2.47205V1.48502H0V0.684998H5.85504V1.48502L3.38403 1.483Z" fill="#464749"/>
<path d="M15.012 9.22603L13.0679 5.434H11.0159V9.22603H10.105V0.682021H13.382C13.7287 0.678091 14.0736 0.732852 14.402 0.844008C14.6978 0.943694 14.9701 1.10299 15.202 1.31203C15.4289 1.52068 15.6071 1.77674 15.7239 2.06203C15.8524 2.37949 15.9157 2.71959 15.91 3.06203C15.9333 3.61849 15.749 4.16377 15.3929 4.59202C15.0442 4.99048 14.5708 5.25907 14.0499 5.35402L16.0779 9.23003L15.012 9.22603ZM14.9999 3.06401C15.0167 2.84311 14.9827 2.62128 14.9006 2.41554C14.8184 2.2098 14.6903 2.02561 14.5259 1.87703C14.1756 1.60434 13.7395 1.46537 13.296 1.48503H11.0159V4.62602H13.296C13.7385 4.64565 14.1739 4.509 14.5259 4.24C14.6903 4.09337 14.8185 3.91079 14.9008 3.70647C14.983 3.50214 15.0169 3.28161 14.9999 3.06203V3.06401Z" fill="#464749"/>
<path d="M25.605 9.22601L24.9219 7.29401H21.189L20.5049 9.22601H19.533L22.6769 0.682007H23.4449L26.577 9.22601H25.605ZM23.074 1.98999L21.4659 6.50201H24.658L23.074 1.98999Z" fill="#464749"/>
<path d="M36.5399 4.855C36.5399 5.15166 36.5378 5.46398 36.5338 5.79198C36.5297 6.11537 36.5036 6.43812 36.4558 6.75798C36.4088 7.06842 36.3263 7.37242 36.2098 7.66399C36.0938 7.95199 35.9203 8.21332 35.6998 8.43199C35.4343 8.69371 35.1149 8.89436 34.7639 9.01997C34.3709 9.15864 33.9565 9.22637 33.5399 9.21999H30.6108V0.675981H33.5399C33.9565 0.669593 34.3709 0.737326 34.7639 0.875993C35.1149 1.00161 35.4343 1.20225 35.6998 1.46398C35.9151 1.67538 36.0882 1.92584 36.2098 2.20198C36.3256 2.47096 36.4082 2.75303 36.4558 3.04198C36.5038 3.33966 36.5299 3.64047 36.5338 3.94197C36.5378 4.25531 36.5399 4.55966 36.5399 4.855ZM35.6278 4.855C35.6278 4.58833 35.6258 4.32533 35.6218 4.066C35.6183 3.81646 35.5999 3.56735 35.5668 3.31999C35.5375 3.09145 35.4811 2.86721 35.3988 2.65199C35.324 2.45078 35.2097 2.26652 35.0628 2.11C34.8554 1.88741 34.596 1.71973 34.3079 1.622C34.0092 1.52687 33.6973 1.47994 33.3839 1.48299H31.5228V8.42H33.3839C33.6973 8.42353 34.0093 8.37659 34.3079 8.28099C34.5959 8.18361 34.8553 8.01628 35.0628 7.79399C35.2144 7.62951 35.3289 7.43447 35.3988 7.222C35.4814 6.98385 35.5378 6.73737 35.5668 6.48699C35.5998 6.21751 35.6181 5.94643 35.6218 5.67497C35.6258 5.39431 35.6278 5.121 35.6278 4.855Z" fill="#464749"/>
<path d="M41.3389 9.22601V0.682007H42.2509V9.22601H41.3389Z" fill="#464749"/>
<path d="M52.822 9.22601L48.287 2.37399V9.22601H47.375V0.682007H48.238L52.774 7.51001V0.682007H53.686V9.22601H52.822Z" fill="#464749"/>
<path d="M64.4868 6.10402C64.4962 6.53214 64.4395 6.95914 64.3188 7.37001C64.2042 7.72249 64.0114 8.04453 63.7548 8.31203C63.4656 8.62948 63.1117 8.88113 62.7169 9.05C61.9379 9.37161 61.0644 9.37807 60.2808 9.06801C59.9099 8.91672 59.5732 8.69225 59.2908 8.408C59.1042 8.22625 58.9482 8.01554 58.8289 7.78401C58.7172 7.55367 58.6364 7.30956 58.5888 7.05803C58.5335 6.75706 58.5034 6.45199 58.4988 6.14601C58.4908 5.80601 58.4868 5.40801 58.4868 4.95201C58.4868 4.49601 58.4908 4.09801 58.4988 3.75801C58.5034 3.45204 58.5335 3.14699 58.5888 2.84602C58.6364 2.59449 58.7172 2.35036 58.8289 2.12001C58.9482 1.88848 59.1042 1.67777 59.2908 1.49602C59.575 1.20645 59.9155 0.97817 60.2913 0.825271C60.6671 0.672373 61.0702 0.598096 61.4758 0.60701C61.8579 0.60313 62.2377 0.666438 62.5978 0.794021C62.9263 0.911706 63.2294 1.09089 63.4908 1.32201C63.7481 1.55167 63.9616 1.82611 64.1208 2.132C64.2888 2.45573 64.4042 2.80408 64.4628 3.16402H63.5508C63.4596 2.66589 63.204 2.21276 62.8248 1.87703C62.4472 1.56218 61.9672 1.39671 61.4758 1.412C61.1974 1.4115 60.9217 1.46659 60.6649 1.57402C60.4139 1.67686 60.1871 1.83079 59.9988 2.02602C59.8683 2.1547 59.759 2.3032 59.6748 2.46602C59.5882 2.64271 59.5276 2.83098 59.4948 3.02501C59.4504 3.28586 59.4243 3.54951 59.4168 3.81401C59.4048 4.12268 59.3988 4.50201 59.3988 4.95201C59.3988 5.40101 59.4048 5.78101 59.4168 6.09001C59.4244 6.35816 59.4504 6.62548 59.4948 6.89003C59.527 7.08611 59.5876 7.27642 59.6748 7.455C59.7595 7.6175 59.8688 7.76592 59.9988 7.895C60.1861 8.0897 60.4133 8.24152 60.6649 8.34001C60.9226 8.44396 61.1979 8.49728 61.4758 8.49702C61.7833 8.49796 62.0876 8.43423 62.3688 8.31001C62.6508 8.1874 62.8996 7.99957 63.0948 7.76201C63.2651 7.56352 63.3918 7.33152 63.4669 7.08101C63.544 6.79624 63.5803 6.50199 63.5748 6.20702V5.55702H61.4749V4.757H64.4858L64.4868 6.10402Z" fill="#464749"/>
<path d="M80.0509 6.87201C80.056 7.22131 79.9843 7.56745 79.8409 7.88598C79.7029 8.18296 79.4975 8.44358 79.2409 8.647C78.9622 8.86526 78.6446 9.02848 78.3049 9.12799C77.9135 9.24381 77.507 9.30043 77.0989 9.29599C76.5397 9.3091 75.9827 9.22104 75.4549 9.03601C74.9715 8.84409 74.534 8.5524 74.1709 8.17999L74.7949 7.556C75.0948 7.87315 75.4589 8.12269 75.8629 8.28799C76.2674 8.43013 76.6943 8.4979 77.1229 8.488C77.6475 8.51766 78.167 8.37123 78.5989 8.07199C78.7767 7.93398 78.9187 7.75514 79.0127 7.55059C79.1067 7.34605 79.15 7.12184 79.1389 6.897C79.1416 6.68807 79.1077 6.48026 79.0389 6.28299C78.9765 6.10727 78.8714 5.94988 78.7329 5.82501C78.6087 5.7123 78.4641 5.62439 78.3069 5.56601C78.0814 5.49708 77.8506 5.44691 77.6169 5.41601L76.6169 5.26001C76.0431 5.1934 75.499 4.96909 75.0449 4.612C74.8257 4.40948 74.654 4.16105 74.5419 3.88446C74.4299 3.60787 74.3804 3.30995 74.3969 3.01199C74.393 2.67237 74.4583 2.33553 74.5889 2.022C74.7108 1.72993 74.8975 1.46939 75.1349 1.26001C75.386 1.04289 75.6776 0.877683 75.9929 0.773984C76.3605 0.652666 76.7458 0.593533 77.1329 0.598996C77.6091 0.58897 78.0833 0.664493 78.5329 0.821988C78.9535 0.988029 79.3399 1.23008 79.6729 1.53601L79.0849 2.12399C78.8353 1.89318 78.5469 1.70834 78.2329 1.578C77.8684 1.4433 77.4814 1.37981 77.0929 1.39099C76.6099 1.35972 76.1332 1.51468 75.7609 1.824C75.6048 1.97096 75.4821 2.14985 75.4014 2.34848C75.3206 2.5471 75.2836 2.76079 75.2929 2.975C75.2802 3.15735 75.3081 3.34025 75.3745 3.51056C75.4408 3.68086 75.5441 3.83434 75.6769 3.95999C75.8307 4.08217 76.0028 4.17935 76.1869 4.24798C76.3944 4.32896 76.6095 4.38928 76.8289 4.42801L77.7639 4.57199C77.9639 4.60399 78.1422 4.63733 78.2989 4.67199C78.4399 4.70338 78.5783 4.74551 78.7129 4.798C78.8272 4.8427 78.9376 4.89688 79.0429 4.95999C79.1436 5.0205 79.2381 5.09087 79.3249 5.17001C79.5678 5.37942 79.7596 5.6417 79.8854 5.93673C80.0113 6.23177 80.0679 6.55171 80.0509 6.87201V6.87201Z" fill="#464749"/>
<path d="M90.2631 4.952C90.2631 5.408 90.2592 5.806 90.2512 6.146C90.2466 6.45197 90.2165 6.75705 90.1611 7.05801C90.1141 7.30968 90.0333 7.55386 89.9211 7.784C89.8017 8.0155 89.6457 8.2262 89.4592 8.40799C89.1783 8.69122 88.8438 8.9156 88.4752 9.06799C88.0941 9.22249 87.6863 9.29998 87.2751 9.29599C86.8698 9.30496 86.4669 9.23079 86.0912 9.07806C85.7156 8.92534 85.3752 8.6973 85.0911 8.40799C84.9045 8.22623 84.7485 8.01552 84.6292 7.784C84.5165 7.55404 84.4358 7.30981 84.3892 7.05801C84.3338 6.75705 84.3037 6.45197 84.2991 6.146C84.2911 5.806 84.2871 5.408 84.2871 4.952C84.2871 4.496 84.2911 4.098 84.2991 3.758C84.3037 3.45202 84.3338 3.14698 84.3892 2.84601C84.4358 2.59422 84.5165 2.34995 84.6292 2.12C84.7485 1.88847 84.9045 1.67776 85.0911 1.496C85.6752 0.925991 86.459 0.606903 87.2751 0.606903C88.0913 0.606903 88.8751 0.925991 89.4592 1.496C89.6457 1.67779 89.8017 1.88849 89.9211 2.12C90.0333 2.35013 90.1141 2.59434 90.1611 2.84601C90.2165 3.14698 90.2466 3.45202 90.2512 3.758C90.2592 4.098 90.2631 4.496 90.2631 4.952ZM89.3511 4.952C89.3511 4.502 89.3451 4.12266 89.3331 3.814C89.3257 3.54949 89.2996 3.28583 89.2551 3.02499C89.2224 2.83095 89.1618 2.64267 89.0751 2.466C88.991 2.30319 88.8817 2.15469 88.7512 2.026C88.5629 1.83077 88.3361 1.67685 88.0851 1.57401C87.8285 1.46706 87.5532 1.41199 87.2751 1.41199C86.9971 1.41199 86.7218 1.46706 86.4651 1.57401C86.2141 1.67661 85.9872 1.83057 85.7991 2.026C85.6686 2.15467 85.5593 2.30317 85.4752 2.466C85.3881 2.6425 85.3274 2.83084 85.2952 3.02499C85.2502 3.28577 85.2241 3.54946 85.2172 3.814C85.2052 4.12266 85.1992 4.502 85.1992 4.952C85.1992 5.401 85.2052 5.781 85.2172 6.09C85.2241 6.35453 85.2502 6.61822 85.2952 6.879C85.3274 7.07315 85.3881 7.26149 85.4752 7.43799C85.5595 7.60066 85.6688 7.74913 85.7991 7.87799C85.9872 8.07313 86.2141 8.22678 86.4651 8.32901C86.7216 8.4366 86.997 8.492 87.2751 8.492C87.5533 8.492 87.8286 8.4366 88.0851 8.32901C88.336 8.22652 88.5629 8.07291 88.7512 7.87799C88.8814 7.74911 88.9907 7.60065 89.0751 7.43799C89.1618 7.26132 89.2224 7.07304 89.2551 6.879C89.2996 6.61815 89.3256 6.3545 89.3331 6.09C89.3451 5.781 89.3511 5.401 89.3511 4.952Z" fill="#464749"/>
<path d="M95.063 9.22601V0.682007H95.976V8.422H100.343V9.22202L95.063 9.22601Z" fill="#464749"/>
<path d="M110.051 6.40399C110.055 6.80482 109.98 7.20248 109.829 7.57401C109.688 7.92033 109.475 8.23308 109.205 8.492C108.932 8.75107 108.609 8.953 108.257 9.086C107.486 9.36595 106.641 9.36595 105.869 9.086C105.518 8.95437 105.197 8.75222 104.927 8.492C104.66 8.23171 104.45 7.91922 104.309 7.57401C104.158 7.20276 104.082 6.80491 104.087 6.40399V0.679993H104.999V6.341C104.995 6.64338 105.043 6.94418 105.142 7.23001C105.231 7.48153 105.372 7.71107 105.557 7.90302C105.743 8.09126 105.965 8.23872 106.211 8.336C106.759 8.54342 107.363 8.54342 107.911 8.336C108.159 8.23908 108.383 8.09021 108.568 7.89941C108.753 7.70862 108.895 7.48036 108.984 7.23001C109.088 6.94542 109.14 6.64408 109.135 6.341V0.679993H110.047L110.051 6.40399Z" fill="#464749"/>
<path d="M117.562 1.483V9.22601H116.65V1.48502H114.179V0.684998H120.034V1.48502L117.562 1.483Z" fill="#464749"/>
<path d="M124.283 9.22601V0.682007H125.195V9.22601H124.283Z" fill="#464749"/>
<path d="M135.971 4.952C135.971 5.408 135.967 5.806 135.959 6.146C135.955 6.45197 135.924 6.75705 135.869 7.05801C135.822 7.30968 135.741 7.55386 135.629 7.784C135.51 8.01551 135.354 8.22621 135.167 8.40799C134.886 8.69122 134.552 8.9156 134.183 9.06799C133.802 9.22249 133.394 9.29998 132.983 9.29599C132.578 9.30501 132.175 9.23088 131.799 9.07816C131.424 8.92543 131.083 8.69734 130.799 8.40799C130.613 8.22623 130.457 8.01552 130.337 7.784C130.224 7.55405 130.144 7.30981 130.097 7.05801C130.042 6.75705 130.012 6.45197 130.007 6.146C129.999 5.806 129.995 5.408 129.995 4.952C129.995 4.496 129.999 4.098 130.007 3.758C130.012 3.45202 130.042 3.14698 130.097 2.84601C130.144 2.59421 130.224 2.34993 130.337 2.12C130.457 1.88847 130.613 1.67776 130.799 1.496C131.383 0.925991 132.167 0.606903 132.983 0.606903C133.799 0.606903 134.583 0.925991 135.167 1.496C135.354 1.67778 135.51 1.88849 135.629 2.12C135.741 2.35013 135.822 2.59434 135.869 2.84601C135.924 3.14698 135.955 3.45202 135.959 3.758C135.967 4.098 135.971 4.496 135.971 4.952ZM135.059 4.952C135.059 4.502 135.053 4.12266 135.041 3.814C135.034 3.54949 135.008 3.28584 134.963 3.02499C134.93 2.83095 134.87 2.64267 134.783 2.466C134.699 2.30319 134.59 2.15469 134.459 2.026C134.271 1.83079 134.044 1.67687 133.793 1.57401C133.536 1.46706 133.261 1.41199 132.983 1.41199C132.705 1.41199 132.43 1.46706 132.173 1.57401C131.922 1.67661 131.695 1.83057 131.507 2.026C131.377 2.15467 131.267 2.30317 131.183 2.466C131.096 2.6425 131.035 2.83084 131.003 3.02499C130.958 3.28578 130.932 3.54946 130.925 3.814C130.913 4.12266 130.907 4.502 130.907 4.952C130.907 5.401 130.913 5.781 130.925 6.09C130.932 6.35453 130.958 6.61821 131.003 6.879C131.035 7.07315 131.096 7.26149 131.183 7.43799C131.268 7.60066 131.377 7.74913 131.507 7.87799C131.695 8.07313 131.922 8.22678 132.173 8.32901C132.43 8.4366 132.705 8.492 132.983 8.492C133.261 8.492 133.537 8.4366 133.793 8.32901C134.044 8.22652 134.271 8.07291 134.459 7.87799C134.589 7.74911 134.699 7.60065 134.783 7.43799C134.87 7.26132 134.93 7.07304 134.963 6.879C135.008 6.61814 135.034 6.3545 135.041 6.09C135.053 5.781 135.059 5.401 135.059 4.952V4.952Z" fill="#464749"/>
<path d="M146.218 9.22601L141.683 2.37399V9.22601H140.77V0.682007H141.634L146.17 7.51001V0.682007H147.082V9.22601H146.218Z" fill="#464749"/>
<path d="M157.354 6.87202C157.36 7.22137 157.288 7.56761 157.144 7.886C157.007 8.18325 156.801 8.44397 156.544 8.64702C156.265 8.86545 155.947 9.02868 155.607 9.12801C155.216 9.24397 154.809 9.3006 154.401 9.29601C153.842 9.30904 153.286 9.22098 152.758 9.03603C152.275 8.84411 151.837 8.55242 151.474 8.18001L152.098 7.55602C152.398 7.87314 152.762 8.12268 153.166 8.28801C153.571 8.43024 153.998 8.49801 154.426 8.48802C154.95 8.51784 155.47 8.37139 155.901 8.07201C156.079 7.9344 156.222 7.75562 156.316 7.55098C156.41 7.34634 156.453 7.12194 156.441 6.89702C156.444 6.68809 156.41 6.48028 156.341 6.283C156.278 6.10745 156.173 5.95014 156.035 5.82503C155.911 5.71229 155.766 5.62438 155.608 5.56602C155.383 5.49708 155.153 5.44691 154.919 5.41603L153.919 5.26003C153.345 5.19342 152.801 4.96911 152.347 4.61201C152.128 4.4095 151.956 4.16107 151.844 3.88448C151.732 3.60789 151.683 3.30997 151.699 3.01201C151.695 2.6725 151.76 2.33573 151.89 2.02202C152.012 1.73012 152.199 1.46964 152.436 1.26002C152.688 1.0431 152.98 0.87792 153.295 0.774002C153.662 0.652758 154.047 0.593625 154.434 0.599014C154.912 0.588519 155.388 0.664046 155.839 0.822006C156.259 0.988074 156.646 1.23013 156.978 1.53603L156.39 2.12401C156.141 1.89301 155.853 1.70815 155.539 1.57802C155.174 1.44331 154.787 1.37982 154.398 1.39101C153.915 1.36045 153.439 1.51533 153.066 1.82402C152.91 1.9713 152.788 2.15023 152.707 2.34877C152.627 2.54731 152.589 2.76087 152.598 2.97502C152.585 3.15737 152.613 3.34027 152.68 3.51057C152.746 3.68088 152.849 3.83435 152.982 3.96001C153.136 4.08196 153.309 4.17912 153.493 4.248C153.701 4.32899 153.916 4.3893 154.135 4.42802L155.07 4.57201C155.27 4.60401 155.449 4.63801 155.604 4.67201C155.745 4.70327 155.884 4.7454 156.018 4.79802C156.133 4.84252 156.243 4.89671 156.348 4.96001C156.449 5.02027 156.544 5.09065 156.631 5.17003C156.874 5.37973 157.065 5.64213 157.19 5.93715C157.315 6.23217 157.371 6.55196 157.354 6.87202V6.87202Z" fill="#464749"/>
</svg>
