<?xml version="1.0" encoding="utf-8"?>
<!-- Generator: Adobe Illustrator 22.1.0, SVG Export Plug-In . SVG Version: 6.00 Build 0)  -->
<svg version="1.1" id="Layer_1" xmlns="http://www.w3.org/2000/svg" xmlns:xlink="http://www.w3.org/1999/xlink" x="0px" y="0px"
	 viewBox="0 0 772.3 144.4" style="enable-background:new 0 0 772.3 144.4;" xml:space="preserve">
<style type="text/css">
	.st0{fill:#58595B;}
	.st1{fill:#DBE0F1;}
	.st2{fill:#5769A3;}
	.st3{fill:#FFFFFF;}
	.st4{fill:none;stroke:#58595B;stroke-width:0.5;stroke-miterlimit:10;}
</style>
<g>
	<path class="st0" d="M148.5,68.2v-0.3c0.8,0,1.5-0.2,2-0.5c0.5-0.3,0.9-0.6,1.1-1c0.1-0.2,0.2-0.5,0.3-0.9c0.1-0.4,0.1-0.7,0.1-1.1
		c0-1.2,0.1-2.4,0.1-3.5s0-2.3,0-3.5v-7.9c-0.6,1.4-1.2,2.7-1.7,3.8s-1,2.3-1.5,3.4c-0.5,1.1-1,2.2-1.5,3.4
		c-0.5,1.1-1.1,2.4-1.7,3.8c-0.1,0.2-0.2,0.5-0.4,0.9c-0.2,0.4-0.3,0.8-0.5,1.2s-0.3,0.8-0.5,1.1c-0.1,0.3-0.2,0.6-0.3,0.7h-0.2
		c-0.6-1.4-1.2-2.8-1.8-4.1c-0.6-1.4-1.2-2.7-1.7-3.9c-0.6-1.3-1.1-2.4-1.6-3.5s-0.9-2.1-1.3-2.9c-0.4-0.9-0.7-1.6-1-2.2
		c-0.3-0.6-0.4-1-0.5-1.2c0,1.2,0,2.3,0,3.3c0,0.9,0,1.9,0,2.8c0,0.9,0,1.9,0,2.9s0,2.2,0,3.6c0,0.9,0,1.6,0.1,2.3
		c0.1,0.6,0.2,1.2,0.4,1.6c0.2,0.4,0.6,0.8,1,1c0.5,0.3,1.1,0.4,1.9,0.5v0.3H132v-0.3c0.7-0.1,1.2-0.3,1.6-0.6c0.4-0.3,0.7-0.6,1-1
		c0.2-0.4,0.4-1,0.5-1.7c0.1-0.7,0.2-1.5,0.2-2.4c0-0.8,0.1-1.8,0.1-2.8s0-2.3,0-3.5c0-0.5,0-1,0-1.4c0-0.4,0-0.7,0-1.1
		c0-0.4,0-0.7,0-1.1c0-0.4,0-0.8,0-1.4c0-0.5-0.1-0.9-0.3-1.3s-0.4-0.6-0.7-0.8c-0.3-0.2-0.6-0.3-0.9-0.4c-0.3-0.1-0.6-0.1-0.8-0.2
		V48h6l6.7,15.2c0.8-1.8,1.6-3.5,2.4-5.3c0.8-1.8,1.5-3.3,2.1-4.8c0.6-1.4,1.1-2.6,1.5-3.5s0.6-1.5,0.7-1.6h6v0.3
		c-0.8,0-1.3,0.2-1.8,0.5c-0.4,0.3-0.7,0.7-0.8,1.1c-0.1,0.3-0.2,0.8-0.2,1.5c0,0.7-0.1,1.3-0.1,2c0,0.9,0,1.8,0,2.6s0,1.7,0,2.5
		c0,1,0,2,0,3c0,1,0,2,0,3.1c0,0.4,0,0.7,0.1,1.1s0.1,0.6,0.2,0.9c0,0,0.1,0.1,0.2,0.3c0.1,0.1,0.3,0.3,0.5,0.4
		c0.2,0.2,0.5,0.3,0.8,0.4c0.3,0.1,0.7,0.2,1.2,0.2v0.3H148.5z"/>
	<path class="st0" d="M178,68.2h-17.1v-0.3c0.5-0.1,0.9-0.2,1.3-0.4c0.4-0.2,0.7-0.4,1-0.7c0.1-0.1,0.2-0.3,0.2-0.5
		c0.1-0.2,0.1-0.5,0.2-0.7c0-0.3,0.1-0.6,0.1-0.9c0-0.3,0-0.6,0-0.9c0-0.3,0-0.6,0-1.1c0-0.4,0-0.9,0-1.5c0-0.5,0-1.1,0-1.6
		c0-0.6,0-1.1,0-1.6v-5.5c0-0.3,0-0.7,0-1c0-0.4,0-0.7-0.1-1s-0.1-0.6-0.1-0.9s-0.2-0.4-0.3-0.5c-0.3-0.3-0.6-0.5-0.9-0.6
		s-0.7-0.2-1.2-0.2V48h15.5l1.9,4.6l-0.3,0.1c-1.5-1.9-2.9-3.2-4.3-3.8c-0.3-0.1-0.9-0.3-1.8-0.4c-0.9-0.1-1.9-0.2-3.1-0.2
		c-0.4,0-0.8,0-1.2,0c-0.4,0-0.7,0.1-0.9,0.1c0,0.3-0.1,0.9-0.1,1.8s0,2,0,3.2c0,0.7,0,1.3,0,1.8c0,0.5,0,0.9,0,1.2
		c0,0.3,0,0.5,0,0.7c0,0.1,0,0.3,0,0.3c0.1,0,0.3,0,0.6,0s0.6,0,1,0c0.4,0,0.7,0,1.1-0.1c0.4,0,0.7-0.1,0.9-0.1
		c0.6-0.1,1-0.3,1.4-0.5c0.4-0.2,0.7-0.5,0.9-0.8s0.4-0.7,0.6-1.1c0.1-0.4,0.3-0.9,0.4-1.4h0.3v8.8h-0.3c-0.1-0.6-0.4-1.2-0.7-1.8
		s-0.6-1.1-1-1.4c-0.3-0.3-0.7-0.5-1.1-0.6s-0.9-0.3-1.5-0.3c-0.3,0-0.5,0-0.7,0c-0.2,0-0.4,0-0.6,0c-0.2,0-0.4,0-0.6,0
		c-0.2,0-0.4,0-0.7,0c0,0.3-0.1,0.6-0.1,1.1s0,1,0,1.6c0,0.2,0,0.5,0,0.8s0,0.6,0,1c0,0.3,0,0.6,0,0.9c0,0.3,0,0.5,0,0.7
		c0,0.6,0.1,1.2,0.1,1.7s0.2,0.9,0.3,1.2s0.6,0.4,1.2,0.6c0.6,0.1,1.3,0.2,2.1,0.2c0.3,0,0.7,0,1.2,0c0.5,0,1-0.1,1.6-0.1
		c0.6-0.1,1.1-0.2,1.7-0.4s1-0.5,1.5-0.9c0.5-0.4,0.9-0.9,1.4-1.4c0.4-0.6,0.9-1.3,1.4-2.1l0.3,0.1L178,68.2z"/>
	<path class="st0" d="M196.9,68.2c-0.2-0.2-0.3-0.3-0.4-0.4s-0.2-0.2-0.3-0.3s-0.2-0.3-0.3-0.5c-0.1-0.2-0.4-0.5-0.7-1
		c-0.4-0.5-0.7-1-0.9-1.4c-0.3-0.4-0.5-0.8-0.8-1.2c-0.3-0.4-0.6-0.8-0.9-1.2c-0.3-0.4-0.7-0.9-1.2-1.4c-0.4-0.4-0.8-0.8-1.2-1.2
		c-0.4-0.4-0.9-0.6-1.4-0.7c-0.4-0.1-0.6-0.1-0.8-0.1c-0.2,0-0.4,0-0.6,0c0,1.2,0,2.3,0,3.2c0,0.9,0,1.7,0,2.3c0,0.6,0,1.1,0.1,1.5
		c0,0.4,0.1,0.8,0.3,1.1c0.1,0.2,0.4,0.5,0.9,0.7c0.4,0.3,1,0.4,1.8,0.4v0.3h-9v-0.3c0.5-0.1,0.9-0.2,1.3-0.3c0.4-0.1,0.8-0.4,1-0.7
		c0.1-0.1,0.2-0.3,0.2-0.5c0.1-0.2,0.1-0.5,0.1-0.8c0-0.3,0.1-0.6,0.1-0.9s0-0.6,0-0.9c0-0.3,0-0.6,0-1.1s0-0.9,0-1.5
		c0-0.5,0-1.1,0-1.6c0-0.6,0-1.1,0-1.6v-5.5c0-0.3,0-0.7,0-1c0-0.3,0-0.7-0.1-1c0-0.3-0.1-0.6-0.1-0.8s-0.2-0.4-0.3-0.5
		c-0.3-0.3-0.6-0.5-0.9-0.6s-0.8-0.2-1.3-0.3V48c0.1,0,0.5,0,1.1,0c0.6,0,1.4,0,2.2,0c0.8,0,1.6,0,2.4,0s1.5,0,2,0
		c1.2,0,2.4,0,3.3,0.1c1,0.1,1.9,0.3,2.7,0.8c0.8,0.4,1.5,1,2,1.8c0.5,0.7,0.8,1.7,0.8,2.8c0,0.7-0.1,1.3-0.4,1.9
		c-0.3,0.6-0.6,1-1,1.5s-0.9,0.8-1.5,1.1c-0.6,0.3-1.1,0.6-1.8,0.8v0.1c0.3,0.2,0.6,0.4,0.9,0.7c0.3,0.3,0.6,0.7,0.9,1.1
		c0.5,0.7,1,1.5,1.6,2.3c0.6,0.8,1.1,1.5,1.5,2.2c0.7,1,1.4,1.7,2,2.1c0.7,0.4,1.4,0.7,2.3,0.9v0.3H196.9z M194.2,50.7
		c-0.5-0.7-1.1-1.3-2-1.7c-0.4-0.2-0.9-0.4-1.4-0.4c-0.5-0.1-1-0.1-1.6-0.1c-0.4,0-0.7,0-1,0c-0.2,0-0.4,0-0.6,0.1
		c0,0.1,0,0.2-0.1,0.3c0,0.1,0,0.2,0,0.3c0,0.1,0,0.3,0,0.5c0,0.2,0,0.6,0,1c0,0.7,0,1.4,0,2.2c0,0.8,0,1.6,0,2.4s0,1.4,0,2
		c0,0.6,0,0.9,0,1.1c0.8,0,1.5,0,2.1-0.1c0.7-0.1,1.3-0.2,1.9-0.4c0.6-0.2,1.1-0.4,1.5-0.8c0.4-0.3,0.8-0.7,1-1.1s0.5-0.8,0.6-1.3
		c0.1-0.5,0.2-1,0.2-1.5C194.9,52.3,194.6,51.4,194.2,50.7z"/>
	<path class="st0" d="M222.4,54.5c-0.2-0.9-0.6-1.7-1.1-2.5c-0.5-0.8-1.1-1.5-1.7-2c-0.7-0.6-1.4-1-2.2-1.4
		c-0.8-0.3-1.7-0.5-2.6-0.5c-1.3,0-2.4,0.3-3.4,0.9c-1,0.6-1.9,1.3-2.5,2.3s-1.2,2-1.6,3.2s-0.5,2.4-0.5,3.7c0,1.3,0.2,2.6,0.6,3.8
		s0.9,2.2,1.6,3.1c0.7,0.9,1.6,1.6,2.6,2.1c1,0.5,2.1,0.8,3.4,0.8c1,0,1.9-0.2,2.7-0.5c0.8-0.4,1.6-0.8,2.3-1.4
		c0.7-0.6,1.2-1.2,1.7-2c0.5-0.8,0.8-1.5,0.9-2.3h0.3l-0.1,6.2h-0.3c-0.2-0.3-0.5-0.6-0.7-0.9s-0.4-0.4-0.5-0.4c0,0-0.2,0.1-0.5,0.3
		c-0.3,0.2-0.7,0.4-1.3,0.6c-0.6,0.2-1.2,0.4-2,0.6c-0.8,0.2-1.7,0.3-2.8,0.3c-1.7,0-3.3-0.2-4.7-0.7c-1.4-0.5-2.6-1.2-3.6-2.1
		c-1-0.9-1.7-2-2.3-3.2s-0.8-2.6-0.8-4.2c0-0.3,0-0.7,0.1-1.1c0-0.4,0.1-0.9,0.3-1.4c0.1-0.5,0.3-1,0.5-1.5c0.2-0.5,0.5-1.1,0.8-1.6
		c0.4-0.6,0.9-1.2,1.5-1.8c0.6-0.6,1.3-1.1,2-1.5s1.7-0.8,2.7-1c1-0.3,2.1-0.4,3.3-0.4c1.1,0,2.1,0.1,2.9,0.3s1.5,0.4,2.1,0.7
		c0.6,0.2,1,0.5,1.3,0.7c0.3,0.2,0.5,0.3,0.5,0.3c0,0,0.1,0,0.2-0.1c0.1-0.1,0.2-0.2,0.3-0.3c0.1-0.1,0.2-0.3,0.4-0.4
		c0.1-0.2,0.3-0.3,0.4-0.5h0.3v6.3L222.4,54.5z"/>
	<path class="st0" d="M246.3,48.8c-0.4,0.3-0.7,0.7-0.9,1.2c-0.1,0.1-0.1,0.3-0.2,0.6c0,0.3-0.1,0.6-0.1,1c0,0.4-0.1,0.8-0.1,1.2
		s0,0.9,0,1.3c0,0.8,0,1.7-0.1,2.7s-0.1,2.1-0.1,3.4c0,0.4,0,0.8-0.1,1.3c0,0.5-0.1,1.1-0.3,1.7c-0.2,0.6-0.4,1.2-0.7,1.8
		c-0.3,0.6-0.8,1.2-1.4,1.7c-0.6,0.5-1.4,0.9-2.3,1.2c-0.9,0.3-2.1,0.4-3.4,0.4c-1.3,0-2.5-0.1-3.4-0.4s-1.7-0.7-2.3-1.1
		c-0.6-0.5-1.1-1-1.4-1.6c-0.3-0.6-0.6-1.1-0.7-1.7c-0.2-0.6-0.3-1.1-0.3-1.5c0-0.5,0-0.8,0-1c0-0.5,0-1.2,0-2c0-0.8,0-1.8,0-2.8
		v-3.7c0-0.3,0-0.7,0-1s0-0.6,0-0.9c0-0.3-0.1-0.6-0.1-0.8c-0.1-0.2-0.1-0.4-0.3-0.5c-0.3-0.3-0.6-0.5-1-0.7
		c-0.4-0.1-0.8-0.2-1.3-0.3V48h8.3v0.3c-0.3,0-0.5,0.1-0.8,0.2c-0.3,0.1-0.6,0.2-0.8,0.4c-0.2,0.2-0.4,0.4-0.6,0.7
		c-0.2,0.3-0.3,0.6-0.3,1.1c0,0.5,0,0.9,0,1.3c0,0.4,0,0.7,0,1.1s0,0.7,0,1.1c0,0.4,0,0.8,0,1.3c0,0.6,0,1.2,0,1.7c0,0.5,0,1,0,1.4
		c0,0.4,0,0.8,0,1.2c0,0.4,0,0.8,0,1.3c0,1,0.2,1.9,0.4,2.7c0.3,0.8,0.7,1.5,1.2,2.1s1.1,1,1.8,1.3c0.7,0.3,1.6,0.5,2.5,0.5
		c1.1,0,2-0.1,2.7-0.4s1.4-0.6,1.8-1c0.5-0.4,0.9-0.9,1.2-1.5c0.3-0.6,0.5-1.2,0.6-1.8c0.1-0.6,0.2-1.3,0.3-1.9
		c0-0.7,0.1-1.3,0.1-1.9c0-0.5,0-1,0-1.4c0-0.4,0-0.8,0-1.1c0-0.4,0-0.7,0-1.1c0-0.4,0-0.8,0-1.1c0-0.4,0-0.8,0-1.1
		c0-0.4,0-0.8,0-1.1s0-0.7-0.1-1s-0.1-0.6-0.2-0.7c-0.2-0.5-0.5-0.9-1-1.3c-0.5-0.3-1.1-0.6-2-0.7V48h6.9v0.3
		C247.2,48.4,246.7,48.5,246.3,48.8z"/>
	<path class="st0" d="M265.4,68.2c-0.2-0.2-0.3-0.3-0.4-0.4s-0.2-0.2-0.3-0.3s-0.2-0.3-0.3-0.5c-0.1-0.2-0.4-0.5-0.7-1
		c-0.4-0.5-0.7-1-0.9-1.4c-0.3-0.4-0.5-0.8-0.8-1.2c-0.3-0.4-0.6-0.8-0.9-1.2c-0.3-0.4-0.7-0.9-1.2-1.4c-0.4-0.4-0.8-0.8-1.2-1.2
		c-0.4-0.4-0.9-0.6-1.4-0.7c-0.4-0.1-0.6-0.1-0.8-0.1c-0.2,0-0.4,0-0.6,0c0,1.2,0,2.3,0,3.2c0,0.9,0,1.7,0,2.3c0,0.6,0,1.1,0.1,1.5
		c0,0.4,0.1,0.8,0.3,1.1c0.1,0.2,0.4,0.5,0.9,0.7c0.4,0.3,1,0.4,1.8,0.4v0.3h-9v-0.3c0.5-0.1,0.9-0.2,1.3-0.3c0.4-0.1,0.8-0.4,1-0.7
		c0.1-0.1,0.2-0.3,0.2-0.5c0.1-0.2,0.1-0.5,0.1-0.8c0-0.3,0.1-0.6,0.1-0.9s0-0.6,0-0.9c0-0.3,0-0.6,0-1.1s0-0.9,0-1.5
		c0-0.5,0-1.1,0-1.6c0-0.6,0-1.1,0-1.6v-5.5c0-0.3,0-0.7,0-1c0-0.3,0-0.7-0.1-1c0-0.3-0.1-0.6-0.1-0.8s-0.2-0.4-0.3-0.5
		c-0.3-0.3-0.6-0.5-0.9-0.6s-0.8-0.2-1.3-0.3V48c0.1,0,0.5,0,1.1,0c0.6,0,1.4,0,2.2,0c0.8,0,1.6,0,2.4,0c0.8,0,1.5,0,2,0
		c1.2,0,2.4,0,3.3,0.1c1,0.1,1.9,0.3,2.7,0.8c0.8,0.4,1.5,1,2,1.8c0.5,0.7,0.8,1.7,0.8,2.8c0,0.7-0.1,1.3-0.4,1.9
		c-0.3,0.6-0.6,1-1,1.5s-0.9,0.8-1.5,1.1c-0.6,0.3-1.1,0.6-1.8,0.8v0.1c0.3,0.2,0.6,0.4,0.9,0.7c0.3,0.3,0.6,0.7,0.9,1.1
		c0.5,0.7,1,1.5,1.6,2.3c0.6,0.8,1.1,1.5,1.5,2.2c0.7,1,1.4,1.7,2,2.1c0.7,0.4,1.4,0.7,2.3,0.9v0.3H265.4z M262.7,50.7
		c-0.5-0.7-1.1-1.3-2-1.7c-0.4-0.2-0.9-0.4-1.4-0.4c-0.5-0.1-1-0.1-1.6-0.1c-0.4,0-0.7,0-1,0c-0.2,0-0.4,0-0.6,0.1
		c0,0.1,0,0.2-0.1,0.3c0,0.1,0,0.2,0,0.3c0,0.1,0,0.3,0,0.5c0,0.2,0,0.6,0,1c0,0.7,0,1.4,0,2.2c0,0.8,0,1.6,0,2.4s0,1.4,0,2
		c0,0.6,0,0.9,0,1.1c0.8,0,1.5,0,2.1-0.1c0.7-0.1,1.3-0.2,1.9-0.4c0.6-0.2,1.1-0.4,1.5-0.8c0.4-0.3,0.8-0.7,1-1.1s0.5-0.8,0.6-1.3
		c0.1-0.5,0.2-1,0.2-1.5C263.4,52.3,263.1,51.4,262.7,50.7z"/>
	<path class="st0" d="M288.7,48.7c-0.4,0.2-0.7,0.4-1,0.7s-0.6,0.7-0.9,1.1c-0.3,0.4-0.6,0.9-0.9,1.4c-0.2,0.4-0.5,0.8-0.9,1.4
		s-0.8,1.2-1.2,1.9c-0.4,0.7-0.8,1.3-1.2,1.9c-0.4,0.6-0.7,1.1-0.9,1.4v5.6c0,0.5,0,1.1,0,1.6s0.1,0.9,0.3,1.1
		c0.3,0.4,0.6,0.7,1.1,0.8c0.4,0.1,0.9,0.2,1.3,0.3v0.3h-8.6v-0.3c0.5-0.1,0.9-0.1,1.3-0.3c0.4-0.1,0.8-0.4,1.2-0.9
		c0.1-0.1,0.2-0.3,0.2-0.5c0-0.2,0.1-0.5,0.1-0.8c0-0.3,0-0.6,0.1-0.9s0-0.6,0-0.9c0-0.5,0-1.1,0-1.9c0-0.7,0-1.6,0-2.6
		c0-0.1-0.1-0.2-0.3-0.5c-0.2-0.3-0.4-0.7-0.7-1.1s-0.6-0.9-0.9-1.5c-0.3-0.5-0.6-1.1-1-1.6c-0.3-0.5-0.6-1-0.9-1.4
		s-0.5-0.8-0.7-1.1c-0.4-0.5-0.7-1-1-1.5s-0.6-0.8-0.9-1.1s-0.6-0.6-0.9-0.8c-0.3-0.2-0.6-0.3-1-0.3V48h8.5v0.3
		c-0.3,0-0.6,0-0.8,0.1c-0.3,0-0.5,0.1-0.8,0.2c-0.2,0.1-0.4,0.2-0.6,0.3c-0.1,0.1-0.2,0.3-0.2,0.6c0,0.2,0.1,0.6,0.4,1.1
		c0.3,0.5,0.6,1,0.9,1.5c0.2,0.3,0.4,0.7,0.7,1.2c0.3,0.5,0.6,1,0.9,1.5c0.3,0.5,0.7,1.1,1,1.6c0.3,0.6,0.7,1.1,1,1.6
		c0.2-0.4,0.5-0.8,0.9-1.4c0.4-0.5,0.7-1.1,1.1-1.7s0.7-1.1,1-1.6c0.3-0.5,0.6-0.9,0.7-1.2c0.1-0.1,0.2-0.3,0.3-0.5
		c0.1-0.2,0.2-0.4,0.3-0.6s0.2-0.4,0.3-0.7c0.1-0.2,0.1-0.4,0.1-0.6c0-0.3-0.1-0.5-0.2-0.7c-0.2-0.2-0.3-0.3-0.6-0.4
		c-0.2-0.1-0.5-0.2-0.8-0.2c-0.3,0-0.6-0.1-0.8-0.1V48h6.5v0.3C289.5,48.4,289,48.5,288.7,48.7z"/>
	<path class="st0" d="M151.3,80.5c-0.2-0.9-0.6-1.7-1.1-2.5c-0.5-0.8-1.1-1.5-1.7-2c-0.7-0.6-1.4-1-2.2-1.4
		c-0.8-0.3-1.7-0.5-2.6-0.5c-1.3,0-2.4,0.3-3.4,0.9c-1,0.6-1.9,1.3-2.5,2.3s-1.2,2-1.6,3.2s-0.5,2.4-0.5,3.7c0,1.3,0.2,2.6,0.6,3.8
		s0.9,2.2,1.6,3.1c0.7,0.9,1.6,1.6,2.6,2.1c1,0.5,2.1,0.8,3.4,0.8c1,0,1.9-0.2,2.7-0.5c0.8-0.4,1.6-0.8,2.3-1.4
		c0.7-0.6,1.2-1.2,1.7-2c0.5-0.8,0.8-1.5,0.9-2.3h0.3l-0.1,6.2h-0.3c-0.2-0.3-0.5-0.6-0.7-0.9s-0.4-0.4-0.5-0.4c0,0-0.2,0.1-0.5,0.3
		c-0.3,0.2-0.7,0.4-1.3,0.6c-0.6,0.2-1.2,0.4-2,0.6c-0.8,0.2-1.7,0.3-2.8,0.3c-1.7,0-3.3-0.2-4.7-0.7c-1.4-0.5-2.6-1.2-3.6-2.1
		c-1-0.9-1.7-2-2.3-3.2s-0.8-2.6-0.8-4.2c0-0.3,0-0.7,0.1-1.1c0-0.4,0.1-0.9,0.3-1.4c0.1-0.5,0.3-1,0.5-1.5c0.2-0.5,0.5-1.1,0.8-1.6
		c0.4-0.6,0.9-1.2,1.5-1.8c0.6-0.6,1.3-1.1,2-1.5s1.7-0.8,2.7-1c1-0.3,2.1-0.4,3.3-0.4c1.1,0,2.1,0.1,2.9,0.3s1.5,0.4,2.1,0.7
		c0.6,0.2,1,0.5,1.3,0.7c0.3,0.2,0.5,0.3,0.5,0.3c0,0,0.1,0,0.2-0.1c0.1-0.1,0.2-0.2,0.3-0.3c0.1-0.1,0.2-0.3,0.4-0.4
		c0.1-0.2,0.3-0.3,0.4-0.5h0.3v6.3L151.3,80.5z"/>
	<path class="st0" d="M174.7,88.1c-0.6,1.3-1.3,2.4-2.3,3.3c-1,0.9-2.1,1.7-3.4,2.2c-1.3,0.5-2.6,0.8-4.1,0.8c-1.4,0-2.8-0.2-4-0.7
		c-1.3-0.5-2.4-1.2-3.3-2.1c-1-0.9-1.7-2-2.3-3.2c-0.6-1.3-0.8-2.6-0.8-4.2c0-1.6,0.3-3,0.9-4.3c0.6-1.3,1.4-2.4,2.3-3.2
		c1-0.9,2.1-1.6,3.4-2c1.3-0.5,2.7-0.7,4.2-0.7c1.6,0,3,0.3,4.3,0.8c1.3,0.6,2.3,1.3,3.2,2.3c0.9,0.9,1.5,2,2,3.3
		c0.5,1.2,0.7,2.5,0.7,3.9C175.5,85.4,175.3,86.8,174.7,88.1z M171.6,80.5c-0.3-1.2-0.7-2.2-1.3-3.2c-0.6-0.9-1.3-1.7-2.2-2.3
		c-0.9-0.6-1.9-0.9-3.1-0.9c-1.2,0-2.3,0.3-3.2,0.9s-1.6,1.3-2.2,2.3s-1,2-1.3,3.2c-0.3,1.2-0.4,2.4-0.4,3.6c0,1.3,0.1,2.5,0.4,3.7
		c0.3,1.2,0.7,2.2,1.3,3.1c0.6,0.9,1.3,1.6,2.2,2.2c0.9,0.5,1.9,0.8,3.1,0.8s2.2-0.3,3.1-0.9c0.9-0.6,1.6-1.4,2.2-2.3
		c0.6-0.9,1-2,1.3-3.2c0.3-1.2,0.4-2.4,0.4-3.5C172.1,82.8,171.9,81.7,171.6,80.5z"/>
	<path class="st0" d="M193.6,94.2c-0.2-0.2-0.3-0.3-0.4-0.4c-0.1-0.1-0.2-0.2-0.3-0.3c-0.1-0.1-0.2-0.3-0.4-0.5
		c-0.1-0.2-0.4-0.5-0.7-1c-0.4-0.5-0.7-1-0.9-1.4s-0.5-0.8-0.8-1.2c-0.3-0.4-0.6-0.8-0.9-1.2c-0.3-0.4-0.7-0.9-1.2-1.4
		c-0.4-0.4-0.8-0.8-1.2-1.2c-0.4-0.4-0.9-0.6-1.4-0.7c-0.4-0.1-0.6-0.1-0.8-0.1c-0.2,0-0.4,0-0.6,0c0,1.2,0,2.3,0,3.2
		c0,0.9,0,1.7,0,2.3c0,0.6,0,1.1,0.1,1.5s0.1,0.8,0.3,1.1c0.1,0.2,0.4,0.5,0.9,0.7s1,0.4,1.8,0.4v0.3h-9v-0.3
		c0.5-0.1,0.9-0.2,1.3-0.3c0.4-0.1,0.8-0.4,1-0.7c0.1-0.1,0.2-0.3,0.2-0.5c0.1-0.2,0.1-0.5,0.1-0.8s0.1-0.6,0.1-0.9s0-0.6,0-0.9
		c0-0.3,0-0.6,0-1.1c0-0.4,0-0.9,0-1.5c0-0.5,0-1.1,0-1.6c0-0.6,0-1.1,0-1.6v-5.5c0-0.3,0-0.7,0-1c0-0.3,0-0.7-0.1-1
		c0-0.3-0.1-0.6-0.1-0.8s-0.2-0.4-0.3-0.5c-0.3-0.3-0.6-0.5-0.9-0.6c-0.3-0.1-0.8-0.2-1.3-0.3V74c0.1,0,0.5,0,1.1,0
		c0.6,0,1.4,0,2.2,0c0.8,0,1.6,0,2.4,0s1.5,0,2,0c1.3,0,2.4,0,3.3,0.1c1,0.1,1.9,0.3,2.7,0.8c0.8,0.4,1.5,1,2,1.8s0.8,1.7,0.8,2.8
		c0,0.7-0.1,1.3-0.4,1.9c-0.3,0.6-0.6,1-1,1.5s-0.9,0.8-1.5,1.1c-0.6,0.3-1.1,0.6-1.8,0.8v0.1c0.3,0.2,0.6,0.4,0.9,0.7
		s0.6,0.7,0.9,1.1c0.5,0.7,1,1.5,1.6,2.3c0.6,0.8,1.1,1.5,1.5,2.2c0.7,1,1.4,1.7,2,2.1c0.7,0.4,1.4,0.7,2.3,0.9v0.3H193.6z
		 M190.9,76.7c-0.5-0.7-1.1-1.3-2-1.7c-0.4-0.2-0.9-0.4-1.4-0.4c-0.5-0.1-1-0.1-1.6-0.1c-0.4,0-0.7,0-1,0c-0.2,0-0.4,0-0.6,0.1
		c0,0.1,0,0.2-0.1,0.3s0,0.2,0,0.3s0,0.3,0,0.5c0,0.2,0,0.6,0,1c0,0.7,0,1.4,0,2.2c0,0.8,0,1.6,0,2.4s0,1.4,0,2c0,0.6,0,0.9,0,1.1
		c0.8,0,1.5,0,2.1-0.1c0.7-0.1,1.3-0.2,1.9-0.4c0.6-0.2,1.1-0.4,1.5-0.8c0.4-0.3,0.8-0.7,1.1-1.1c0.3-0.4,0.5-0.8,0.6-1.3
		c0.1-0.5,0.2-1,0.2-1.5C191.6,78.3,191.3,77.4,190.9,76.7z"/>
	<path class="st0" d="M216.6,81.7c-0.2,0.6-0.5,1.1-0.9,1.5s-0.8,0.8-1.3,1.1c-0.5,0.3-1,0.6-1.5,0.7c-0.5,0.2-1.1,0.3-1.7,0.4
		c-0.6,0.1-1.2,0.2-1.8,0.2c-0.6,0-1.2,0.1-1.8,0.1c-0.6,0-1.1,0-1.5,0c0,0.6,0,1.1,0,1.5c0,0.4,0,0.8,0,1.1s0,0.6,0,0.9
		c0,0.3,0,0.6,0,0.9c0,0.6,0,1.1,0.1,1.5c0,0.4,0.1,0.8,0.3,1.1c0.1,0.2,0.4,0.5,0.9,0.7c0.4,0.2,1,0.4,1.8,0.4v0.3h-9v-0.3
		c0.5-0.1,0.9-0.2,1.3-0.3c0.4-0.1,0.8-0.4,1-0.7c0.1-0.1,0.2-0.3,0.2-0.5c0.1-0.2,0.1-0.5,0.1-0.8s0.1-0.6,0.1-0.9s0-0.6,0-0.9
		c0-0.3,0-0.6,0-1.1c0-0.4,0-0.9,0-1.5c0-0.5,0-1.1,0-1.6c0-0.6,0-1.1,0-1.6v-5.5c0-0.3,0-0.7,0-1c0-0.3,0-0.7-0.1-1
		c0-0.3-0.1-0.6-0.1-0.8s-0.2-0.4-0.3-0.5c-0.3-0.3-0.6-0.5-1.1-0.6c-0.4-0.1-0.9-0.2-1.4-0.3V74c0.1,0,0.3,0,0.7,0
		c0.4,0,0.8,0,1.2,0c0.5,0,1,0,1.6,0s1.1,0,1.7,0c0.6,0,1.1,0,1.6,0c0.5,0,0.9,0,1.3,0c1.2,0,2.3,0.1,3.3,0.2c1,0.1,1.8,0.4,2.7,0.9
		c0.8,0.4,1.5,1.1,2,1.9c0.5,0.8,0.8,1.8,0.8,2.9C216.9,80.5,216.8,81.1,216.6,81.7z M213,76.8c-0.6-0.8-1.3-1.5-2.2-1.9
		c-0.4-0.2-0.9-0.3-1.4-0.4s-1-0.1-1.6-0.1c-0.4,0-0.7,0-0.9,0c-0.2,0-0.4,0.1-0.5,0.1c0,0.1,0,0.2-0.1,0.3c0,0.1-0.1,0.2-0.1,0.3
		s0,0.3-0.1,0.5s0,0.6-0.1,1c0,0.7,0,1.4,0,2.4c0,0.9,0,1.8,0,2.7c0,0.9,0,1.7,0,2.4s0,1.1,0,1.2c0.8,0,1.5,0,2.2-0.1
		s1.3-0.2,1.9-0.4c1.2-0.4,2.1-1.1,2.7-2c0.6-0.9,1-2,1-3.2C213.9,78.6,213.6,77.6,213,76.8z"/>
	<path class="st0" d="M239.1,88.1c-0.6,1.3-1.3,2.4-2.3,3.3c-1,0.9-2.1,1.7-3.4,2.2c-1.3,0.5-2.6,0.8-4.1,0.8c-1.4,0-2.8-0.2-4-0.7
		s-2.4-1.2-3.3-2.1c-1-0.9-1.7-2-2.3-3.2c-0.6-1.3-0.8-2.6-0.8-4.2c0-1.6,0.3-3,0.9-4.3c0.6-1.3,1.4-2.4,2.3-3.2
		c1-0.9,2.1-1.6,3.4-2c1.3-0.5,2.7-0.7,4.2-0.7c1.6,0,3,0.3,4.3,0.8c1.3,0.6,2.3,1.3,3.2,2.3c0.9,0.9,1.5,2,2,3.3
		c0.5,1.2,0.7,2.5,0.7,3.9C240,85.4,239.7,86.8,239.1,88.1z M236.1,80.5c-0.3-1.2-0.7-2.2-1.3-3.2c-0.6-0.9-1.3-1.7-2.2-2.3
		c-0.9-0.6-1.9-0.9-3.1-0.9c-1.2,0-2.3,0.3-3.2,0.9s-1.6,1.3-2.2,2.3c-0.6,0.9-1,2-1.3,3.2c-0.3,1.2-0.4,2.4-0.4,3.6
		c0,1.3,0.1,2.5,0.4,3.7c0.3,1.2,0.7,2.2,1.3,3.1c0.6,0.9,1.3,1.6,2.2,2.2c0.9,0.5,1.9,0.8,3.1,0.8c1.2,0,2.2-0.3,3.1-0.9
		c0.9-0.6,1.6-1.4,2.2-2.3c0.6-0.9,1-2,1.3-3.2c0.3-1.2,0.4-2.4,0.4-3.5C236.5,82.8,236.4,81.7,236.1,80.5z"/>
	<path class="st0" d="M258.1,94.2c-0.2-0.2-0.3-0.3-0.4-0.4c-0.1-0.1-0.2-0.2-0.3-0.3c-0.1-0.1-0.2-0.3-0.4-0.5
		c-0.1-0.2-0.4-0.5-0.7-1c-0.4-0.5-0.7-1-0.9-1.4s-0.5-0.8-0.8-1.2c-0.3-0.4-0.6-0.8-0.9-1.2c-0.3-0.4-0.7-0.9-1.2-1.4
		c-0.4-0.4-0.8-0.8-1.2-1.2c-0.4-0.4-0.9-0.6-1.4-0.7c-0.4-0.1-0.6-0.1-0.8-0.1c-0.2,0-0.4,0-0.6,0c0,1.2,0,2.3,0,3.2
		c0,0.9,0,1.7,0,2.3c0,0.6,0,1.1,0.1,1.5s0.1,0.8,0.3,1.1c0.1,0.2,0.4,0.5,0.9,0.7s1,0.4,1.8,0.4v0.3h-9v-0.3
		c0.5-0.1,0.9-0.2,1.3-0.3c0.4-0.1,0.8-0.4,1-0.7c0.1-0.1,0.2-0.3,0.2-0.5c0.1-0.2,0.1-0.5,0.1-0.8s0.1-0.6,0.1-0.9s0-0.6,0-0.9
		c0-0.3,0-0.6,0-1.1c0-0.4,0-0.9,0-1.5c0-0.5,0-1.1,0-1.6c0-0.6,0-1.1,0-1.6v-5.5c0-0.3,0-0.7,0-1c0-0.3,0-0.7-0.1-1
		c0-0.3-0.1-0.6-0.1-0.8s-0.2-0.4-0.3-0.5c-0.3-0.3-0.6-0.5-0.9-0.6c-0.3-0.1-0.8-0.2-1.3-0.3V74c0.1,0,0.5,0,1.1,0
		c0.6,0,1.4,0,2.2,0c0.8,0,1.6,0,2.4,0s1.5,0,2,0c1.3,0,2.4,0,3.3,0.1c1,0.1,1.9,0.3,2.7,0.8c0.8,0.4,1.5,1,2,1.8s0.8,1.7,0.8,2.8
		c0,0.7-0.1,1.3-0.4,1.9c-0.3,0.6-0.6,1-1,1.5s-0.9,0.8-1.5,1.1c-0.6,0.3-1.1,0.6-1.8,0.8v0.1c0.3,0.2,0.6,0.4,0.9,0.7
		s0.6,0.7,0.9,1.1c0.5,0.7,1,1.5,1.6,2.3c0.6,0.8,1.1,1.5,1.5,2.2c0.7,1,1.4,1.7,2,2.1c0.7,0.4,1.4,0.7,2.3,0.9v0.3H258.1z
		 M255.3,76.7c-0.5-0.7-1.1-1.3-2-1.7c-0.4-0.2-0.9-0.4-1.4-0.4c-0.5-0.1-1-0.1-1.6-0.1c-0.4,0-0.7,0-1,0c-0.2,0-0.4,0-0.6,0.1
		c0,0.1,0,0.2-0.1,0.3s0,0.2,0,0.3s0,0.3,0,0.5c0,0.2,0,0.6,0,1c0,0.7,0,1.4,0,2.2c0,0.8,0,1.6,0,2.4s0,1.4,0,2c0,0.6,0,0.9,0,1.1
		c0.8,0,1.5,0,2.1-0.1c0.7-0.1,1.3-0.2,1.9-0.4c0.6-0.2,1.1-0.4,1.5-0.8c0.4-0.3,0.8-0.7,1.1-1.1c0.3-0.4,0.5-0.8,0.6-1.3
		c0.1-0.5,0.2-1,0.2-1.5C256,78.3,255.8,77.4,255.3,76.7z"/>
	<path class="st0" d="M275.9,94.2v-0.3c0.1,0,0.2,0,0.4-0.1c0.2,0,0.4-0.1,0.7-0.2c0.2-0.1,0.4-0.2,0.6-0.4s0.3-0.4,0.3-0.6
		c0-0.2-0.1-0.4-0.2-0.8s-0.2-0.8-0.4-1.4c-0.2-0.5-0.4-1.2-0.6-1.8c-0.2-0.7-0.5-1.4-0.8-2.1h-7.4c-0.3,0.7-0.6,1.4-0.8,2
		c-0.3,0.6-0.5,1.3-0.8,1.9c-0.4,1-0.6,1.7-0.6,2.1c0,0.2,0.1,0.4,0.2,0.6s0.3,0.3,0.6,0.4s0.5,0.2,0.8,0.2c0.3,0,0.5,0.1,0.8,0.1
		v0.3h-6v-0.3c0.5-0.1,0.9-0.2,1.2-0.4c0.3-0.2,0.5-0.3,0.6-0.4c0.1-0.1,0.3-0.4,0.6-0.9c0.3-0.5,0.7-1.2,1.1-2.2
		c0.4-0.9,0.8-1.9,1.3-3c0.5-1.1,1-2.3,1.5-3.5s1-2.4,1.5-3.6c0.5-1.2,1-2.3,1.4-3.4l-0.3-0.6c0.3-0.1,0.6-0.3,0.9-0.5
		c0.3-0.2,0.5-0.4,0.7-0.6c0.2-0.2,0.4-0.4,0.5-0.6c0.1-0.2,0.2-0.4,0.3-0.5h0.2c0.6,1.5,1.1,3,1.7,4.4c0.5,1.4,1,2.7,1.5,4
		c0.5,1.3,0.9,2.5,1.4,3.7s0.9,2.4,1.3,3.6c0.2,0.6,0.4,1.1,0.6,1.4c0.2,0.4,0.4,0.8,0.6,1.3c0,0.1,0.1,0.2,0.3,0.4s0.3,0.4,0.5,0.6
		c0.2,0.2,0.5,0.4,0.8,0.5s0.7,0.2,1.1,0.3v0.3H275.9z M272.3,77.2c-0.1,0.2-0.3,0.6-0.5,1.1c-0.2,0.5-0.5,1.2-0.8,1.9
		c-0.3,0.7-0.7,1.6-1.1,2.5c-0.4,0.9-0.8,2-1.2,3.1h7c-0.3-0.8-0.6-1.7-1-2.5c-0.3-0.8-0.6-1.6-1-2.4c-0.3-0.8-0.6-1.5-0.8-2.1
		S272.4,77.6,272.3,77.2z"/>
	<path class="st0" d="M304.7,79.3c-0.1-0.3-0.3-0.7-0.5-1c-0.2-0.4-0.4-0.7-0.6-1s-0.4-0.6-0.6-0.9s-0.4-0.5-0.5-0.6
		c-0.4-0.4-0.8-0.6-1.3-0.7c-0.5-0.1-1-0.2-1.8-0.2c-0.4,0-0.7,0-0.9,0c-0.3,0-0.5,0-0.8,0c-0.2,0-0.5,0-0.8,0c-0.3,0-0.6,0-1,0
		c0,0.5,0,1.1,0,1.9s0,1.6,0,2.5c0,0.9,0,1.7,0,2.6c0,0.8,0,1.5,0,2.1v6.2c0,0.5,0,1.1,0,1.6c0,0.5,0.1,0.8,0.3,1
		c0.3,0.4,0.7,0.7,1.2,0.8c0.5,0.2,1,0.3,1.4,0.3v0.3h-9.1v-0.3c0.5-0.1,1-0.1,1.4-0.3s0.9-0.4,1.3-0.9c0.1-0.1,0.2-0.2,0.2-0.5
		c0-0.2,0.1-0.5,0.1-0.7c0-0.3,0-0.6,0.1-0.9c0-0.3,0-0.6,0-0.9c0-0.3,0-0.6,0-1c0-0.4,0-0.9,0-1.4s0-1.1,0-1.6c0-0.6,0-1.1,0-1.6
		v-9.3c-0.4,0-0.7,0-1,0c-0.3,0-0.6,0-0.8,0c-0.2,0-0.5,0-0.8,0c-0.3,0-0.6,0-0.9,0c-0.7,0-1.3,0.1-1.8,0.3s-0.9,0.4-1.3,0.8
		c-0.2,0.1-0.3,0.3-0.5,0.6c-0.2,0.3-0.4,0.5-0.6,0.9s-0.4,0.6-0.6,1c-0.2,0.4-0.4,0.7-0.5,1l-0.3-0.1l0.8-5.3
		c0.4,0.1,0.8,0.2,1.2,0.2c0.4,0.1,0.9,0.1,1.6,0.1c0.7,0,1.3,0,1.9,0c0.6,0,1.1,0,1.6,0s1.1,0,1.6,0c0.6,0,1.2,0,1.9,0s1.3,0,1.8,0
		c0.6,0,1.1,0,1.6,0c0.5,0,1.1,0,1.6,0c0.6,0,1.2,0,1.9,0c0.6,0,1.1-0.1,1.5-0.2s0.8-0.2,1.2-0.3l0.9,5.5L304.7,79.3z"/>
	<path class="st0" d="M306.6,94.2v-0.3c0.5-0.1,0.9-0.2,1.3-0.4s0.7-0.4,1-0.7c0.1-0.1,0.2-0.3,0.2-0.5c0-0.2,0.1-0.4,0.1-0.7
		c0-0.3,0-0.6,0.1-0.9c0-0.3,0-0.6,0-0.9c0-0.3,0-0.6,0-1.1c0-0.4,0-0.9,0-1.5c0-0.5,0-1.1,0-1.6c0-0.6,0-1.1,0-1.6v-5.5
		c0-0.3,0-0.7,0-1s0-0.6,0-0.9c0-0.3-0.1-0.6-0.1-0.8c-0.1-0.2-0.1-0.4-0.3-0.5c-0.3-0.3-0.6-0.5-1-0.7c-0.4-0.1-0.8-0.2-1.3-0.3V74
		h8.4v0.3c-0.4,0.1-0.8,0.2-1.3,0.3c-0.4,0.1-0.8,0.4-1,0.9c-0.2,0.3-0.3,0.7-0.3,1.2c0,0.5,0,0.9,0,1.4c0,0.5,0,0.9,0,1.4
		c0,0.5,0,0.9,0,1.4c0,0.5,0,1,0,1.5c0,0.5,0,1,0,1.6v6.3c0,0.5,0,1.1,0,1.6s0.1,0.9,0.3,1.1c0.2,0.3,0.6,0.6,1.1,0.7
		s0.9,0.3,1.3,0.3v0.3H306.6z"/>
	<path class="st0" d="M338.1,88.1c-0.6,1.3-1.3,2.4-2.3,3.3c-1,0.9-2.1,1.7-3.4,2.2c-1.3,0.5-2.6,0.8-4.1,0.8c-1.4,0-2.8-0.2-4-0.7
		s-2.4-1.2-3.3-2.1c-1-0.9-1.7-2-2.3-3.2c-0.6-1.3-0.8-2.6-0.8-4.2c0-1.6,0.3-3,0.9-4.3c0.6-1.3,1.4-2.4,2.3-3.2
		c1-0.9,2.1-1.6,3.4-2c1.3-0.5,2.7-0.7,4.2-0.7c1.6,0,3,0.3,4.3,0.8c1.3,0.6,2.3,1.3,3.2,2.3c0.9,0.9,1.5,2,2,3.3
		c0.5,1.2,0.7,2.5,0.7,3.9C338.9,85.4,338.7,86.8,338.1,88.1z M335,80.5c-0.3-1.2-0.7-2.2-1.3-3.2c-0.6-0.9-1.3-1.7-2.2-2.3
		c-0.9-0.6-1.9-0.9-3.1-0.9c-1.2,0-2.3,0.3-3.2,0.9s-1.6,1.3-2.2,2.3s-1,2-1.3,3.2c-0.3,1.2-0.4,2.4-0.4,3.6c0,1.3,0.1,2.5,0.4,3.7
		c0.3,1.2,0.7,2.2,1.3,3.1c0.6,0.9,1.3,1.6,2.2,2.2c0.9,0.5,1.9,0.8,3.1,0.8s2.2-0.3,3.1-0.9c0.9-0.6,1.6-1.4,2.2-2.3
		c0.6-0.9,1-2,1.3-3.2c0.3-1.2,0.4-2.4,0.4-3.5C335.5,82.8,335.3,81.7,335,80.5z"/>
	<path class="st0" d="M362.5,74.8c-0.4,0.3-0.7,0.7-1,1.2c-0.1,0.3-0.2,0.8-0.3,1.6s-0.1,1.6-0.1,2.4c0,0.8-0.1,1.8-0.1,2.8
		c0,1.1,0,2.3,0,3.5c0,0.5,0,1.1,0,1.8c0,0.7,0,1.3,0,2c0,0.7,0,1.4,0,2c0,0.7,0,1.3,0,1.8c0,0.1,0,0.1-0.1,0.2c0,0-0.1,0.1-0.2,0.1
		c-0.1,0-0.3-0.1-0.5-0.3c-1.6-1.8-3-3.5-4.3-5c-1.3-1.5-2.6-3-3.7-4.4c-1.2-1.4-2.3-2.7-3.5-4.1c-1.1-1.3-2.3-2.7-3.6-4.1v11.8
		c0,1,0,1.8,0.1,2.6c0,0.8,0.2,1.3,0.3,1.7c0.2,0.4,0.5,0.8,1,1c0.4,0.2,1,0.4,1.8,0.5v0.3h-6.9v-0.3c0.4-0.1,0.9-0.2,1.3-0.4
		c0.4-0.2,0.8-0.5,1.1-0.9c0.3-0.4,0.4-1,0.5-1.7c0.1-0.8,0.1-1.7,0.2-2.7c0-0.8,0.1-1.8,0.1-2.8s0-2.3,0-3.5c0-0.5,0-1,0-1.3
		s0-0.7,0-1s0-0.7,0-1c0-0.4,0-0.8,0-1.4c-0.1-0.5-0.2-1-0.4-1.3c-0.2-0.3-0.4-0.6-0.7-0.8c-0.3-0.2-0.6-0.3-0.9-0.4
		c-0.3-0.1-0.6-0.1-0.9-0.2V74h5.7l13.3,15.5V80c0-0.7,0-1.5,0-2.1s-0.1-1.2-0.3-1.6c-0.2-0.5-0.5-0.9-1-1.3
		c-0.5-0.3-1.2-0.6-2.1-0.7V74h6.9v0.3C363.5,74.4,362.9,74.5,362.5,74.8z"/>
</g>
<g>
	<path class="st0" d="M453.7,67.5v7.7h-0.9v-7.7h-2.5v-0.8h5.9v0.8H453.7z"/>
	<path class="st0" d="M465.3,75.2l-1.9-3.8h-2.1v3.8h-0.9v-8.5h3.3c0.4,0,0.7,0.1,1,0.2c0.3,0.1,0.6,0.3,0.8,0.5
		c0.2,0.2,0.4,0.5,0.5,0.8s0.2,0.6,0.2,1c0,0.6-0.2,1.1-0.5,1.5c-0.3,0.4-0.8,0.7-1.3,0.8l2,3.9H465.3z M465.3,69
		c0-0.5-0.2-0.9-0.5-1.2c-0.3-0.3-0.7-0.4-1.2-0.4h-2.3v3.1h2.3c0.5,0,0.9-0.1,1.2-0.4C465.1,70,465.3,69.6,465.3,69z"/>
	<path class="st0" d="M475.9,75.2l-0.7-1.9h-3.7l-0.7,1.9h-1l3.1-8.5h0.8l3.1,8.5H475.9z M473.4,68l-1.6,4.5h3.2L473.4,68z"/>
	<path class="st0" d="M486.8,70.8c0,0.3,0,0.6,0,0.9c0,0.3,0,0.7-0.1,1c0,0.3-0.1,0.6-0.2,0.9c-0.1,0.3-0.3,0.5-0.5,0.8
		c-0.3,0.3-0.6,0.5-0.9,0.6c-0.4,0.1-0.8,0.2-1.2,0.2h-2.9v-8.5h2.9c0.4,0,0.9,0.1,1.2,0.2s0.7,0.3,0.9,0.6c0.2,0.2,0.4,0.5,0.5,0.7
		c0.1,0.3,0.2,0.5,0.2,0.8s0.1,0.6,0.1,0.9C486.8,70.2,486.8,70.5,486.8,70.8z M485.9,70.8c0-0.3,0-0.5,0-0.8c0-0.3,0-0.5-0.1-0.7
		c0-0.2-0.1-0.5-0.2-0.7c-0.1-0.2-0.2-0.4-0.3-0.5c-0.2-0.2-0.5-0.4-0.8-0.5c-0.3-0.1-0.6-0.1-0.9-0.1h-1.9v6.9h1.9
		c0.3,0,0.6,0,0.9-0.1c0.3-0.1,0.5-0.3,0.8-0.5c0.1-0.2,0.3-0.3,0.3-0.6s0.1-0.5,0.2-0.7c0-0.3,0-0.5,0.1-0.8
		C485.9,71.4,485.9,71.1,485.9,70.8z"/>
	<path class="st0" d="M491.6,75.2v-8.5h0.9v8.5H491.6z"/>
	<path class="st0" d="M503.1,75.2l-4.5-6.9v6.9h-0.9v-8.5h0.9l4.5,6.8v-6.8h0.9v8.5H503.1z"/>
	<path class="st0" d="M514.8,72.1c0,0.5-0.1,0.9-0.2,1.3c-0.1,0.3-0.3,0.7-0.6,0.9c-0.3,0.3-0.6,0.6-1,0.7c-0.4,0.2-0.8,0.2-1.2,0.2
		c-0.4,0-0.8-0.1-1.2-0.2c-0.4-0.2-0.7-0.4-1-0.7c-0.2-0.2-0.4-0.4-0.5-0.6c-0.1-0.2-0.2-0.5-0.2-0.7c-0.1-0.3-0.1-0.6-0.1-0.9
		c0-0.3,0-0.7,0-1.2s0-0.9,0-1.2s0-0.6,0.1-0.9c0.1-0.3,0.1-0.5,0.2-0.7c0.1-0.2,0.3-0.4,0.5-0.6c0.6-0.6,1.3-0.9,2.2-0.9
		c0.4,0,0.8,0.1,1.1,0.2c0.3,0.1,0.6,0.3,0.9,0.5c0.3,0.2,0.5,0.5,0.6,0.8c0.2,0.3,0.3,0.7,0.3,1h-0.9c-0.1-0.5-0.4-1-0.7-1.3
		c-0.4-0.3-0.8-0.5-1.3-0.5c-0.3,0-0.6,0.1-0.8,0.2s-0.5,0.3-0.7,0.5c-0.1,0.1-0.2,0.3-0.3,0.4c-0.1,0.2-0.1,0.3-0.2,0.6
		s-0.1,0.5-0.1,0.8c0,0.3,0,0.7,0,1.1c0,0.4,0,0.8,0,1.1s0,0.6,0.1,0.8s0.1,0.4,0.2,0.6s0.2,0.3,0.3,0.4c0.2,0.2,0.4,0.3,0.7,0.4
		c0.3,0.1,0.5,0.2,0.8,0.2c0.3,0,0.6-0.1,0.9-0.2c0.3-0.1,0.5-0.3,0.7-0.5c0.2-0.2,0.3-0.4,0.4-0.7c0.1-0.2,0.1-0.5,0.1-0.9v-0.7
		h-2.1v-0.8h3V72.1z"/>
	<path class="st0" d="M530.4,72.9c0,0.4-0.1,0.7-0.2,1s-0.3,0.6-0.6,0.8c-0.3,0.2-0.6,0.4-0.9,0.5s-0.8,0.2-1.2,0.2
		c-0.6,0-1.2-0.1-1.6-0.3c-0.5-0.2-0.9-0.5-1.3-0.9l0.6-0.6c0.4,0.4,0.7,0.6,1.1,0.7c0.4,0.1,0.8,0.2,1.3,0.2c0.6,0,1.1-0.1,1.5-0.4
		c0.4-0.3,0.5-0.7,0.5-1.2c0-0.2,0-0.4-0.1-0.6c-0.1-0.2-0.2-0.3-0.3-0.5c-0.1-0.1-0.3-0.2-0.4-0.3c-0.1-0.1-0.4-0.1-0.7-0.2l-1-0.2
		c-0.7-0.1-1.2-0.3-1.6-0.6c-0.4-0.4-0.6-0.9-0.6-1.6c0-0.4,0.1-0.7,0.2-1c0.1-0.3,0.3-0.6,0.5-0.8c0.2-0.2,0.5-0.4,0.9-0.5
		c0.3-0.1,0.7-0.2,1.1-0.2c0.5,0,1,0.1,1.4,0.2c0.4,0.1,0.8,0.4,1.1,0.7l-0.6,0.6c-0.3-0.2-0.5-0.4-0.9-0.5
		c-0.3-0.1-0.7-0.2-1.1-0.2c-0.6,0-1,0.1-1.3,0.4c-0.3,0.3-0.5,0.7-0.5,1.2c0,0.4,0.1,0.8,0.4,1c0.1,0.1,0.3,0.2,0.5,0.3
		s0.4,0.1,0.6,0.2l0.9,0.1c0.2,0,0.4,0.1,0.5,0.1c0.2,0,0.3,0.1,0.4,0.1s0.2,0.1,0.3,0.2c0.1,0.1,0.2,0.1,0.3,0.2
		C530.1,71.6,530.4,72.1,530.4,72.9z"/>
	<path class="st0" d="M540.6,70.9c0,0.5,0,0.9,0,1.2c0,0.3,0,0.6-0.1,0.9c-0.1,0.3-0.1,0.5-0.2,0.7c-0.1,0.2-0.3,0.4-0.5,0.6
		c-0.3,0.3-0.6,0.5-1,0.7c-0.4,0.2-0.8,0.2-1.2,0.2c-0.9,0-1.6-0.3-2.2-0.9c-0.2-0.2-0.4-0.4-0.5-0.6c-0.1-0.2-0.2-0.5-0.2-0.7
		c-0.1-0.3-0.1-0.6-0.1-0.9c0-0.3,0-0.7,0-1.2s0-0.9,0-1.2s0-0.6,0.1-0.9c0.1-0.3,0.1-0.5,0.2-0.7c0.1-0.2,0.3-0.4,0.5-0.6
		c0.6-0.6,1.3-0.9,2.2-0.9c0.9,0,1.6,0.3,2.2,0.9c0.2,0.2,0.4,0.4,0.5,0.6c0.1,0.2,0.2,0.5,0.2,0.7c0.1,0.3,0.1,0.6,0.1,0.9
		S540.6,70.5,540.6,70.9z M539.7,70.9c0-0.5,0-0.8,0-1.1c0-0.3,0-0.6-0.1-0.8s-0.1-0.4-0.2-0.6c-0.1-0.2-0.2-0.3-0.3-0.4
		c-0.2-0.2-0.4-0.3-0.7-0.5s-0.5-0.2-0.8-0.2c-0.3,0-0.6,0.1-0.8,0.2s-0.5,0.3-0.7,0.5c-0.1,0.1-0.2,0.3-0.3,0.4
		c-0.1,0.2-0.1,0.3-0.2,0.6s-0.1,0.5-0.1,0.8c0,0.3,0,0.7,0,1.1c0,0.4,0,0.8,0,1.1s0,0.6,0.1,0.8c0,0.2,0.1,0.4,0.2,0.6
		s0.2,0.3,0.3,0.4c0.2,0.2,0.4,0.3,0.7,0.5s0.5,0.2,0.8,0.2c0.3,0,0.5-0.1,0.8-0.2s0.5-0.3,0.7-0.5c0.1-0.1,0.2-0.3,0.3-0.4
		s0.1-0.3,0.2-0.6c0-0.2,0.1-0.5,0.1-0.8S539.7,71.4,539.7,70.9z"/>
	<path class="st0" d="M545.4,75.2v-8.5h0.9v7.7h4.4v0.8H545.4z"/>
	<path class="st0" d="M560.4,72.4c0,0.4-0.1,0.8-0.2,1.2c-0.1,0.4-0.4,0.7-0.6,0.9c-0.3,0.3-0.6,0.5-0.9,0.6s-0.8,0.2-1.2,0.2
		c-0.4,0-0.8-0.1-1.2-0.2c-0.4-0.1-0.7-0.3-0.9-0.6s-0.5-0.6-0.6-0.9c-0.1-0.4-0.2-0.7-0.2-1.2v-5.7h0.9v5.7c0,0.3,0,0.6,0.1,0.9
		c0.1,0.3,0.2,0.5,0.4,0.7c0.2,0.2,0.4,0.3,0.7,0.4c0.3,0.1,0.5,0.2,0.9,0.2c0.3,0,0.6-0.1,0.9-0.2c0.3-0.1,0.5-0.2,0.7-0.4
		c0.2-0.2,0.3-0.4,0.4-0.7c0.1-0.3,0.2-0.6,0.2-0.9v-5.7h0.9V72.4z"/>
	<path class="st0" d="M567.9,67.5v7.7H567v-7.7h-2.5v-0.8h5.9v0.8H567.9z"/>
	<path class="st0" d="M574.6,75.2v-8.5h0.9v8.5H574.6z"/>
	<path class="st0" d="M586.3,70.9c0,0.5,0,0.9,0,1.2c0,0.3,0,0.6-0.1,0.9c-0.1,0.3-0.1,0.5-0.2,0.7c-0.1,0.2-0.3,0.4-0.5,0.6
		c-0.3,0.3-0.6,0.5-1,0.7c-0.4,0.2-0.8,0.2-1.2,0.2c-0.9,0-1.6-0.3-2.2-0.9c-0.2-0.2-0.4-0.4-0.5-0.6c-0.1-0.2-0.2-0.5-0.2-0.7
		c-0.1-0.3-0.1-0.6-0.1-0.9c0-0.3,0-0.7,0-1.2s0-0.9,0-1.2s0-0.6,0.1-0.9c0.1-0.3,0.1-0.5,0.2-0.7c0.1-0.2,0.3-0.4,0.5-0.6
		c0.6-0.6,1.3-0.9,2.2-0.9c0.9,0,1.6,0.3,2.2,0.9c0.2,0.2,0.4,0.4,0.5,0.6c0.1,0.2,0.2,0.5,0.2,0.7c0.1,0.3,0.1,0.6,0.1,0.9
		S586.3,70.5,586.3,70.9z M585.4,70.9c0-0.5,0-0.8,0-1.1c0-0.3,0-0.6-0.1-0.8s-0.1-0.4-0.2-0.6c-0.1-0.2-0.2-0.3-0.3-0.4
		c-0.2-0.2-0.4-0.3-0.7-0.5s-0.5-0.2-0.8-0.2c-0.3,0-0.6,0.1-0.8,0.2s-0.5,0.3-0.7,0.5c-0.1,0.1-0.2,0.3-0.3,0.4
		c-0.1,0.2-0.1,0.3-0.2,0.6s-0.1,0.5-0.1,0.8c0,0.3,0,0.7,0,1.1c0,0.4,0,0.8,0,1.1s0,0.6,0.1,0.8c0,0.2,0.1,0.4,0.2,0.6
		s0.2,0.3,0.3,0.4c0.2,0.2,0.4,0.3,0.7,0.5s0.5,0.2,0.8,0.2c0.3,0,0.5-0.1,0.8-0.2s0.5-0.3,0.7-0.5c0.1-0.1,0.2-0.3,0.3-0.4
		s0.1-0.3,0.2-0.6c0-0.2,0.1-0.5,0.1-0.8S585.4,71.4,585.4,70.9z"/>
	<path class="st0" d="M596.5,75.2l-4.5-6.9v6.9h-0.9v-8.5h0.9l4.5,6.8v-6.8h0.9v8.5H596.5z"/>
	<path class="st0" d="M607.7,72.9c0,0.4-0.1,0.7-0.2,1s-0.3,0.6-0.6,0.8c-0.3,0.2-0.6,0.4-0.9,0.5s-0.8,0.2-1.2,0.2
		c-0.6,0-1.2-0.1-1.6-0.3c-0.5-0.2-0.9-0.5-1.3-0.9l0.6-0.6c0.4,0.4,0.7,0.6,1.1,0.7c0.4,0.1,0.8,0.2,1.3,0.2c0.6,0,1.1-0.1,1.5-0.4
		c0.4-0.3,0.5-0.7,0.5-1.2c0-0.2,0-0.4-0.1-0.6c-0.1-0.2-0.2-0.3-0.3-0.5c-0.1-0.1-0.3-0.2-0.4-0.3c-0.1-0.1-0.4-0.1-0.7-0.2l-1-0.2
		c-0.7-0.1-1.2-0.3-1.6-0.6c-0.4-0.4-0.6-0.9-0.6-1.6c0-0.4,0.1-0.7,0.2-1c0.1-0.3,0.3-0.6,0.5-0.8c0.2-0.2,0.5-0.4,0.9-0.5
		c0.3-0.1,0.7-0.2,1.1-0.2c0.5,0,1,0.1,1.4,0.2c0.4,0.1,0.8,0.4,1.1,0.7l-0.6,0.6c-0.3-0.2-0.5-0.4-0.9-0.5
		c-0.3-0.1-0.7-0.2-1.1-0.2c-0.6,0-1,0.1-1.3,0.4c-0.3,0.3-0.5,0.7-0.5,1.2c0,0.4,0.1,0.8,0.4,1c0.1,0.1,0.3,0.2,0.5,0.3
		s0.4,0.1,0.6,0.2l0.9,0.1c0.2,0,0.4,0.1,0.5,0.1c0.2,0,0.3,0.1,0.4,0.1s0.2,0.1,0.3,0.2c0.1,0.1,0.2,0.1,0.3,0.2
		C607.4,71.6,607.7,72.1,607.7,72.9z"/>
</g>
<g>
	<circle class="st1" cx="81.2" cy="70.9" r="40"/>
	<path class="st2" d="M100.1,63c0.7-0.1,4.6-0.8,8.9-1.8c0.6-0.1-6.2-6.7-6.6-7.1c-3.9-8-12.1-13.5-21.5-13.5
		c-4.7,0-9.2,1.4-12.9,3.8c-0.6-0.2-0.9-0.3-1-0.3c-1.2-0.3-31.7-7.1-32.2-7.4c-0.4-0.2-0.7,0-0.7,0.5c0,1,0.3,1.9,0.7,2.8
		c1,2.1,2.5,3.5,4.6,4.4c0.9,0.4,1,0.4,0.9,1.3c-0.1,1.3,0.5,2.1,1.4,2.9c0.8,0.6,1.8,1,2.7,1.4c0.4,0.2,0.6,0.3,0.5,0.7
		c-0.1,0.3,0,0.7,0.1,1c0.3,1.5,2.2,2.5,2.3,2.6c1.5,0.9,3.1,1.4,4.7,1.8c0.2,0.1,0.4,0.1,0.4,0.4c0,1.2,0.6,2.1,1.5,2.8
		c0.9,0.7,2,1.3,3,1.5c3.9,0.9,3.1,1.4,3.1,3.2c0,0.8-1.2,0.4-2.9,1.1c-0.9,0.4-0.9,1.9-0.1,4c0.1,0.3,0.3,0.4,0.7,0.3
		c0.9-0.2,1.7-0.2,2.6-0.4c0.3-0.1,0.4,0,0.5,0.4c0.1,1.2,0.4,2.4,0.7,3.6c0.2,0.6,0.6,1.2,0.4,1.6c-0.2,0.5-0.9,0.8-1.4,1.1
		c-1.7,1.2-3.2,2.6-5,3.6c-0.3,0.2-0.6,0.3-1,0.2c-1.1-0.4-2.2-0.8-3.4-1.1c-0.8-0.2-1.5-0.4-2.3-0.5c0,0,0,0,0,0
		c-0.8-0.1-1.5-0.3-2.3-0.4c0,0,0,0,0,0c-0.8-0.1-1.5-0.2-2.3-0.2c0,0,0,0,0,0c-0.8,0-1.5,0-2.3,0c0,0,0,0,0,0c0,0,0,0,0,0
		c0,0,0,0-0.1,0c3.2,18.9,19.6,33.3,39.4,33.3c2.1,0,4.1-0.2,6.1-0.5c0.1-0.5,0.3-1,0.4-1.5c0,0,0,0,0,0c0,0,0,0,0-0.1
		c0.1-0.5,0.2-1,0.3-1.5c0.4-2.2,0.6-4.2,0.2-5.8c-2.2-3.3-6.5-7.7-9.9-9.8c-0.4-0.2-0.4-0.4-0.2-0.7c0.5-0.6,1-1.3,1.4-1.9
		c0.2-0.3,0.4-0.4,0.8-0.2c2.1,1.1,4.3,2.1,6.6,2.9c1.8,0.6,3.6,1.1,5.5,1.1c1.9,0,3.2-0.9,3.6-2.5c0.2-0.8,0.2-1.6,0-2.4
		c-0.2-0.9-0.2-1.5,0.5-2.2c1.1-1,0.9-2.4-0.2-3.4c-0.1-0.1-0.3-0.2-0.3-0.4c0.5-0.2,0.9-0.4,1.4-0.5c0.6-0.2,0.9-0.5,0.8-1.2
		c-0.1-0.4,0-0.9,0-1.3c0-0.3,0.1-0.4,0.4-0.5c0.9-0.2,1.7-0.5,2.5-1c1.2-0.7,1.5-1.6,0.9-2.8c-0.8-1.7-1.5-3.4-2.3-5.1
		c-0.4-1-0.7-1.9,0.3-2.7c0.4-0.3,0.3-0.7,0.2-1.1c-0.2-0.6-0.5-1.3-0.7-1.9C99.4,63.2,99.4,63.1,100.1,63z"/>
	<path class="st3" d="M100,74.3c-0.2-0.4-0.5-0.7-0.5-1.2c-0.3-1.7-0.8-3.3-1.5-4.8c-0.2-0.4-0.1-0.6,0-0.9c0.3-0.6,0.5-1.2,0.3-2
		c-0.1-0.4-0.2-0.8-0.3-1.2c-0.1-0.3-0.2-0.5-0.6-0.4c-2.2,0.4-4.3,0.7-6.5,1.1c-2.4,0.4-4.8,0.8-7.2,1.2c-0.3,0.1-0.6,0.1-0.7,0.4
		c-1.1,1.9-2.2,3.7-2.7,5.9c-0.1,0.3-0.2,0.5-0.6,0.5c-0.9,0-1.8,0.1-2.7,0.1c-0.4,0-0.6-0.1-0.7-0.4c-0.3-0.4-0.6-0.9-0.9-1.3
		c-0.8-1-1.5-2-2.7-2.6c-0.9-0.4-1.6-0.2-2,0.6c-0.1,0.3-0.2,0.6-0.3,0.9c-0.4,1.4-0.3,2.9-0.1,4.3c0.2,1.4,0.5,2.8,1.2,4
		c0.8,1.3,1.4,1.8,2.5,1.1c0.2-0.1,0.4-0.2,0.5,0c0,0,0,0.3-0.1,0.7c-0.1,0.3-0.1,0.6-0.2,0.8c-0.2,0.6-1,1.4-1.9,1
		c-1.7-0.7-3.5-4.6-3.8-4.7c-1.4-0.3-2.8-0.5-4.2-0.8c-0.2,0-0.5,0-0.6,0.1c-1.6,1.2-1.1,0.7-2.7,2c-0.5,0.4,8.6,12.4,12.1,16.9
		c0.5,0.6,1.5,0.4,1.6-0.4c0.3-1.5,0.8-3.4,1.5-4.2c0.4-0.4,1.9-2.6,2.9-3.9c0.4-0.6,1.2-0.8,1.8-0.4c2.4,1.2,4.9,2.3,7.4,3.2
		c1.4,0.5,2.8,0.8,4.3,0.7c0.8,0,1.6-0.5,1.9-1.3c0.3-0.9,0.1-1.8-0.2-2.6c-0.1-0.3,0-0.7,0.3-1c0.5-0.4,0.9-0.9,1.2-1.5
		c0.2-0.4,0.3-0.8-0.2-1.2c-0.7-0.5-1.9-1.2-2.4-2c0.1-0.1,2-0.3,3.5-1c0.5-0.2,0.6-0.4,0.5-0.8c-0.1-0.4-0.1-0.8-0.1-1.2
		c-0.1-0.4,0-0.7,0.6-0.7c0.7,0,1.3-0.2,2-0.5C100.3,76.6,100.6,75.3,100,74.3z"/>
	<path class="st3" d="M75.9,60.2c-0.7,0.6-1.4,0.5-2.2,0.6c-1.7,0.3-3.5,0.3-5.2-0.1c-0.8-0.2-1.5-0.5-1.9-1.3
		c-0.2-0.4-0.4-0.5-0.7-0.5c-1.2-0.1-2.5-0.3-3.7-0.5c-2.4-0.4-4.8-0.9-7.2-1.4c-0.6-0.1-0.6,0.1-0.6,0.5c0.1,0.9,0.8,1.4,1.5,1.8
		c1.7,0.9,3.6,1.2,5.5,1.5c3,0.5,5.9,0.9,8.9,1.4c1.1,0.2,1.2,1,1,1.3c-0.3,0.4-1,0.6-1.5,0.7c-1.4,0.3-2.8,0.6-4.2,0.8
		c-2.3,0.5-4.7,0.9-7,1.4c-0.6,0.1-0.6,0.4-0.5,0.9c0.1,0.5,0.4,0.6,0.8,0.5c0.5-0.1,1.1-0.2,1.6-0.3c3.6-0.6,7.3-1.3,10.9-1.9
		c2.8-0.5,5.8-2,7.6-3.1c1-0.6,2.6-1.9,3-2.4c1.4-1.5,2.7-3.2,3.3-5.3c0.4-1.4-0.2-3.2-1.5-4.3c-1.8-1.5-3.9-2.1-6.1-2.7
		c-2.2-0.5-4.4-0.7-6.6-1.1c-3.5-0.5-7-1.3-10.5-2.1C55,43.4,49.6,42,44.1,40.5c-2.3-0.6-4.6-1.2-6.9-1.8c-0.5-0.1-0.7,0-0.7,0.5
		c0,0.8,0.3,1.4,0.8,1.9c0.9,0.8,1.9,1.4,3,1.9c2,0.8,4.1,1.5,6.2,2.1c3.2,0.9,6.5,1.6,9.8,2.2c0.6,0.1,1.1,0.1,1.2-0.6
		c0-0.1,0.1-0.2,0.3-0.4c0.3,0.8,0.5,1.6,1.1,2.2c1.4,1.5,3.3,1.7,5.1,1.9c1.4,0.1,2.7,0.1,4.1,0.2c0.9,0.1,1.8,0.3,2.7,1
		c-1.2,0.2-2.3,0.4-3.4,0.4c-1.7,0.1-3.4-0.1-5.1-0.5c-0.3-0.1-0.5-0.1-0.4,0.3c0.3,1.1,0.9,1.9,1.8,2.5c2.1,1.3,4.6,1.1,6.9,1.3
		c0.6,0.1,1.3,0.1,1.9,0.1c0.8,0.1,1.5,0.2,2.2,0.9c-0.5,0.1-0.9,0.2-1.3,0.2c-1.9,0.2-3.8,0.2-5.7,0c-0.3,0-0.4,0-0.5,0.4
		c-0.1,1.2,0.4,2.2,1.6,2.5c1,0.2,1.9,0.3,2.9,0.2c0.8-0.1,1.6-0.1,2.4-0.1C74.8,59.9,75.3,59.9,75.9,60.2z"/>
	<path class="st3" d="M60.9,52.9c0.3,0,0.4,0,0.5-0.3c0-0.2,0.1-0.4,0.2-0.6c0.4-0.5,0.1-0.6-0.3-0.7c-1.4-0.4-2.8-1-3.6-2.3
		c-0.2-0.2-0.4-0.2-0.6-0.2c-1-0.1-1.9-0.2-2.8-0.4c-1-0.2-2-0.4-3-0.6c-1-0.2-1.9-0.4-2.9-0.6c-1.6-0.4-3.2-0.7-4.9-1.1
		c-0.5-0.1-0.6,0.1-0.6,0.5c0,0.5,0.2,0.9,0.6,1.3c1.3,1.2,3,1.8,4.7,2.3c2.5,0.8,5.1,1.4,7.6,1.9C57.4,52.2,59.1,52.5,60.9,52.9z"
		/>
	<path class="st3" d="M67.2,56.7c-0.6,0-1.1-0.2-1.6-0.3c-1.5-0.5-2.9-1-3.9-2.3C61.6,54,61.4,54,61.2,54c-1.3,0-2.6-0.3-3.8-0.5
		c-3.4-0.7-6.8-1.5-10.2-2.4c-0.2,0-0.4-0.2-0.6,0.1c-0.1,0.2,0.1,1.3,0.2,1.5c0.8,0.7,1.8,1.3,2.8,1.7c2.5,0.9,5.1,1.5,7.7,1.9
		c2.9,0.5,5.8,1.1,8.7,1.6c0.2,0,0.4,0.1,0.6-0.2C66.8,57.4,67,57.1,67.2,56.7z"/>
	<path class="st3" d="M75.9,60.2c-0.7,0.6-1.4,0.5-2.2,0.6c-1.7,0.3-3.5,0.3-5.2-0.1c-0.8-0.2-1.5-0.5-1.9-1.3
		c-0.2-0.4-0.4-0.5-0.7-0.5c-1.2-0.1-2.5-0.3-3.7-0.5c-2.4-0.4-4.8-0.9-7.2-1.4c-0.6-0.1-0.6,0.1-0.6,0.5c0.1,0.9,0.8,1.4,1.5,1.8
		c1.7,0.9,3.6,1.2,5.5,1.5c3,0.5,5.9,0.9,8.9,1.4c1.1,0.2,1.2,1,1,1.3c-0.3,0.4-1,0.6-1.5,0.7c-1.4,0.3-2.8,0.6-4.2,0.8
		c-2.3,0.5-4.7,0.9-7,1.4c-0.6,0.1-0.6,0.4-0.5,0.9c0.1,0.5,0.4,0.6,0.8,0.5c0.5-0.1,1.1-0.2,1.6-0.3c3.6-0.6,7.3-1.3,10.9-1.9
		c2.8-0.5,5.8-2,7.6-3.1c1-0.6,2.6-1.9,3-2.4c1.4-1.5,2.7-3.2,3.3-5.3c0.4-1.4-0.2-3.2-1.5-4.3c-1.8-1.5-3.9-2.1-6.1-2.7
		c-2.2-0.5-4.4-0.7-6.6-1.1c-3.5-0.5-7-1.3-10.5-2.1C55,43.4,49.6,42,44.1,40.5c-2.3-0.6-4.6-1.2-6.9-1.8c-0.5-0.1-0.7,0-0.7,0.5
		c0,0.8,0.3,1.4,0.8,1.9c0.9,0.8,1.9,1.4,3,1.9c2,0.8,4.1,1.5,6.2,2.1c3.2,0.9,6.5,1.6,9.8,2.2c0.6,0.1,1.1,0.1,1.2-0.6
		c0-0.1,0.1-0.2,0.3-0.4c0.3,0.8,0.5,1.6,1.1,2.2c1.4,1.5,3.3,1.7,5.1,1.9c1.4,0.1,2.7,0.1,4.1,0.2c0.9,0.1,1.8,0.3,2.7,1
		c-1.2,0.2-2.3,0.4-3.4,0.4c-1.7,0.1-3.4-0.1-5.1-0.5c-0.3-0.1-0.5-0.1-0.4,0.3c0.3,1.1,0.9,1.9,1.8,2.5c2.1,1.3,4.6,1.1,6.9,1.3
		c0.6,0.1,1.3,0.1,1.9,0.1c0.8,0.1,1.5,0.2,2.2,0.9c-0.5,0.1-0.9,0.2-1.3,0.2c-1.9,0.2-3.8,0.2-5.7,0c-0.3,0-0.4,0-0.5,0.4
		c-0.1,1.2,0.4,2.2,1.6,2.5c1,0.2,1.9,0.3,2.9,0.2c0.8-0.1,1.6-0.1,2.4-0.1C74.8,59.9,75.3,59.9,75.9,60.2z"/>
	<path class="st3" d="M60.9,52.9c0.3,0,0.4,0,0.5-0.3c0-0.2,0.1-0.4,0.2-0.6c0.4-0.5,0.1-0.6-0.3-0.7c-1.4-0.4-2.8-1-3.6-2.3
		c-0.2-0.2-0.4-0.2-0.6-0.2c-1-0.1-1.9-0.2-2.8-0.4c-1-0.2-2-0.4-3-0.6c-1-0.2-1.9-0.4-2.9-0.6c-1.6-0.4-3.2-0.7-4.9-1.1
		c-0.5-0.1-0.6,0.1-0.6,0.5c0,0.5,0.2,0.9,0.6,1.3c1.3,1.2,3,1.8,4.7,2.3c2.5,0.8,5.1,1.4,7.6,1.9C57.4,52.2,59.1,52.5,60.9,52.9z"
		/>
	<path class="st3" d="M67.2,56.7c-0.6,0-1.1-0.2-1.6-0.3c-1.5-0.5-2.9-1-3.9-2.3C61.6,54,61.4,54,61.2,54c-1.3,0-2.6-0.3-3.8-0.5
		c-3.4-0.7-6.8-1.5-10.2-2.4c-0.2,0-0.4-0.2-0.6,0.1c-0.1,0.2,0.1,1.3,0.2,1.5c0.8,0.7,1.8,1.3,2.8,1.7c2.5,0.9,5.1,1.5,7.7,1.9
		c2.9,0.5,5.8,1.1,8.7,1.6c0.2,0,0.4,0.1,0.6-0.2C66.8,57.4,67,57.1,67.2,56.7z"/>
	<path class="st2" d="M88.9,71.4c0.1,0,0.1,0,0.2,0c2-0.8,4.1-1.4,6.4-1.4c0.9-0.3,0.7-2,0.4-2.2c-0.7-0.2-1.3-0.5-2-0.8
		c-0.3-0.2-0.6-0.1-1,0c-1.9,0.8-3.1,2.3-4.2,4C88.4,71.4,88.6,71.4,88.9,71.4z"/>
	<path class="st2" d="M73.6,77c-1.4-0.7-1.8-2-0.7-3c0.2-0.2,0.2-0.5,0-0.7c-0.1-0.1-0.2-0.3-0.3-0.4c-0.3-0.5-0.6-0.6-1.1-0.2
		c-0.1,0.1-0.2,0.1-0.4,0.1c0.3-0.7,0.5-1.3,0.7-1.9c0.1-0.3,0.4-0.3,0.5,0c0.4,0.8,1.2,1.2,1.7,1.8c0.3,0.4,0.5,0.7,0.5,1.2
		c0,0.5,0.1,0.9-0.5,1.1c-0.4,0.2-0.5,0.7-0.4,1.1C73.5,76.4,73.5,76.7,73.6,77z"/>
</g>
<line class="st4" x1="409.5" y1="46.3" x2="409.5" y2="94.2"/>
</svg>
