<svg viewBox="0 0 331 80" xmlns="http://www.w3.org/2000/svg">
<path d="M114.894 37.171V36.864C115.596 36.8542 116.286 36.6831 116.911 36.364C117.374 36.1407 117.755 35.7785 118.002 35.328C118.128 35.0377 118.212 34.7315 118.254 34.418C118.31 34.0533 118.348 33.6847 118.367 33.312C118.404 32.08 118.422 30.904 118.422 29.784V18.384C117.806 19.766 117.241 21.0357 116.728 22.193C116.215 23.3503 115.706 24.4797 115.203 25.581C114.698 26.6817 114.189 27.8063 113.676 28.955C113.163 30.1037 112.599 31.3683 111.982 32.749C111.888 32.935 111.757 33.2287 111.59 33.63C111.422 34.03 111.254 34.443 111.09 34.863C110.926 35.283 110.763 35.663 110.614 36.01C110.465 36.357 110.372 36.585 110.334 36.697H110.167C109.567 35.315 108.974 33.943 108.388 32.581C107.802 31.219 107.228 29.9077 106.667 28.647C106.106 27.3857 105.583 26.205 105.098 25.105C104.613 24.005 104.174 23.025 103.782 22.165C103.39 21.3063 103.068 20.5873 102.816 20.008C102.564 19.4287 102.391 19.037 102.298 18.833C102.298 20.065 102.293 21.152 102.284 22.094C102.275 23.038 102.265 23.97 102.256 24.894C102.247 25.818 102.242 26.794 102.242 27.82V31.404C102.242 32.282 102.27 33.0427 102.326 33.686C102.36 34.2494 102.503 34.8009 102.747 35.31C102.973 35.7517 103.33 36.1131 103.768 36.345C104.361 36.6381 105.001 36.8233 105.658 36.892V37.171H98.3501V36.892C98.9128 36.7955 99.4543 36.6012 99.9501 36.318C100.364 36.0615 100.703 35.6991 100.93 35.268C101.197 34.7451 101.377 34.1825 101.463 33.602C101.586 32.8 101.651 31.9903 101.658 31.179C101.695 30.379 101.723 29.4317 101.742 28.337C101.761 27.2423 101.77 26.0713 101.77 24.824V21.295C101.77 20.9217 101.761 20.4643 101.742 19.923C101.75 19.5205 101.656 19.1226 101.47 18.7655C101.284 18.4085 101.012 18.1037 100.678 17.879C100.402 17.6953 100.098 17.5582 99.7781 17.473C99.4601 17.389 99.1901 17.33 98.9661 17.292V17.011H104.93L111.623 32.244C112.443 30.47 113.245 28.706 114.03 26.952C114.815 25.198 115.519 23.6113 116.144 22.192C116.769 20.7727 117.283 19.592 117.684 18.65C118.085 17.708 118.314 17.1617 118.371 17.011H124.334V17.292C123.716 17.2677 123.105 17.4339 122.584 17.768C122.209 18.0326 121.921 18.403 121.758 18.832C121.619 19.3149 121.544 19.8137 121.534 20.316C121.497 20.988 121.469 21.6503 121.45 22.303C121.431 23.2003 121.421 24.0687 121.422 24.908V30.48C121.422 31.4687 121.431 32.514 121.45 33.616C121.45 33.9765 121.474 34.3365 121.52 34.694C121.547 34.9904 121.628 35.2793 121.758 35.547C121.82 35.6418 121.891 35.7311 121.968 35.814C122.122 35.983 122.296 36.133 122.486 36.261C122.746 36.4381 123.029 36.5794 123.326 36.681C123.705 36.8111 124.102 36.8823 124.502 36.892V37.171H114.894Z" fill="#464749"/>
<path d="M144.378 37.171H127.242V36.892C127.688 36.8224 128.125 36.7002 128.542 36.528C128.923 36.3742 129.263 36.1347 129.536 35.828C129.645 35.6819 129.721 35.5146 129.76 35.337C129.816 35.124 129.868 34.875 129.913 34.595C129.963 34.303 129.996 34.0086 130.013 33.713C130.032 33.406 130.041 33.102 130.041 32.803C130.041 32.542 130.041 32.188 130.055 31.74C130.069 31.292 130.074 30.801 130.083 30.27C130.092 29.739 130.097 29.192 130.097 28.631V21.547C130.097 21.211 130.092 20.867 130.083 20.511C130.074 20.155 130.055 19.821 130.027 19.503C130.004 19.2153 129.957 18.93 129.887 18.65C129.848 18.4479 129.756 18.2597 129.621 18.104C129.382 17.831 129.07 17.6319 128.721 17.53C128.315 17.4288 127.904 17.3494 127.489 17.292V17.011H142.951L144.851 21.631L144.571 21.772C143.437 20.2165 141.986 18.9185 140.315 17.963C139.747 17.7548 139.154 17.6233 138.551 17.572C137.511 17.4492 136.463 17.3931 135.415 17.404C135.023 17.404 134.615 17.417 134.197 17.446C133.892 17.4614 133.588 17.4948 133.286 17.546C133.25 17.8447 133.216 18.461 133.186 19.395C133.156 20.329 133.142 21.4113 133.144 22.642V24.426C133.144 24.912 133.149 25.309 133.157 25.617C133.166 25.925 133.171 26.1627 133.172 26.33V26.639H133.732C134.012 26.639 134.332 26.629 134.698 26.611C135.064 26.593 135.426 26.569 135.79 26.54C136.096 26.5213 136.4 26.4791 136.699 26.414C137.191 26.311 137.663 26.1315 138.099 25.882C138.454 25.6754 138.763 25.3996 139.009 25.071C139.252 24.7334 139.441 24.3599 139.569 23.964C139.721 23.5 139.847 23.028 139.947 22.55H140.282V31.37H139.951C139.786 30.7325 139.556 30.1136 139.265 29.523C139.03 28.9936 138.703 28.5102 138.299 28.095C137.979 27.8205 137.615 27.6027 137.221 27.451C136.75 27.2719 136.254 27.168 135.751 27.143C135.471 27.124 135.238 27.111 135.051 27.101C134.864 27.091 134.677 27.086 134.491 27.086H133.202C133.159 27.4674 133.141 27.8512 133.147 28.235V31.595C133.147 31.895 133.147 32.178 133.16 32.449C133.173 32.72 133.175 32.949 133.175 33.134C133.194 33.734 133.226 34.296 133.275 34.834C133.289 35.2503 133.399 35.6576 133.597 36.024C133.909 36.3594 134.34 36.5603 134.797 36.584C135.481 36.6998 136.174 36.7557 136.868 36.751C137.186 36.751 137.592 36.743 138.087 36.723C138.607 36.7033 139.126 36.657 139.641 36.584C140.209 36.5171 140.765 36.371 141.293 36.15C141.821 35.9202 142.311 35.6135 142.749 35.24C143.252 34.809 143.708 34.3252 144.107 33.797C144.603 33.1408 145.057 32.4538 145.465 31.74L145.773 31.824L144.378 37.171Z" fill="#464749"/>
<path d="M163.278 37.171C163.11 37.003 162.988 36.877 162.913 36.793C162.839 36.709 162.755 36.612 162.662 36.5C162.536 36.3429 162.42 36.179 162.312 36.009C162.172 35.795 161.953 35.473 161.654 35.043C161.299 34.521 160.986 34.0497 160.716 33.629C160.446 33.2083 160.171 32.793 159.89 32.383C159.61 31.973 159.307 31.5577 158.98 31.137C158.653 30.7163 158.266 30.245 157.818 29.723C157.442 29.2934 157.035 28.8923 156.6 28.523C156.207 28.1727 155.729 27.9313 155.214 27.823C154.948 27.7602 154.676 27.7227 154.402 27.711C154.234 27.711 154.019 27.702 153.758 27.682V30.846C153.758 31.7433 153.767 32.4997 153.786 33.115C153.804 33.715 153.823 34.2283 153.842 34.655C153.844 35.031 153.951 35.3991 154.15 35.718C154.377 36.0307 154.674 36.2853 155.018 36.461C155.573 36.7446 156.187 36.8933 156.81 36.895V37.174H147.851V36.895C148.308 36.8229 148.758 36.7101 149.195 36.558C149.588 36.4339 149.937 36.2008 150.203 35.886C150.313 35.7377 150.39 35.567 150.427 35.386C150.487 35.1377 150.529 34.8854 150.553 34.631C150.581 34.35 150.604 34.052 150.623 33.731C150.642 33.41 150.651 33.105 150.651 32.806C150.651 32.5447 150.655 32.1903 150.664 31.743C150.674 31.295 150.683 30.804 150.693 30.273C150.703 29.742 150.706 29.195 150.706 28.634V21.55C150.706 21.214 150.706 20.875 150.693 20.529C150.68 20.183 150.664 19.857 150.637 19.548C150.613 19.265 150.566 18.9845 150.497 18.709C150.457 18.5072 150.365 18.3192 150.231 18.163C149.978 17.8821 149.653 17.6748 149.292 17.563C148.874 17.4454 148.449 17.3565 148.019 17.297V17.016H149.166C149.801 17.016 150.52 17.0117 151.323 17.003C152.126 16.9943 152.928 16.9897 153.731 16.989H155.691C156.941 16.989 158.052 17.026 159.023 17.1C159.953 17.1632 160.859 17.4211 161.683 17.857C162.481 18.2662 163.163 18.8676 163.67 19.607C164.201 20.4362 164.465 21.4081 164.427 22.392C164.438 23.0331 164.309 23.6687 164.049 24.255C163.803 24.7968 163.461 25.29 163.04 25.711C162.606 26.141 162.111 26.5043 161.571 26.789C161.005 27.09 160.415 27.3429 159.807 27.545V27.629C160.153 27.8196 160.465 28.0655 160.731 28.357C161.044 28.6919 161.334 29.0473 161.599 29.421C162.084 30.1297 162.611 30.8947 163.181 31.716C163.751 32.5373 164.259 33.2657 164.706 33.901C165.251 34.7197 165.933 35.4385 166.722 36.026C167.412 36.4877 168.199 36.7847 169.022 36.894V37.173L163.278 37.171ZM160.506 19.726C160.002 18.9657 159.293 18.3638 158.461 17.99C158.01 17.7837 157.536 17.6329 157.048 17.541C156.535 17.4471 156.015 17.4006 155.494 17.402C155.102 17.402 154.785 17.412 154.541 17.429C154.297 17.446 154.112 17.467 153.982 17.486C153.963 17.598 153.944 17.696 153.926 17.78C153.904 17.8861 153.89 17.9938 153.884 18.102C153.874 18.233 153.865 18.415 153.856 18.648C153.847 18.881 153.832 19.212 153.814 19.642C153.795 20.2947 153.781 21.032 153.772 21.854C153.763 22.676 153.759 23.4693 153.758 24.234V27.314C154.473 27.3165 155.188 27.2831 155.9 27.214C156.552 27.1532 157.196 27.019 157.818 26.814C158.37 26.6498 158.891 26.3939 159.358 26.057C159.767 25.7609 160.122 25.3966 160.408 24.98C160.676 24.5815 160.879 24.1426 161.008 23.68C161.141 23.2061 161.208 22.7162 161.208 22.224C161.223 21.3406 160.979 20.4722 160.506 19.726V19.726Z" fill="#464749"/>
<path d="M188.758 23.507C188.518 22.6188 188.15 21.7703 187.666 20.988C187.198 20.2244 186.617 19.5354 185.944 18.944C185.28 18.3645 184.522 17.9007 183.704 17.572C182.863 17.2354 181.964 17.0655 181.058 17.072C179.854 17.0506 178.665 17.3502 177.614 17.94C176.612 18.5134 175.748 19.2983 175.08 20.24C174.383 21.2238 173.853 22.3162 173.512 23.473C173.148 24.676 172.964 25.9262 172.966 27.183C172.957 28.4657 173.15 29.7417 173.539 30.964C173.89 32.0778 174.446 33.1163 175.178 34.026C175.88 34.8878 176.759 35.5896 177.754 36.084C178.799 36.5962 179.95 36.8548 181.114 36.839C182.051 36.8463 182.979 36.6654 183.844 36.307C184.672 35.9671 185.438 35.4942 186.112 34.907C186.772 34.3313 187.339 33.6566 187.792 32.907C188.235 32.1865 188.552 31.3959 188.73 30.569H189.066L188.982 36.728H188.651C188.437 36.4242 188.203 36.1346 187.951 35.861C187.709 35.599 187.543 35.468 187.451 35.468C187.274 35.5469 187.106 35.6455 186.951 35.762C186.542 36.0147 186.111 36.2305 185.663 36.407C185.001 36.6711 184.317 36.8772 183.619 37.023C182.707 37.211 181.778 37.3001 180.847 37.289C179.25 37.3108 177.66 37.0598 176.147 36.547C174.826 36.0989 173.611 35.3841 172.577 34.447C171.598 33.5421 170.828 32.4334 170.323 31.199C169.649 29.5164 169.404 27.6928 169.609 25.892C169.661 25.4297 169.746 24.9716 169.861 24.521C169.992 24.0013 170.159 23.4914 170.361 22.995C170.59 22.4352 170.866 21.8963 171.187 21.384C171.6 20.7233 172.089 20.1129 172.643 19.565C173.251 18.9641 173.938 18.4505 174.687 18.039C175.526 17.5785 176.42 17.2257 177.347 16.989C178.436 16.7149 179.556 16.5828 180.679 16.596C181.668 16.5822 182.655 16.6859 183.619 16.905C184.337 17.0705 185.039 17.2953 185.719 17.577C186.169 17.7607 186.6 17.9857 187.008 18.249C187.162 18.3714 187.33 18.4745 187.508 18.556C187.588 18.5332 187.661 18.4898 187.719 18.43C187.821 18.346 187.933 18.2437 188.055 18.123C188.176 18.002 188.302 17.861 188.433 17.703C188.564 17.545 188.685 17.38 188.797 17.213H189.105V23.485L188.758 23.507Z" fill="#464749"/>
<path d="M212.6 17.826C212.172 18.1204 211.844 18.5393 211.662 19.026C211.587 19.2339 211.535 19.4496 211.507 19.669C211.461 19.9677 211.419 20.3133 211.381 20.706C211.343 21.0987 211.315 21.514 211.297 21.952C211.279 22.39 211.27 22.825 211.27 23.252C211.25 24.052 211.227 24.9483 211.2 25.941C211.173 26.9337 211.14 28.0533 211.1 29.3C211.08 29.656 211.058 30.1 211.03 30.645C210.995 31.226 210.906 31.8025 210.764 32.367C210.603 33.0012 210.363 33.6127 210.05 34.187C209.699 34.8221 209.228 35.3829 208.663 35.838C207.982 36.3765 207.203 36.7763 206.368 37.015C204.123 37.5889 201.77 37.5937 199.522 37.029C198.697 36.7982 197.922 36.4134 197.24 35.895C196.683 35.4648 196.212 34.9327 195.854 34.327C195.545 33.798 195.3 33.234 195.125 32.647C194.977 32.1544 194.883 31.647 194.846 31.134C194.818 30.677 194.804 30.334 194.804 30.113C194.804 29.5903 194.809 28.909 194.818 28.069C194.827 27.229 194.832 26.2957 194.831 25.269V20.537C194.831 20.201 194.818 19.888 194.789 19.599C194.766 19.3349 194.724 19.0729 194.663 18.815C194.624 18.6154 194.538 18.4281 194.411 18.269C194.157 17.9572 193.824 17.7198 193.446 17.582C193.026 17.4338 192.589 17.3355 192.146 17.289V17.008H200.49V17.289C200.228 17.327 199.948 17.382 199.65 17.456C199.361 17.527 199.087 17.6457 198.837 17.807C198.585 17.9764 198.374 18.2011 198.222 18.464C198.041 18.7901 197.945 19.1562 197.942 19.529C197.923 20.0143 197.909 20.4437 197.9 20.817C197.89 21.19 197.886 21.554 197.886 21.909V27.481C197.886 27.911 197.891 28.3263 197.9 28.727C197.909 29.1277 197.914 29.552 197.913 30C197.92 30.918 198.071 31.8292 198.362 32.7C198.613 33.4616 199.013 34.1659 199.538 34.772C200.046 35.3448 200.678 35.7945 201.386 36.087C202.177 36.4075 203.024 36.5646 203.877 36.549C204.79 36.5698 205.701 36.4473 206.577 36.186C207.254 35.9765 207.882 35.6338 208.425 35.178C208.908 34.7624 209.307 34.2587 209.601 33.694C209.892 33.1272 210.109 32.5248 210.244 31.902C210.386 31.2608 210.48 30.6101 210.525 29.955C210.571 29.293 210.594 28.6447 210.595 28.01V23.249C210.595 22.8757 210.59 22.4933 210.58 22.102C210.57 21.7107 210.556 21.3373 210.538 20.982C210.52 20.627 210.492 20.295 210.454 19.988C210.43 19.7342 210.373 19.4845 210.286 19.245C210.106 18.7301 209.768 18.2849 209.321 17.972C208.706 17.5891 208.011 17.3542 207.29 17.286V17.005H214.235V17.286C213.657 17.3437 213.099 17.5281 212.6 17.826Z" fill="#464749"/>
<path d="M231.793 37.171C231.625 37.003 231.503 36.877 231.429 36.793C231.355 36.709 231.271 36.612 231.177 36.5C231.052 36.3431 230.935 36.1792 230.828 36.009C230.688 35.795 230.469 35.473 230.169 35.043C229.815 34.521 229.501 34.049 229.232 33.629C228.963 33.209 228.685 32.794 228.406 32.383C228.127 31.972 227.822 31.558 227.496 31.137C227.17 30.716 226.782 30.247 226.333 29.723C225.958 29.2934 225.551 28.8923 225.116 28.523C224.723 28.173 224.245 27.9317 223.73 27.823C223.463 27.7602 223.191 27.7227 222.917 27.711C222.749 27.711 222.535 27.702 222.274 27.682V30.846C222.274 31.7433 222.283 32.4997 222.301 33.115C222.32 33.715 222.338 34.225 222.358 34.655C222.36 35.0309 222.466 35.399 222.665 35.718C222.893 36.0304 223.19 36.285 223.534 36.461C224.089 36.7447 224.703 36.8934 225.326 36.895V37.174H216.366V36.895C216.823 36.8229 217.272 36.7101 217.709 36.558C218.102 36.4344 218.452 36.2013 218.717 35.886C218.828 35.7378 218.905 35.5671 218.942 35.386C219.001 35.1375 219.044 34.8853 219.068 34.631C219.095 34.35 219.119 34.052 219.137 33.731C219.155 33.41 219.165 33.105 219.165 32.806C219.165 32.545 219.165 32.191 219.179 31.743C219.193 31.295 219.198 30.804 219.207 30.273C219.216 29.742 219.221 29.195 219.221 28.634V21.55C219.221 21.214 219.216 20.875 219.207 20.529C219.198 20.183 219.179 19.857 219.152 19.548C219.128 19.265 219.081 18.9844 219.011 18.709C218.972 18.5071 218.88 18.319 218.746 18.163C218.493 17.8824 218.168 17.6752 217.807 17.563C217.389 17.4455 216.964 17.3566 216.534 17.297V17.016H217.681C218.317 17.016 219.035 17.0117 219.837 17.003C220.639 16.9943 221.442 16.9897 222.246 16.989H224.205C225.455 16.989 226.566 17.026 227.538 17.1C228.468 17.1633 229.374 17.4212 230.198 17.857C230.996 18.2662 231.679 18.8676 232.185 19.607C232.716 20.4362 232.98 21.4081 232.942 22.392C232.953 23.0331 232.824 23.6687 232.564 24.255C232.318 24.7968 231.976 25.29 231.555 25.711C231.121 26.141 230.626 26.5043 230.085 26.789C229.52 27.0902 228.93 27.343 228.322 27.545V27.629C228.668 27.8196 228.98 28.0655 229.246 28.357C229.558 28.6924 229.848 29.0478 230.114 29.421C230.599 30.1297 231.126 30.8947 231.696 31.716C232.266 32.5373 232.775 33.2657 233.221 33.901C233.766 34.72 234.449 35.4388 235.238 36.026C235.928 36.4877 236.715 36.7847 237.538 36.894V37.173L231.793 37.171ZM229.022 19.726C228.518 18.966 227.809 18.3641 226.977 17.99C226.526 17.7837 226.052 17.6329 225.564 17.541C225.051 17.4471 224.531 17.4005 224.009 17.402C223.618 17.402 223.3 17.412 223.057 17.429C222.814 17.446 222.627 17.467 222.497 17.486C222.479 17.598 222.459 17.696 222.442 17.78C222.42 17.8861 222.406 17.9937 222.4 18.102C222.39 18.233 222.38 18.415 222.372 18.648C222.364 18.881 222.348 19.212 222.33 19.642C222.311 20.2947 222.297 21.032 222.288 21.854C222.28 22.676 222.275 23.4693 222.274 24.234V27.314C222.989 27.3165 223.704 27.2831 224.415 27.214C225.068 27.1533 225.711 27.0191 226.333 26.814C226.886 26.6502 227.406 26.3943 227.873 26.057C228.283 25.7612 228.638 25.3968 228.923 24.98C229.192 24.5817 229.394 24.1428 229.523 23.68C229.656 23.2061 229.723 22.7162 229.723 22.224C229.739 21.3407 229.495 20.4723 229.022 19.726V19.726Z" fill="#464749"/>
<path d="M255.005 17.684C254.626 17.8747 254.277 18.12 253.969 18.412C253.631 18.7349 253.326 19.0914 253.059 19.476C252.77 19.886 252.457 20.3527 252.122 20.876C251.897 21.2307 251.584 21.7117 251.183 22.319C250.782 22.9263 250.372 23.5563 249.952 24.209C249.531 24.8617 249.124 25.487 248.733 26.085C248.342 26.683 248.034 27.1497 247.809 27.485V33.113C247.809 33.6543 247.823 34.1817 247.851 34.695C247.842 35.0717 247.933 35.444 248.117 35.773C248.372 36.1654 248.76 36.4534 249.209 36.585C249.633 36.7094 250.063 36.8122 250.497 36.893V37.172H241.873V36.893C242.306 36.8482 242.733 36.7587 243.147 36.626C243.604 36.437 244.004 36.1336 244.309 35.745C244.423 35.6092 244.495 35.4443 244.519 35.269C244.57 35.0188 244.607 34.7661 244.631 34.512C244.659 34.233 244.677 33.934 244.687 33.617C244.697 33.3 244.702 32.992 244.702 32.693C244.719 32.1703 244.733 31.5497 244.744 30.831C244.756 30.1123 244.76 29.2393 244.757 28.212C244.719 28.157 244.608 27.979 244.421 27.68C244.234 27.381 244.005 27.013 243.735 26.58C243.465 26.147 243.165 25.651 242.835 25.11C242.505 24.569 242.186 24.042 241.869 23.528C241.552 23.014 241.253 22.534 240.969 22.086C240.685 21.638 240.455 21.274 240.269 20.994C239.914 20.4527 239.592 19.9577 239.303 19.509C239.045 19.1006 238.749 18.7167 238.421 18.362C238.158 18.0758 237.862 17.822 237.539 17.606C237.241 17.4166 236.898 17.3103 236.545 17.298V17.017H245.03V17.298C244.749 17.316 244.469 17.3437 244.189 17.381C243.922 17.4159 243.66 17.4772 243.405 17.564C243.187 17.6328 242.987 17.7473 242.817 17.9C242.741 17.974 242.682 18.0635 242.643 18.1623C242.605 18.2611 242.588 18.3671 242.593 18.473C242.645 18.8675 242.784 19.2456 242.999 19.58C243.27 20.0747 243.555 20.5747 243.853 21.08C244.058 21.4133 244.301 21.8193 244.581 22.298C244.862 22.7767 245.17 23.2803 245.505 23.809C245.838 24.3423 246.18 24.8887 246.528 25.448C246.877 26.0073 247.198 26.5407 247.493 27.048C247.736 26.6933 248.036 26.2403 248.393 25.689C248.75 25.1377 249.109 24.578 249.471 24.01C249.835 23.44 250.181 22.894 250.507 22.372C250.834 21.85 251.081 21.439 251.249 21.139C251.342 20.99 251.449 20.817 251.557 20.622C251.665 20.427 251.777 20.222 251.879 20.006C251.982 19.7923 252.071 19.5722 252.145 19.347C252.215 19.149 252.253 18.941 252.257 18.731C252.272 18.4781 252.193 18.2286 252.034 18.031C251.876 17.8572 251.679 17.7226 251.459 17.638C251.211 17.5413 250.952 17.4709 250.689 17.428C250.409 17.3827 250.139 17.341 249.877 17.303V17.022H256.351V17.303C255.885 17.3577 255.431 17.4863 255.005 17.684V17.684Z" fill="#464749"/>
<path d="M117.666 49.507C117.426 48.619 117.058 47.7706 116.575 46.988C116.106 46.2245 115.524 45.5355 114.851 44.944C114.186 44.3645 113.429 43.9007 112.611 43.572C111.77 43.2353 110.871 43.0654 109.965 43.072C108.76 43.0506 107.572 43.3502 106.521 43.94C105.519 44.5134 104.654 45.2983 103.987 46.24C103.29 47.2241 102.76 48.3164 102.419 49.473C102.055 50.676 101.871 51.9262 101.873 53.183C101.863 54.4658 102.057 55.7419 102.447 56.964C102.797 58.078 103.353 59.1166 104.086 60.026C104.788 60.8881 105.667 61.5899 106.663 62.084C107.708 62.5963 108.859 62.8549 110.022 62.839C110.958 62.8464 111.887 62.6655 112.752 62.307C113.579 61.9672 114.345 61.4943 115.02 60.907C115.68 60.3313 116.248 59.6566 116.701 58.907C117.144 58.1865 117.461 57.3959 117.638 56.569H117.974L117.89 62.728H117.551C117.337 62.4243 117.103 62.1347 116.851 61.861C116.609 61.599 116.442 61.468 116.351 61.468C116.174 61.5469 116.006 61.6456 115.851 61.762C115.442 62.0149 115.011 62.2308 114.563 62.407C113.901 62.6711 113.217 62.8772 112.519 63.023C111.608 63.211 110.679 63.3002 109.748 63.289C108.149 63.3113 106.558 63.0604 105.043 62.547C103.722 62.0985 102.507 61.3838 101.473 60.447C100.493 59.5421 99.724 58.4334 99.219 57.199C98.6852 55.8785 98.4187 54.4652 98.435 53.041C98.4382 52.6571 98.4616 52.2735 98.505 51.892C98.5572 51.4297 98.6414 50.9716 98.757 50.521C98.8881 50.0014 99.0552 49.4915 99.257 48.995C99.486 48.4355 99.7623 47.8965 100.083 47.384C100.496 46.7233 100.985 46.1129 101.539 45.565C102.147 44.9643 102.834 44.4508 103.583 44.039C104.422 43.5785 105.316 43.2258 106.244 42.989C107.333 42.7148 108.453 42.5827 109.576 42.596C110.564 42.5823 111.551 42.686 112.515 42.905C113.232 43.0708 113.935 43.2955 114.615 43.577C115.064 43.7609 115.495 43.9859 115.903 44.249C116.057 44.3712 116.225 44.4743 116.403 44.556C116.483 44.5328 116.556 44.4894 116.614 44.43C116.715 44.346 116.827 44.2437 116.95 44.123C117.071 44.002 117.197 43.861 117.327 43.703C117.457 43.545 117.579 43.38 117.691 43.213H117.999V49.485L117.666 49.507Z" fill="#464749"/>
<path d="M141.051 57.095C140.512 58.3326 139.737 59.4534 138.769 60.395C137.804 61.3303 136.662 62.063 135.409 62.55C132.801 63.5542 129.915 63.5595 127.303 62.565C126.065 62.0907 124.933 61.3771 123.971 60.465C123.008 59.5454 122.242 58.4406 121.717 57.217C121.165 55.87 120.884 54.4271 120.891 52.9713C120.898 51.5155 121.193 50.0754 121.759 48.734C122.304 47.5007 123.101 46.3945 124.097 45.486C125.1 44.5851 126.27 43.8906 127.541 43.442C128.875 42.9624 130.282 42.7208 131.699 42.728C133.166 42.7034 134.621 42.9897 135.969 43.568C137.18 44.0931 138.271 44.8601 139.175 45.822C140.054 46.7669 140.739 47.8748 141.191 49.083C141.658 50.3178 141.896 51.6277 141.891 52.948C141.906 54.374 141.62 55.7871 141.051 57.095ZM137.985 49.536C137.714 48.4231 137.27 47.3597 136.668 46.385C136.108 45.4697 135.358 44.6853 134.468 44.085C133.545 43.4841 132.461 43.177 131.36 43.204C130.245 43.1756 129.148 43.4825 128.209 44.085C127.321 44.6748 126.576 45.4546 126.026 46.368C125.437 47.3519 125.012 48.4248 124.766 49.545C124.496 50.7259 124.36 51.9335 124.36 53.145C124.356 54.3815 124.507 55.6138 124.808 56.813C125.075 57.9157 125.524 58.9659 126.138 59.92C126.704 60.7959 127.46 61.5331 128.35 62.077C129.285 62.6318 130.357 62.9131 131.444 62.889C132.535 62.9131 133.606 62.5987 134.51 61.989C135.388 61.3803 136.127 60.5932 136.68 59.679C137.275 58.693 137.714 57.6206 137.98 56.5C138.266 55.3461 138.412 54.1618 138.413 52.973C138.41 51.8139 138.265 50.6596 137.98 49.536H137.985Z" fill="#464749"/>
<path d="M159.974 63.171C159.806 63.003 159.684 62.877 159.61 62.793C159.536 62.709 159.451 62.612 159.358 62.5C159.233 62.3427 159.115 62.1788 159.007 62.009C158.868 61.795 158.648 61.473 158.35 61.043C157.995 60.521 157.683 60.0497 157.412 59.629C157.142 59.2083 156.866 58.793 156.585 58.383C156.306 57.973 156.003 57.5577 155.675 57.137C155.348 56.7163 154.961 56.245 154.514 55.723C154.138 55.2932 153.731 54.8921 153.295 54.523C152.903 54.1725 152.425 53.9311 151.91 53.823C151.644 53.7602 151.372 53.7227 151.098 53.711C150.93 53.711 150.715 53.702 150.454 53.682V56.846C150.454 57.7433 150.464 58.4997 150.482 59.115C150.5 59.715 150.519 60.2283 150.538 60.655C150.54 61.031 150.647 61.3991 150.846 61.718C151.073 62.0304 151.37 62.285 151.713 62.461C152.268 62.7443 152.882 62.893 153.505 62.895V63.174H144.545V62.895C145.003 62.823 145.453 62.7102 145.89 62.558C146.283 62.4339 146.633 62.2008 146.898 61.886C147.009 61.7377 147.085 61.567 147.122 61.386C147.182 61.1376 147.223 60.8853 147.247 60.631C147.276 60.35 147.299 60.052 147.318 59.731C147.337 59.41 147.346 59.105 147.346 58.806C147.346 58.545 147.346 58.191 147.36 57.743C147.374 57.295 147.378 56.804 147.388 56.273C147.398 55.742 147.402 55.195 147.402 54.634V47.55C147.402 47.214 147.397 46.875 147.388 46.529C147.379 46.183 147.36 45.857 147.331 45.548C147.307 45.2651 147.261 44.9845 147.192 44.709C147.152 44.5069 147.06 44.3187 146.925 44.163C146.672 43.8824 146.349 43.6751 145.988 43.563C145.57 43.4455 145.144 43.3566 144.713 43.297V43.016H145.862C146.496 43.016 147.215 43.0117 148.018 43.003C148.821 42.9943 149.624 42.9897 150.425 42.989H152.385C153.636 42.989 154.747 43.026 155.717 43.1C156.647 43.1631 157.553 43.421 158.377 43.857C159.175 44.2659 159.859 44.8674 160.366 45.607C160.896 46.4365 161.16 47.4083 161.122 48.392C161.133 49.0331 161.004 49.6687 160.744 50.255C160.498 50.7968 160.157 51.2899 159.736 51.711C159.302 52.1408 158.807 52.5041 158.266 52.789C157.7 53.09 157.11 53.3429 156.501 53.545V53.629C156.847 53.8194 157.159 54.0653 157.425 54.357C157.739 54.6914 158.029 55.0469 158.293 55.421C158.779 56.1297 159.306 56.8947 159.875 57.716C160.444 58.5373 160.953 59.2657 161.402 59.901C161.947 60.7196 162.629 61.4384 163.417 62.026C164.107 62.4874 164.894 62.7843 165.717 62.894V63.173L159.974 63.171ZM157.202 45.726C156.698 44.9662 155.99 44.3644 155.158 43.99C154.707 43.784 154.232 43.6332 153.744 43.541C153.232 43.4471 152.711 43.4006 152.19 43.402C151.797 43.402 151.48 43.412 151.238 43.429C150.996 43.446 150.808 43.467 150.677 43.486C150.659 43.598 150.64 43.696 150.622 43.78C150.6 43.8861 150.586 43.9938 150.58 44.102C150.57 44.233 150.561 44.415 150.551 44.648C150.541 44.881 150.528 45.212 150.509 45.642C150.491 46.2947 150.477 47.032 150.467 47.854C150.457 48.676 150.453 49.4693 150.454 50.234V53.314C151.169 53.3165 151.884 53.2831 152.596 53.214C153.248 53.1532 153.892 53.019 154.514 52.814C155.066 52.65 155.586 52.3941 156.053 52.057C156.463 51.7609 156.818 51.3966 157.104 50.98C157.373 50.5818 157.575 50.1428 157.704 49.68C157.837 49.2061 157.905 48.7162 157.904 48.224C157.919 47.3406 157.675 46.4722 157.202 45.726V45.726Z" fill="#464749"/>
<path d="M182.906 50.711C182.695 51.2506 182.397 51.7521 182.024 52.196C181.658 52.6254 181.228 52.9964 180.749 53.296C180.283 53.5956 179.786 53.8444 179.266 54.038C178.721 54.2312 178.158 54.3719 177.585 54.458C176.985 54.552 176.384 54.622 175.78 54.668C175.177 54.714 174.584 54.7377 174.001 54.739H172.49V57.37C172.49 57.688 172.495 57.982 172.503 58.252C172.511 58.522 172.518 58.818 172.518 59.134C172.538 59.734 172.556 60.2474 172.574 60.674C172.577 61.0506 172.683 61.4192 172.882 61.739C173.108 62.0484 173.405 62.2979 173.749 62.466C174.307 62.7407 174.92 62.8847 175.541 62.887V63.166H166.581V62.887C167.039 62.8151 167.489 62.7023 167.926 62.55C168.319 62.4259 168.669 62.1929 168.934 61.878C169.045 61.7297 169.121 61.559 169.158 61.378C169.217 61.1295 169.26 60.8773 169.284 60.623C169.312 60.342 169.335 60.044 169.354 59.723C169.373 59.402 169.382 59.097 169.382 58.798C169.382 58.537 169.382 58.183 169.396 57.735C169.41 57.287 169.414 56.796 169.424 56.265C169.434 55.734 169.438 55.187 169.438 54.626V47.542C169.438 47.206 169.433 46.867 169.424 46.521C169.415 46.175 169.396 45.849 169.368 45.54C169.344 45.2571 169.297 44.9766 169.228 44.701C169.189 44.4988 169.096 44.3105 168.961 44.155C168.671 43.8511 168.295 43.6419 167.884 43.555C167.446 43.453 166.974 43.3643 166.47 43.289V43.008H167.142C167.498 43.008 167.913 43.0037 168.388 42.995C168.864 42.9863 169.382 42.9817 169.942 42.981C170.501 42.981 171.056 42.976 171.608 42.966C172.159 42.957 172.676 42.953 173.162 42.953H174.421C175.516 42.945 176.611 43.0054 177.698 43.134C178.642 43.2535 179.555 43.5532 180.386 44.017C181.214 44.4712 181.917 45.1241 182.43 45.917C182.985 46.7853 183.267 47.7992 183.242 48.829C183.252 49.4721 183.138 50.111 182.906 50.711V50.711ZM179.392 45.811C178.997 45.1852 178.47 44.6531 177.849 44.2517C177.227 43.8503 176.525 43.5894 175.792 43.487C175.273 43.4112 174.75 43.3735 174.225 43.374C173.921 43.3695 173.617 43.3836 173.315 43.416C173.1 43.445 172.927 43.468 172.796 43.487C172.781 43.5866 172.758 43.6849 172.727 43.781C172.694 43.886 172.671 43.9938 172.657 44.103C172.638 44.234 172.62 44.416 172.601 44.649C172.582 44.882 172.563 45.213 172.544 45.643C172.526 46.2957 172.512 47.089 172.502 48.023C172.492 48.957 172.488 49.8717 172.489 50.767V54.351C173.254 54.351 173.973 54.3277 174.645 54.281C175.285 54.2406 175.916 54.1134 176.521 53.903C177.637 53.5514 178.603 52.8368 179.265 51.873C179.898 50.935 180.23 49.8265 180.217 48.695C180.235 47.6734 179.947 46.6698 179.392 45.812V45.811Z" fill="#464749"/>
<path d="M205.473 57.095C204.934 58.3328 204.159 59.4537 203.191 60.395C202.226 61.3307 201.084 62.0635 199.831 62.55C197.223 63.5542 194.337 63.5595 191.725 62.565C190.487 62.0909 189.355 61.3773 188.393 60.465C187.431 59.5452 186.664 58.4404 186.139 57.217C185.578 55.9039 185.296 54.488 185.313 53.06C185.289 51.5724 185.585 50.0971 186.181 48.734C186.726 47.5007 187.523 46.3945 188.519 45.486C189.522 44.5851 190.692 43.8906 191.963 43.442C193.297 42.9624 194.705 42.7207 196.122 42.728C197.588 42.7036 199.043 42.9899 200.391 43.568C201.602 44.0931 202.693 44.8601 203.597 45.822C204.476 46.7669 205.161 47.8748 205.613 49.083C206.08 50.3178 206.318 51.6277 206.313 52.948C206.328 54.3741 206.042 55.7872 205.473 57.095V57.095ZM202.407 49.536C202.137 48.4231 201.692 47.3597 201.091 46.385C200.531 45.4699 199.78 44.6856 198.891 44.085C197.968 43.4842 196.885 43.177 195.784 43.204C194.669 43.1756 193.572 43.4824 192.633 44.085C191.745 44.6742 190.999 45.4542 190.45 46.368C189.859 47.3512 189.433 48.4244 189.189 49.545C188.921 50.7261 188.787 51.9338 188.789 53.145C188.785 54.3815 188.935 55.6137 189.236 56.813C189.503 57.9155 189.953 58.9657 190.566 59.92C191.132 60.7959 191.888 61.5331 192.778 62.077C193.715 62.6327 194.789 62.9141 195.878 62.889C196.968 62.9129 198.039 62.5985 198.943 61.989C199.821 61.3809 200.561 60.5936 201.113 59.679C201.709 58.6935 202.148 57.6209 202.413 56.5C202.7 55.3463 202.846 54.1619 202.847 52.973C202.842 51.8136 202.694 50.6593 202.407 49.536Z" fill="#464749"/>
<path d="M224.402 63.171C224.234 63.003 224.112 62.877 224.038 62.793C223.964 62.709 223.878 62.612 223.786 62.5C223.66 62.3427 223.543 62.1788 223.435 62.009C223.295 61.795 223.076 61.473 222.778 61.043C222.422 60.521 222.109 60.0497 221.839 59.629C221.569 59.2083 221.294 58.793 221.013 58.383C220.734 57.973 220.431 57.5577 220.103 57.137C219.775 56.7163 219.388 56.245 218.942 55.723C218.566 55.2932 218.159 54.8921 217.723 54.523C217.33 54.1723 216.852 53.9309 216.337 53.823C216.071 53.7602 215.799 53.7227 215.526 53.711C215.358 53.711 215.143 53.702 214.881 53.682V56.846C214.881 57.7433 214.891 58.4997 214.91 59.115C214.928 59.715 214.946 60.2283 214.965 60.655C214.968 61.0311 215.075 61.3992 215.274 61.718C215.5 62.0309 215.797 62.2856 216.141 62.461C216.696 62.7444 217.31 62.8931 217.933 62.895V63.174H208.973V62.895C209.431 62.823 209.881 62.7102 210.318 62.558C210.711 62.4336 211.06 62.2006 211.326 61.886C211.436 61.7376 211.512 61.567 211.549 61.386C211.609 61.1377 211.651 60.8854 211.675 60.631C211.704 60.35 211.727 60.052 211.746 59.731C211.765 59.41 211.774 59.105 211.774 58.806C211.774 58.545 211.774 58.191 211.788 57.743C211.802 57.295 211.806 56.804 211.816 56.273C211.826 55.742 211.83 55.195 211.83 54.634V47.55C211.83 47.214 211.825 46.875 211.816 46.529C211.807 46.183 211.788 45.857 211.759 45.548C211.735 45.2651 211.689 44.9845 211.62 44.709C211.579 44.5071 211.488 44.3191 211.353 44.163C211.1 43.8822 210.776 43.6749 210.415 43.563C209.997 43.4454 209.571 43.3565 209.141 43.297V43.016H210.289C210.923 43.016 211.642 43.0117 212.446 43.003C213.25 42.9943 214.052 42.9897 214.853 42.989H216.813C218.064 42.989 219.175 43.026 220.145 43.1C221.075 43.1632 221.981 43.4211 222.805 43.857C223.603 44.2663 224.286 44.8677 224.793 45.607C225.323 46.4365 225.587 47.4083 225.549 48.392C225.56 49.0331 225.431 49.6687 225.171 50.255C224.925 50.7968 224.584 51.2899 224.163 51.711C223.729 52.1408 223.234 52.504 222.694 52.789C222.128 53.0898 221.538 53.3427 220.929 53.545V53.629C221.275 53.8194 221.587 54.0653 221.853 54.357C222.167 54.6914 222.457 55.0469 222.721 55.421C223.206 56.1297 223.734 56.8947 224.303 57.716C224.872 58.5373 225.381 59.2657 225.83 59.901C226.375 60.7196 227.057 61.4384 227.845 62.026C228.535 62.4876 229.322 62.7845 230.145 62.894V63.173L224.402 63.171ZM221.629 45.726C221.126 44.9658 220.417 44.3638 219.585 43.99C219.134 43.7838 218.659 43.6331 218.171 43.541C217.659 43.4471 217.139 43.4005 216.618 43.402C216.225 43.402 215.908 43.412 215.665 43.429C215.422 43.446 215.236 43.467 215.105 43.486C215.086 43.598 215.068 43.696 215.049 43.78C215.028 43.8863 215.014 43.9939 215.007 44.102C214.997 44.233 214.989 44.415 214.979 44.648C214.969 44.881 214.955 45.212 214.937 45.642C214.918 46.2947 214.904 47.032 214.895 47.854C214.886 48.676 214.882 49.4693 214.881 50.234V53.314C215.597 53.3165 216.312 53.2831 217.024 53.214C217.676 53.1532 218.32 53.019 218.942 52.814C219.494 52.6498 220.014 52.3939 220.481 52.057C220.891 51.7609 221.246 51.3966 221.532 50.98C221.8 50.5816 222.003 50.1426 222.132 49.68C222.265 49.2061 222.333 48.7162 222.332 48.224C222.347 47.3405 222.103 46.4719 221.629 45.726Z" fill="#464749"/>
<path d="M242.293 63.171V62.892C242.43 62.882 242.565 62.8629 242.699 62.835C242.929 62.7922 243.155 62.7252 243.371 62.635C243.599 62.545 243.808 62.4123 243.987 62.244C244.074 62.1616 244.143 62.0616 244.189 61.9506C244.235 61.8396 244.257 61.7201 244.253 61.6C244.234 61.3197 244.182 61.0425 244.099 60.774C243.999 60.391 243.851 59.924 243.665 59.374C243.479 58.824 243.265 58.212 243.021 57.54C242.777 56.868 242.521 56.168 242.237 55.44H234.789C234.509 56.1493 234.238 56.8257 233.977 57.469C233.716 58.1123 233.454 58.761 233.193 59.415C232.887 60.0892 232.689 60.8073 232.605 61.543C232.598 61.7647 232.678 61.9804 232.829 62.143C232.992 62.311 233.187 62.4443 233.403 62.535C233.645 62.6399 233.899 62.7151 234.159 62.759C234.426 62.805 234.682 62.847 234.929 62.885V63.164H228.965V62.857C229.404 62.816 229.828 62.682 230.211 62.464C230.429 62.3512 230.631 62.21 230.811 62.044C231.054 61.7571 231.27 61.4477 231.455 61.12C231.862 60.4237 232.226 59.7038 232.547 58.964C232.939 58.0867 233.378 57.0883 233.863 55.969L235.363 52.511C235.876 51.3263 236.385 50.1317 236.889 48.927C237.393 47.7223 237.869 46.5977 238.317 45.553L238.037 44.937C238.36 44.7953 238.665 44.6168 238.947 44.405C239.204 44.2119 239.443 43.9964 239.661 43.761C239.849 43.559 240.022 43.3438 240.179 43.117C240.319 42.911 240.426 42.7443 240.501 42.617H240.725C241.303 44.1663 241.854 45.6363 242.377 47.027C242.9 48.4177 243.4 49.7567 243.877 51.044C244.353 52.332 244.815 53.5783 245.263 54.783C245.711 55.9877 246.159 57.1777 246.607 58.353C246.812 58.931 247.007 59.413 247.181 59.794L247.781 61.094C247.857 61.2297 247.941 61.3606 248.033 61.486C248.184 61.6957 248.358 61.8882 248.551 62.06C248.791 62.2713 249.06 62.4459 249.351 62.578C249.704 62.7355 250.085 62.8208 250.471 62.829V63.165L242.293 63.171ZM238.625 46.204C238.513 46.4467 238.35 46.8293 238.135 47.352C237.92 47.8747 237.654 48.508 237.335 49.252C237.017 49.9993 236.667 50.8443 236.285 51.787L235.039 54.853H242.011C241.694 54.013 241.372 53.1727 241.045 52.332C240.718 51.4913 240.4 50.6843 240.093 49.911C239.785 49.1363 239.505 48.427 239.253 47.783C239.001 47.139 238.792 46.6127 238.625 46.204Z" fill="#464749"/>
<path d="M271.021 48.276C270.872 47.94 270.695 47.589 270.489 47.226C270.283 46.863 270.074 46.521 269.859 46.204C269.644 45.887 269.434 45.592 269.229 45.322C269.071 45.1055 268.893 44.9046 268.697 44.722C268.342 44.3706 267.904 44.1156 267.423 43.981C266.85 43.8449 266.263 43.7745 265.673 43.771C265.319 43.771 265.01 43.766 264.749 43.756C264.488 43.746 264.226 43.743 263.965 43.743H262.118C262.118 44.2097 262.113 44.843 262.103 45.643C262.093 46.443 262.088 47.283 262.089 48.163V59.111C262.089 59.6523 262.103 60.1703 262.131 60.665C262.124 61.0322 262.216 61.3946 262.397 61.714C262.68 62.1276 263.103 62.4258 263.587 62.554C264.043 62.6905 264.506 62.803 264.973 62.891V63.17H255.873V62.891C256.347 62.837 256.815 62.7433 257.273 62.611C257.79 62.4332 258.246 62.1129 258.589 61.687C258.7 61.5553 258.773 61.3954 258.799 61.225C258.849 60.9844 258.887 60.7415 258.912 60.497C258.939 60.2263 258.958 59.9323 258.967 59.615C258.976 59.297 258.981 58.99 258.981 58.691C258.981 58.429 258.986 58.0837 258.996 57.655C259.006 57.2263 259.015 56.7503 259.023 56.227C259.033 55.705 259.038 55.1637 259.038 54.603V43.74H257.189C256.947 43.74 256.689 43.745 256.419 43.753C256.149 43.761 255.835 43.768 255.481 43.768C254.889 43.7693 254.3 43.8541 253.731 44.02C253.253 44.1818 252.817 44.4495 252.457 44.803C252.265 44.9814 252.092 45.1788 251.939 45.392C251.744 45.6533 251.538 45.938 251.323 46.246C251.1 46.5662 250.895 46.898 250.707 47.24C250.522 47.5703 250.367 47.9171 250.246 48.276L249.994 48.192L250.833 42.872C251.262 42.965 251.66 43.04 252.023 43.095C252.548 43.1639 253.076 43.2016 253.605 43.208C254.314 43.226 254.948 43.24 255.505 43.25C256.062 43.26 256.604 43.2643 257.129 43.263H262.451C263.01 43.263 263.551 43.2587 264.075 43.25L265.699 43.221C266.258 43.2117 266.891 43.2073 267.599 43.208C268.111 43.1999 268.622 43.148 269.125 43.053C269.525 42.969 269.942 42.863 270.371 42.732L271.271 48.192L271.021 48.276Z" fill="#464749"/>
<path d="M272.897 63.171V62.892C273.343 62.8225 273.78 62.7003 274.197 62.528C274.589 62.3669 274.939 62.1174 275.219 61.799C275.325 61.6592 275.397 61.4965 275.429 61.324C275.481 61.0835 275.518 60.84 275.541 60.595C275.569 60.316 275.587 60.022 275.597 59.713C275.607 59.404 275.611 59.102 275.611 58.803C275.611 58.5417 275.616 58.1873 275.625 57.74C275.634 57.292 275.643 56.801 275.653 56.27C275.663 55.739 275.666 55.192 275.666 54.631V46.54C275.666 46.204 275.653 45.891 275.625 45.602C275.601 45.3381 275.559 45.0761 275.499 44.818C275.459 44.6187 275.373 44.4316 275.247 44.272C274.993 43.9602 274.659 43.7228 274.281 43.585C273.861 43.4368 273.424 43.3385 272.981 43.292V43.011H281.351V43.292C280.923 43.3563 280.501 43.4594 280.091 43.6C279.64 43.7514 279.268 44.075 279.055 44.5C278.874 44.8739 278.783 45.2847 278.788 45.7C278.78 46.185 278.765 46.642 278.746 47.072C278.746 47.539 278.746 48 278.733 48.458C278.72 48.916 278.719 49.377 278.719 49.843V59.223C278.719 59.765 278.728 60.288 278.746 60.792C278.73 61.1631 278.818 61.5313 278.998 61.856C279.268 62.2044 279.64 62.4591 280.063 62.584C280.488 62.7374 280.93 62.8407 281.379 62.892V63.171H272.897Z" fill="#464749"/>
<path d="M304.451 57.095C303.912 58.3326 303.137 59.4534 302.169 60.395C301.204 61.3303 300.062 62.063 298.809 62.55C296.201 63.5542 293.315 63.5595 290.703 62.565C289.465 62.0909 288.333 61.3773 287.371 60.465C286.408 59.5455 285.642 58.4406 285.117 57.217C284.555 55.904 284.274 54.4881 284.29 53.06C284.266 51.5724 284.563 50.097 285.159 48.734C285.705 47.5012 286.501 46.3951 287.496 45.486C288.499 44.5853 289.67 43.8908 290.941 43.442C292.275 42.9624 293.682 42.7208 295.099 42.728C296.566 42.7036 298.021 42.9898 299.369 43.568C300.58 44.0928 301.671 44.8599 302.575 45.822C303.454 46.7667 304.139 47.8746 304.591 49.083C305.058 50.318 305.295 51.6278 305.291 52.948C305.306 54.374 305.02 55.7871 304.451 57.095V57.095ZM301.385 49.536C301.114 48.4233 300.67 47.36 300.069 46.385C299.509 45.4699 298.758 44.6856 297.869 44.085C296.946 43.484 295.862 43.1769 294.761 43.204C293.647 43.1755 292.549 43.4824 291.611 44.085C290.723 44.6745 289.977 45.4544 289.427 46.368C288.838 47.3517 288.412 48.4247 288.167 49.545C287.897 50.7259 287.761 51.9335 287.761 53.145C287.757 54.3816 287.908 55.6138 288.209 56.813C288.476 57.9155 288.925 58.9656 289.538 59.92C290.105 60.7957 290.861 61.5329 291.751 62.077C292.686 62.6318 293.758 62.9131 294.845 62.889C295.935 62.9132 297.006 62.5988 297.91 61.989C298.789 61.3812 299.528 60.5938 300.08 59.679C300.676 58.6935 301.115 57.6209 301.38 56.5C301.667 55.3462 301.812 54.1619 301.814 52.973C301.813 51.8141 301.669 50.6599 301.386 49.536H301.385Z" fill="#464749"/>
<path d="M328.827 43.826C328.385 44.1128 328.046 44.5332 327.86 45.026C327.689 45.5261 327.604 46.0515 327.608 46.58C327.572 47.3353 327.535 48.1423 327.497 49.001C327.458 49.801 327.425 50.7483 327.397 51.843C327.37 52.9377 327.356 54.1093 327.355 55.358V57.15C327.355 57.8027 327.36 58.4693 327.37 59.15C327.38 59.8307 327.385 60.5073 327.383 61.18V62.999C327.385 63.0327 327.379 63.0663 327.367 63.0978C327.355 63.1293 327.337 63.1579 327.313 63.182C327.284 63.2068 327.251 63.2257 327.215 63.2375C327.179 63.2494 327.141 63.254 327.103 63.251C326.907 63.2256 326.728 63.1257 326.603 62.972C325.016 61.142 323.569 59.462 322.263 57.932C320.957 56.402 319.711 54.941 318.525 53.549C317.339 52.1597 316.178 50.802 315.04 49.476C313.903 48.15 312.699 46.778 311.427 45.36V57.175C311.427 58.127 311.451 58.9857 311.498 59.751C311.505 60.3374 311.623 60.9171 311.847 61.459C312.047 61.8835 312.389 62.225 312.813 62.425C313.386 62.6758 313.996 62.8322 314.619 62.888V63.167H307.731V62.888C308.192 62.828 308.644 62.7104 309.075 62.538C309.516 62.3668 309.889 62.0573 310.139 61.656C310.441 61.1249 310.613 60.5295 310.639 59.919C310.713 59.155 310.769 58.2403 310.807 57.175C310.844 56.375 310.872 55.4277 310.891 54.333C310.911 53.2383 310.92 52.0673 310.919 50.82V47.404C310.919 47.0313 310.91 46.574 310.891 46.032C310.858 45.5656 310.724 45.1119 310.499 44.702C310.317 44.3825 310.069 44.1057 309.771 43.89C309.496 43.696 309.187 43.5533 308.861 43.469C308.553 43.3891 308.239 43.3287 307.923 43.288V43.007H313.607L326.88 58.526V49.005C326.88 48.259 326.871 47.5453 326.852 46.864C326.856 46.3169 326.77 45.7729 326.6 45.253C326.415 44.7326 326.066 44.286 325.606 43.98C324.98 43.6005 324.277 43.366 323.548 43.294V43.013H330.493V43.294C329.907 43.3525 329.339 43.5337 328.827 43.826Z" fill="#464749"/>
<path d="M47.502 79.904C69.5669 79.904 87.454 62.0169 87.454 39.952C87.454 17.8871 69.5669 0 47.502 0C25.4372 0 7.55005 17.8871 7.55005 39.952C7.55005 62.0169 25.4372 79.904 47.502 79.904Z" fill="#D1D9EE"/>
<path d="M66.463 32.02C67.199 31.886 71.063 31.181 75.373 30.182C75.973 30.042 69.188 23.526 68.766 23.122C67.2907 20.0854 65.1893 17.3954 62.5999 15.2291C60.0106 13.0628 56.992 11.4691 53.7427 10.5528C50.4933 9.63659 47.0868 9.41856 43.7472 9.91308C40.4076 10.4076 37.2104 11.6034 34.366 13.422C33.802 13.265 33.448 13.169 33.374 13.151C32.168 12.864 1.70802 6.05101 1.16702 5.75101C0.731023 5.51201 0.490032 5.728 0.511032 6.228C0.558727 7.21559 0.801741 8.18393 1.22603 9.077C2.13346 11.0982 3.79934 12.6815 5.86403 13.485C6.78303 13.867 6.83802 13.852 6.76402 14.829C6.73023 15.3874 6.84292 15.945 7.09094 16.4465C7.33896 16.948 7.7137 17.3759 8.17802 17.688C9.02167 18.2566 9.92259 18.7352 10.866 19.116C11.313 19.27 11.454 19.458 11.357 19.792C11.292 20.1413 11.3119 20.501 11.415 20.841C11.698 22.319 13.569 23.311 13.732 23.41C15.2079 24.2271 16.7895 24.8366 18.432 25.221C18.676 25.288 18.841 25.333 18.832 25.649C18.8265 26.2036 18.9588 26.751 19.2171 27.2418C19.4755 27.7326 19.8517 28.1516 20.312 28.461C21.2078 29.1818 22.2438 29.7083 23.354 30.007C27.229 30.882 26.416 31.361 26.416 33.194C26.416 33.983 25.229 33.594 23.479 34.299C22.539 34.679 22.601 36.18 23.404 38.26C23.521 38.56 23.711 38.668 24.085 38.598C24.942 38.437 25.817 38.378 26.685 38.247C27.017 38.196 27.105 38.283 27.135 38.615C27.2609 39.8356 27.5044 41.0412 27.862 42.215C28.023 42.769 28.487 43.388 28.262 43.861C28.037 44.334 27.377 44.636 26.895 44.993C25.3132 46.3192 23.6263 47.5148 21.851 48.568C21.7096 48.6733 21.5456 48.7442 21.3721 48.7751C21.1985 48.806 21.0201 48.796 20.851 48.746C19.7449 48.3207 18.6142 47.9624 17.465 47.673C16.701 47.473 15.9344 47.2993 15.165 47.152H15.159C14.3924 47.0033 13.6237 46.8817 12.853 46.787H12.851C12.079 46.694 11.306 46.63 10.529 46.6H10.522C9.74937 46.57 8.97336 46.5747 8.19403 46.614H8.11704C9.87413 56.9679 15.6347 66.2147 24.1539 72.3559C32.673 78.4972 43.2666 81.0397 53.645 79.434C53.789 78.944 53.9224 78.4594 54.045 77.98C54.045 77.961 54.053 77.943 54.058 77.924C54.186 77.424 54.301 76.924 54.4 76.438C54.8687 74.556 54.9447 72.5976 54.623 70.685C51.9722 66.8225 48.6009 63.5079 44.694 60.923C44.294 60.688 44.255 60.543 44.542 60.187C45.042 59.571 45.499 58.925 45.942 58.27C45.9732 58.1993 46.0203 58.1367 46.0797 58.0873C46.139 58.0378 46.2091 58.0029 46.2843 57.985C46.3595 57.9672 46.4378 57.967 46.513 57.9845C46.5883 58.0021 46.6585 58.0368 46.718 58.086C48.8272 59.2176 51.0211 60.1835 53.28 60.975C55.0523 61.6571 56.9303 62.0236 58.829 62.058C60.777 62.025 62.047 61.151 62.46 59.526C62.6562 58.7542 62.6532 57.9452 62.451 57.175C62.2916 56.7956 62.2565 56.3755 62.3506 55.9749C62.4447 55.5742 62.6633 55.2137 62.975 54.945C63.2182 54.725 63.4094 54.4536 63.5346 54.1505C63.6599 53.8474 63.716 53.5202 63.6989 53.1927C63.6819 52.8652 63.5921 52.5456 63.4361 52.2571C63.2801 51.9686 63.0618 51.7186 62.797 51.525C62.668 51.409 62.461 51.342 62.454 51.104C62.922 50.924 63.38 50.716 63.854 50.573C63.9926 50.557 64.126 50.511 64.245 50.4381C64.3639 50.3653 64.4656 50.2674 64.5429 50.1513C64.6202 50.0352 64.6712 49.9036 64.6925 49.7657C64.7138 49.6279 64.7047 49.487 64.666 49.353C64.593 48.926 64.651 48.477 64.62 48.041C64.599 47.729 64.711 47.604 65.02 47.541C65.8956 47.3467 66.7356 47.0174 67.51 46.565C67.7722 46.4622 68.0087 46.3034 68.203 46.0996C68.3973 45.8958 68.5447 45.652 68.6349 45.3853C68.7251 45.1186 68.7559 44.8354 68.7252 44.5555C68.6945 44.2756 68.603 44.0058 68.457 43.765C67.626 42.086 66.932 40.354 66.19 38.639C65.752 37.628 65.523 36.751 66.469 35.931C66.6156 35.7972 66.7111 35.6167 66.7394 35.4203C66.7676 35.2238 66.7269 35.0237 66.624 34.854C66.378 34.213 66.165 33.56 65.945 32.91C65.707 32.202 65.751 32.15 66.463 32.02Z" fill="#3B5794"/>
<path d="M66.3511 43.272C66.0969 42.9201 65.9114 42.5235 65.8041 42.103C65.4912 40.4356 64.9879 38.8096 64.3041 37.257C64.2276 37.1139 64.1897 36.9534 64.1941 36.7912C64.1985 36.629 64.245 36.4707 64.3291 36.332C64.5195 36.0464 64.645 35.7226 64.6968 35.3833C64.7487 35.0439 64.7255 34.6974 64.6291 34.368C64.516 33.9887 64.4271 33.6026 64.3631 33.212C64.2921 32.863 64.1281 32.744 63.7491 32.812C61.5771 33.199 59.4011 33.559 57.2261 33.929C54.8261 34.3377 52.4261 34.7467 50.0261 35.156C49.8811 35.1636 49.7399 35.2053 49.614 35.2775C49.488 35.3498 49.3808 35.4506 49.3011 35.572C48.1176 37.3848 47.1994 39.3574 46.5741 41.43C46.5592 41.5744 46.4877 41.707 46.3752 41.7988C46.2628 41.8907 46.1185 41.9343 45.9741 41.92C45.0571 41.942 44.1401 41.995 43.2251 42.06C43.0742 42.0864 42.9189 42.0621 42.7833 41.9908C42.6478 41.9195 42.5397 41.8053 42.4761 41.666C42.2071 41.2191 41.9042 40.7935 41.5701 40.393C40.8705 39.3519 39.9573 38.4717 38.8911 37.811C38.7267 37.6976 38.5393 37.622 38.3423 37.5896C38.1452 37.5572 37.9435 37.5689 37.7515 37.6238C37.5595 37.6786 37.3821 37.7754 37.2319 37.907C37.0818 38.0386 36.9626 38.2019 36.8831 38.385C36.7442 38.6871 36.637 39.0028 36.5631 39.327C36.0787 42.1541 36.4814 45.0619 37.7161 47.651C38.4851 48.957 39.1161 49.419 40.1861 48.795C40.3391 48.706 40.5861 48.555 40.6491 48.835C40.6285 49.082 40.5887 49.3271 40.5301 49.568C40.4683 49.8498 40.3854 50.1266 40.2821 50.396C40.1506 50.7773 39.8737 51.0911 39.5119 51.2693C39.15 51.4474 38.7324 51.4753 38.3501 51.347C36.6501 50.602 34.9001 46.729 34.5501 46.666C33.1381 46.409 31.7311 46.129 30.3231 45.848C30.2125 45.8268 30.0987 45.8292 29.9891 45.8551C29.8795 45.8809 29.7766 45.9296 29.6871 45.998C28.0521 47.244 28.6011 46.741 26.9521 47.985C26.4461 48.367 35.5911 60.396 39.0281 64.879C39.1351 65.0184 39.2801 65.1239 39.4457 65.1829C39.6113 65.2418 39.7904 65.2516 39.9615 65.2112C40.1325 65.1707 40.2882 65.0817 40.4098 64.9548C40.5315 64.8279 40.6139 64.6686 40.6471 64.496C40.9471 62.98 41.4541 61.047 42.1631 60.267C42.5131 59.881 44.0821 57.667 45.0161 56.333C45.2128 56.0551 45.5038 55.8581 45.8349 55.7786C46.166 55.6992 46.5146 55.7427 46.8161 55.901C49.2075 57.153 51.6887 58.2256 54.2391 59.11C55.6138 59.633 57.0766 59.8857 58.5471 59.854C58.9566 59.8455 59.3549 59.7187 59.694 59.4889C60.033 59.2591 60.2984 58.9362 60.4581 58.559C60.6952 57.6899 60.6213 56.7653 60.2491 55.945C60.1983 55.7746 60.1997 55.593 60.2532 55.4234C60.3066 55.2539 60.4097 55.1043 60.5491 54.994C61.0519 54.5819 61.4744 54.0805 61.7951 53.515C61.8663 53.424 61.9173 53.3187 61.9447 53.2064C61.972 53.094 61.975 52.9771 61.9535 52.8635C61.932 52.7499 61.8865 52.6422 61.82 52.5476C61.7536 52.453 61.6677 52.3737 61.5681 52.315C60.6733 51.7558 59.8571 51.0799 59.1411 50.305C60.3156 50.0757 61.4704 49.755 62.5951 49.346C62.6861 49.332 62.7731 49.2988 62.8504 49.2487C62.9277 49.1986 62.9934 49.1327 63.0433 49.0553C63.0932 48.9779 63.1262 48.8908 63.1399 48.7997C63.1536 48.7086 63.1479 48.6157 63.1231 48.527C63.0681 48.136 63.0601 47.738 63.0021 47.347C62.9351 46.9 63.0161 46.66 63.5571 46.638C64.2401 46.5995 64.9082 46.423 65.5211 46.119C65.7768 46.0018 66.0043 45.8309 66.1882 45.6181C66.372 45.4052 66.5079 45.1552 66.5867 44.8851C66.6654 44.6151 66.6851 44.3313 66.6445 44.0529C66.6038 43.7746 66.5037 43.5082 66.3511 43.272Z" fill="white"/>
<path d="M42.2011 29.239C41.5599 29.654 40.8062 29.8607 40.0431 29.831C38.3127 30.1377 36.5387 30.0973 34.8241 29.712C34.4284 29.6586 34.0511 29.5119 33.7234 29.284C33.3956 29.056 33.1268 28.7534 32.9391 28.401C32.8864 28.248 32.7843 28.1168 32.6489 28.0281C32.5135 27.9394 32.3524 27.8982 32.1911 27.911C30.9483 27.7991 29.7129 27.6161 28.4911 27.363C26.0771 26.9177 23.6681 26.445 21.2641 25.945C20.7141 25.831 20.6411 26.045 20.7071 26.482C20.7874 26.8833 20.9688 27.2575 21.2341 27.5691C21.4994 27.8808 21.8398 28.1196 22.2231 28.263C23.9822 29.0255 25.8437 29.5255 27.7481 29.747C30.7021 30.247 33.6721 30.66 36.6331 31.128C37.6951 31.296 37.8421 32.084 37.5831 32.433C37.1713 32.8376 36.6386 33.0964 36.0661 33.17C34.6761 33.43 33.2931 33.727 31.9051 34.004C29.5591 34.471 27.2131 34.947 24.8611 35.388C24.3101 35.488 24.2611 35.824 24.3141 36.25C24.3751 36.743 24.7141 36.856 25.1331 36.761C25.6631 36.642 26.2021 36.584 26.7331 36.495C30.3651 35.882 33.9921 35.241 37.6221 34.618C40.3102 34.0304 42.8797 32.9928 45.2221 31.549C46.2994 30.8507 47.3043 30.0467 48.2221 29.149C49.7365 27.7027 50.8556 25.893 51.4731 23.892C51.64 23.1154 51.5897 22.3078 51.3278 21.5579C51.0658 20.808 50.6023 20.1448 49.9881 19.641C48.1925 18.2941 46.11 17.3804 43.9031 16.971C41.7351 16.433 39.5141 16.246 37.3161 15.909C33.7971 15.369 30.3261 14.591 26.8641 13.764C21.3771 12.455 15.9341 10.978 10.4851 9.52601C8.19408 8.91501 5.89608 8.33301 3.61108 7.70301C3.08108 7.55701 2.93608 7.74701 2.91108 8.21201C2.89758 8.56804 2.96678 8.92234 3.11321 9.24714C3.25965 9.57193 3.47935 9.85838 3.75509 10.084C4.65171 10.88 5.67605 11.5193 6.78509 11.975C8.80233 12.8008 10.8698 13.4982 12.9751 14.063C16.2081 14.953 19.4881 15.616 22.7701 16.287C23.4161 16.419 23.8201 16.422 24.0021 15.716C24.0301 15.607 24.1401 15.516 24.2621 15.355C24.4418 16.1704 24.8123 16.9315 25.3431 17.576C26.7311 19.042 28.6111 19.244 30.4221 19.431C31.7741 19.571 33.1621 19.488 34.5271 19.624C35.5076 19.6826 36.4526 20.0129 37.2561 20.578C36.1333 20.7895 34.9973 20.9231 33.8561 20.978C32.1334 21.0629 30.4072 20.9081 28.7271 20.518C28.4761 20.458 28.2451 20.444 28.3591 20.834C28.6182 21.8744 29.2644 22.7768 30.1661 23.357C32.2891 24.682 34.7341 24.41 37.0571 24.674C37.6671 24.744 38.3341 24.731 38.9571 24.796C39.7747 24.8166 40.5586 25.1259 41.1701 25.669C40.6521 25.76 40.2501 25.846 39.8451 25.899C37.9625 26.146 36.0557 26.146 34.1731 25.899C33.8731 25.86 33.7521 25.899 33.7101 26.251C33.6533 26.5178 33.6497 26.7932 33.6993 27.0613C33.749 27.3295 33.8511 27.5853 33.9997 27.8141C34.1483 28.0428 34.3405 28.24 34.5653 28.3944C34.7902 28.5488 35.0432 28.6574 35.3101 28.714C36.2633 28.954 37.2498 29.0331 38.2291 28.948C39.0174 28.862 39.8116 28.8432 40.6031 28.892C41.156 28.8762 41.7045 28.9953 42.2011 29.239Z" fill="white"/>
<path d="M27.2331 21.89C27.5051 21.925 27.6691 21.868 27.7071 21.548C27.7287 21.3397 27.8053 21.1409 27.9291 20.972C28.3121 20.486 28.0671 20.372 27.6031 20.227C26.1661 19.9158 24.8827 19.113 23.9741 17.957C23.8181 17.725 23.5961 17.746 23.3681 17.722C22.4161 17.622 21.4681 17.492 20.5281 17.301C19.5131 17.094 18.5001 16.869 17.4891 16.661C16.5221 16.461 15.5451 16.276 14.5781 16.061C12.9541 15.702 11.3341 15.327 9.7201 14.925C9.2551 14.809 9.16309 15.025 9.14109 15.385C9.12754 15.6247 9.17107 15.8641 9.26807 16.0837C9.36508 16.3032 9.5128 16.4966 9.6991 16.648C11.0782 17.7568 12.6819 18.5525 14.3991 18.98C16.9021 19.7618 19.4467 20.4038 22.0211 20.903C23.7511 21.259 25.4951 21.563 27.2331 21.89Z" fill="white"/>
<path d="M33.526 25.757C32.981 25.7558 32.4413 25.6502 31.936 25.446C30.4134 25.147 29.038 24.3387 28.036 23.154C27.9833 23.0897 27.9153 23.0398 27.8382 23.0089C27.7611 22.9779 27.6775 22.967 27.595 22.977C26.3056 22.9048 25.0249 22.7214 23.767 22.429C20.345 21.725 16.945 20.9307 13.567 20.046C13.379 19.997 13.16 19.881 13.015 20.138C12.9799 20.6332 13.0585 21.1299 13.245 21.59C14.0721 22.3409 15.0337 22.9289 16.079 23.323C18.5772 24.1862 21.1436 24.8378 23.751 25.271C26.651 25.819 29.557 26.35 32.459 26.901C32.702 26.947 32.896 27.015 33.029 26.73C33.162 26.445 33.326 26.144 33.526 25.757Z" fill="white"/>
<path d="M42.2011 29.239C41.5599 29.654 40.8062 29.8607 40.0431 29.831C38.3127 30.1377 36.5387 30.0973 34.8241 29.712C34.4284 29.6586 34.0511 29.5119 33.7234 29.284C33.3956 29.056 33.1268 28.7534 32.9391 28.401C32.8864 28.248 32.7843 28.1168 32.6489 28.0281C32.5135 27.9394 32.3524 27.8982 32.1911 27.911C30.9483 27.7991 29.7129 27.6161 28.4911 27.363C26.0771 26.9177 23.6681 26.445 21.2641 25.945C20.7141 25.831 20.6411 26.045 20.7071 26.482C20.7874 26.8833 20.9688 27.2575 21.2341 27.5691C21.4994 27.8808 21.8398 28.1196 22.2231 28.263C23.9822 29.0255 25.8437 29.5255 27.7481 29.747C30.7021 30.247 33.6721 30.66 36.6331 31.128C37.6951 31.296 37.8421 32.084 37.5831 32.433C37.1713 32.8376 36.6386 33.0964 36.0661 33.17C34.6761 33.43 33.2931 33.727 31.9051 34.004C29.5591 34.471 27.2131 34.947 24.8611 35.388C24.3101 35.488 24.2611 35.824 24.3141 36.25C24.3751 36.743 24.7141 36.856 25.1331 36.761C25.6631 36.642 26.2021 36.584 26.7331 36.495C30.3651 35.882 33.9921 35.241 37.6221 34.618C40.3102 34.0304 42.8797 32.9928 45.2221 31.549C46.2994 30.8507 47.3043 30.0467 48.2221 29.149C49.7365 27.7027 50.8556 25.893 51.4731 23.892C51.64 23.1154 51.5897 22.3078 51.3278 21.5579C51.0658 20.808 50.6023 20.1448 49.9881 19.641C48.1925 18.2941 46.11 17.3804 43.9031 16.971C41.7351 16.433 39.5141 16.246 37.3161 15.909C33.7971 15.369 30.3261 14.591 26.8641 13.764C21.3771 12.455 15.9341 10.978 10.4851 9.52601C8.19408 8.91501 5.89608 8.33301 3.61108 7.70301C3.08108 7.55701 2.93608 7.74701 2.91108 8.21201C2.89758 8.56804 2.96678 8.92234 3.11321 9.24714C3.25965 9.57193 3.47935 9.85838 3.75509 10.084C4.65171 10.88 5.67605 11.5193 6.78509 11.975C8.80233 12.8008 10.8698 13.4982 12.9751 14.063C16.2081 14.953 19.4881 15.616 22.7701 16.287C23.4161 16.419 23.8201 16.422 24.0021 15.716C24.0301 15.607 24.1401 15.516 24.2621 15.355C24.4418 16.1704 24.8123 16.9315 25.3431 17.576C26.7311 19.042 28.6111 19.244 30.4221 19.431C31.7741 19.571 33.1621 19.488 34.5271 19.624C35.5076 19.6826 36.4526 20.0129 37.2561 20.578C36.1333 20.7895 34.9973 20.9231 33.8561 20.978C32.1334 21.0629 30.4072 20.9081 28.7271 20.518C28.4761 20.458 28.2451 20.444 28.3591 20.834C28.6182 21.8744 29.2644 22.7768 30.1661 23.357C32.2891 24.682 34.7341 24.41 37.0571 24.674C37.6671 24.744 38.3341 24.731 38.9571 24.796C39.7747 24.8166 40.5586 25.1259 41.1701 25.669C40.6521 25.76 40.2501 25.846 39.8451 25.899C37.9625 26.146 36.0557 26.146 34.1731 25.899C33.8731 25.86 33.7521 25.899 33.7101 26.251C33.6533 26.5178 33.6497 26.7932 33.6993 27.0613C33.749 27.3295 33.8511 27.5853 33.9997 27.8141C34.1483 28.0428 34.3405 28.24 34.5653 28.3944C34.7902 28.5488 35.0432 28.6574 35.3101 28.714C36.2633 28.954 37.2498 29.0331 38.2291 28.948C39.0174 28.862 39.8116 28.8432 40.6031 28.892C41.156 28.8762 41.7045 28.9953 42.2011 29.239Z" fill="white"/>
<path d="M27.2331 21.89C27.5051 21.925 27.6691 21.868 27.7071 21.548C27.7287 21.3397 27.8053 21.1409 27.9291 20.972C28.3121 20.486 28.0671 20.372 27.6031 20.227C26.1661 19.9158 24.8827 19.113 23.9741 17.957C23.8181 17.725 23.5961 17.746 23.3681 17.722C22.4161 17.622 21.4681 17.492 20.5281 17.301C19.5131 17.094 18.5001 16.869 17.4891 16.661C16.5221 16.461 15.5451 16.276 14.5781 16.061C12.9541 15.702 11.3341 15.327 9.7201 14.925C9.2551 14.809 9.16309 15.025 9.14109 15.385C9.12754 15.6247 9.17107 15.8641 9.26807 16.0837C9.36508 16.3032 9.5128 16.4966 9.6991 16.648C11.0782 17.7568 12.6819 18.5525 14.3991 18.98C16.9021 19.7618 19.4467 20.4038 22.0211 20.903C23.7511 21.259 25.4951 21.563 27.2331 21.89Z" fill="white"/>
<path d="M33.526 25.757C32.981 25.7558 32.4413 25.6502 31.936 25.446C30.4134 25.147 29.038 24.3387 28.036 23.154C27.9833 23.0897 27.9153 23.0398 27.8382 23.0089C27.7611 22.9779 27.6775 22.967 27.595 22.977C26.3056 22.9048 25.0249 22.7214 23.767 22.429C20.345 21.725 16.945 20.9307 13.567 20.046C13.379 19.997 13.16 19.881 13.015 20.138C12.9799 20.6332 13.0585 21.1299 13.245 21.59C14.0721 22.3409 15.0337 22.9289 16.079 23.323C18.5772 24.1862 21.1436 24.8378 23.751 25.271C26.651 25.819 29.557 26.35 32.459 26.901C32.702 26.947 32.896 27.015 33.029 26.73C33.162 26.445 33.326 26.144 33.526 25.757Z" fill="white"/>
<path d="M55.1971 40.418L55.3971 40.431C57.4267 39.5761 59.596 39.1015 61.7971 39.031C62.6971 38.761 62.5111 37.005 62.1491 36.879C61.4811 36.647 60.8132 36.406 60.1712 36.111C60.0242 36.0368 59.8623 35.997 59.6978 35.9946C59.5332 35.9922 59.3702 36.0272 59.2211 36.097C57.4271 36.9618 55.9451 38.3613 54.9791 40.103C54.7861 40.393 54.9851 40.404 55.1971 40.418Z" fill="#3B5794"/>
<path d="M39.9061 46.047C38.5311 45.341 38.1411 44.032 39.1701 43.011C39.2235 42.9699 39.2669 42.9173 39.2971 42.8571C39.3272 42.7968 39.3433 42.7305 39.3442 42.6632C39.3451 42.5958 39.3307 42.5291 39.3021 42.4681C39.2735 42.4071 39.2315 42.3534 39.1791 42.311C39.0556 42.171 38.9433 42.0216 38.8431 41.864C38.5431 41.388 38.1991 41.264 37.7551 41.695C37.6901 41.758 37.5691 41.764 37.3491 41.839C37.6111 41.129 37.8251 40.514 38.0681 39.91C38.1771 39.638 38.4331 39.65 38.5411 39.866C38.9331 40.644 39.7191 41.046 40.2311 41.711C40.5507 42.0315 40.7402 42.459 40.7631 42.911C40.7551 43.365 40.9061 43.769 40.3021 44.033C39.9501 44.187 39.8491 44.691 39.8591 45.121C39.8651 45.406 39.8871 45.694 39.9061 46.047Z" fill="#3B5794"/>
</svg>
