<svg viewBox="0 0 58 91" xmlns="http://www.w3.org/2000/svg">
<path d="M29.863 20.74H7.463V22.606H29.863V20.74ZM29.863 9.53995H7.463V11.4059H29.863V9.53995ZM41.063 54.3399C39.9554 54.3399 38.8727 54.6684 37.9518 55.2837C37.0309 55.8991 36.3131 56.7736 35.8893 57.7969C35.4654 58.8202 35.3545 59.9461 35.5706 61.0324C35.7867 62.1187 36.32 63.1166 37.1032 63.8997C37.8864 64.6829 38.8842 65.2163 39.9705 65.4323C41.0568 65.6484 42.1828 65.5375 43.206 65.1137C44.2293 64.6898 45.1039 63.9721 45.7192 63.0511C46.3346 62.1302 46.663 61.0475 46.663 59.9399C46.663 58.4541 46.073 57.0291 45.0227 55.978C43.9725 54.927 42.5478 54.336 41.062 54.335L41.063 54.3399ZM41.063 63.6719C40.3251 63.6711 39.6039 63.4517 38.9907 63.0412C38.3774 62.6308 37.8996 62.0478 37.6175 61.3659C37.3354 60.684 37.2618 59.9338 37.4059 59.2101C37.5499 58.4863 37.9053 57.8216 38.427 57.2997C38.9487 56.7778 39.6134 56.4223 40.3371 56.278C41.0608 56.1337 41.8111 56.2072 42.493 56.489C43.175 56.7709 43.7581 57.2486 44.1687 57.8618C44.5793 58.4749 44.799 59.196 44.8 59.934C44.7987 60.9245 44.4043 61.874 43.7034 62.5739C43.0025 63.2738 42.0525 63.667 41.062 63.667L41.063 63.6719ZM29.863 15.14H7.463V17.007H29.863V15.14ZM7.463 33.805H50.395V31.9399H7.466L7.463 33.805ZM36.824 0.204956H4.666C3.42848 0.206016 2.24198 0.698208 1.3671 1.57346C0.492231 2.4487 0.000529534 3.63543 0 4.87296V72.0659C0.00105923 73.3031 0.492994 74.4893 1.36781 75.3641C2.24262 76.239 3.42883 76.7309 4.666 76.7319H35.466V89.9399L41.084 82.334H41.49L46.662 90.2339V76.7339H53.195C54.4322 76.7329 55.6184 76.241 56.4932 75.3661C57.368 74.4913 57.8599 73.3051 57.861 72.068V25.0609L36.824 0.204956ZM37.324 3.68396L54.91 24.4689H40.663C39.7799 24.4681 38.9331 24.1173 38.3081 23.4933C37.6832 22.8694 37.3311 22.0231 37.329 21.14L37.324 3.68396ZM44.8 83.972L42.5 80.4649H40.14L37.329 84.265V68.4749C38.5043 68.9967 39.776 69.2663 41.062 69.2663C42.348 69.2663 43.6197 68.9967 44.795 68.4749L44.8 83.972ZM41.062 67.3999C39.5854 67.3999 38.1419 66.9621 36.9141 66.1417C35.6863 65.3213 34.7294 64.1553 34.1643 62.7911C33.5992 61.4268 33.4514 59.9257 33.7395 58.4774C34.0275 57.0292 34.7386 55.6988 35.7827 54.6547C36.8269 53.6106 38.1572 52.8995 39.6055 52.6114C41.0537 52.3233 42.5549 52.4712 43.9191 53.0363C45.2833 53.6013 46.4494 54.5583 47.2698 55.7861C48.0901 57.0138 48.528 58.4573 48.528 59.934C48.5261 61.9135 47.739 63.8114 46.3392 65.2112C44.9395 66.6109 43.0415 67.3981 41.062 67.3999ZM55.994 72.0659C55.994 72.8086 55.699 73.5207 55.1739 74.0458C54.6488 74.5709 53.9366 74.8659 53.194 74.8659H46.662V67.3999H46.6C47.7716 66.5385 48.7249 65.4144 49.3833 64.1177C50.0417 62.8211 50.3868 61.3882 50.391 59.934C50.3987 58.3381 49.997 56.767 49.2244 55.3707C48.4517 53.9744 47.3339 52.7995 45.9778 51.9584C44.6216 51.1173 43.0724 50.638 41.4782 50.5663C39.8839 50.4947 38.298 50.833 36.8718 51.5491C35.4456 52.2652 34.2269 53.335 33.3321 54.6563C32.4373 55.9777 31.8963 57.5065 31.7608 59.0965C31.6253 60.6866 31.8998 62.2848 32.5581 63.7386C33.2165 65.1923 34.2366 66.4529 35.521 67.3999H35.463V74.8659H4.663C3.92039 74.8659 3.2082 74.5709 2.6831 74.0458C2.158 73.5207 1.863 72.8086 1.863 72.0659V4.87296C1.863 4.13035 2.158 3.41814 2.6831 2.89304C3.2082 2.36793 3.92039 2.07294 4.663 2.07294H35.463V21.14C35.4646 22.5186 36.013 23.8403 36.9878 24.8152C37.9626 25.79 39.2844 26.3383 40.663 26.3399H55.994V72.0659ZM7.466 39.403H50.395V37.5399H7.466V39.403ZM7.466 63.667H29.866V61.8H7.466V63.667ZM7.466 67.3999H29.866V65.533H7.466V67.3999ZM7.466 44.9999H50.395V43.14H7.466V44.9999ZM7.466 50.5999H29.866V48.74H7.466V50.5999Z" fill="#5869A3"/>
</svg>
