<svg viewBox="0 0 90 77" xmlns="http://www.w3.org/2000/svg">
<path d="M26.12 55.7239H3.66698C3.13109 55.7238 2.60464 55.5829 2.1403 55.3153C1.67597 55.0478 1.29003 54.6631 1.0211 54.1995C0.752181 53.736 0.609704 53.21 0.607927 52.6741C0.60615 52.1382 0.745137 51.6112 1.01098 51.1459L7.08598 40.5089C7.35489 40.041 7.74231 39.652 8.20926 39.3813C8.67622 39.1107 9.20624 38.9677 9.74598 38.9669H20.046C20.5852 38.9675 21.1148 39.1102 21.5814 39.3806C22.0481 39.6509 22.4352 40.0394 22.704 40.5069L28.781 51.1459C29.0468 51.6112 29.1858 52.1382 29.184 52.6741C29.1823 53.21 29.0398 53.736 28.7709 54.1995C28.5019 54.6631 28.116 55.0478 27.6517 55.3153C27.1873 55.5829 26.6609 55.7238 26.125 55.7239H26.12ZM9.74598 40.8329C9.53531 40.8333 9.32841 40.8889 9.14593 40.9942C8.96345 41.0994 8.81175 41.2507 8.70598 41.4329L2.63298 52.0679C2.52878 52.2492 2.47411 52.4547 2.47444 52.6638C2.47476 52.8729 2.53009 53.0782 2.63485 53.2592C2.73961 53.4401 2.89012 53.5903 3.07129 53.6947C3.25245 53.7991 3.45789 53.854 3.66698 53.8539H26.12C26.3291 53.8541 26.5346 53.7992 26.7159 53.6949C26.8972 53.5906 27.0478 53.4404 27.1528 53.2595C27.2577 53.0786 27.3132 52.8733 27.3138 52.6642C27.3144 52.455 27.2599 52.2494 27.156 52.0679L21.081 41.4339C20.9759 41.252 20.825 41.1008 20.6431 40.9955C20.4613 40.8902 20.2551 40.8345 20.045 40.8339L9.74598 40.8329Z" fill="#5869A3"/>
<path d="M21.3273 40.4938L1.21777 52.541L2.17674 54.1417L22.2862 42.0945L21.3273 40.4938Z" fill="#5869A3"/>
<path d="M55.9078 55.7239H33.4518C32.9158 55.7239 32.3892 55.5831 31.9246 55.3157C31.4601 55.0483 31.0739 54.6637 30.8046 54.2003C30.5353 53.7368 30.3924 53.2108 30.3902 52.6748C30.3879 52.1388 30.5264 51.6116 30.7918 51.1459L36.8708 40.5089C37.1394 40.0412 37.5265 39.6524 37.9931 39.3817C38.4597 39.111 38.9893 38.968 39.5288 38.9669H49.8288C50.3683 38.9673 50.8982 39.1101 51.3649 39.3809C51.8316 39.6516 52.2186 40.0408 52.4868 40.5089L58.5638 51.1459C58.8296 51.6112 58.9686 52.1382 58.9668 52.6741C58.965 53.21 58.8226 53.736 58.5536 54.1995C58.2847 54.6631 57.8988 55.0478 57.4344 55.3153C56.9701 55.5829 56.4436 55.7238 55.9078 55.7239ZM39.5288 40.8329C39.3183 40.8331 39.1116 40.8887 38.9295 40.994C38.7473 41.0993 38.596 41.2507 38.4908 41.4329L32.4158 52.0679C32.3118 52.2494 32.2574 52.455 32.2579 52.6642C32.2585 52.8733 32.314 53.0786 32.419 53.2595C32.5239 53.4404 32.6746 53.5906 32.8558 53.6949C33.0371 53.7992 33.2426 53.8541 33.4518 53.8539H55.9078C56.1169 53.8541 56.3224 53.7992 56.5037 53.6949C56.6849 53.5906 56.8356 53.4404 56.9405 53.2595C57.0455 53.0786 57.101 52.8733 57.1016 52.6642C57.1021 52.455 57.0477 52.2494 56.9438 52.0679L50.8628 41.4309C50.7587 41.2486 50.6082 41.097 50.4266 40.9917C50.245 40.8863 50.0387 40.8308 49.8288 40.8309L39.5288 40.8329Z" fill="#5869A3"/>
<path d="M51.1124 40.4938L31.0029 52.541L31.9619 54.1417L52.0714 42.0945L51.1124 40.4938Z" fill="#5869A3"/>
<path d="M53.4319 44.2049L37 54.049L37.959 55.6497L54.3909 45.8056L53.4319 44.2049Z" fill="#5869A3"/>
<path d="M55.7086 47.9421L45.7319 53.9189L46.6909 55.5197L56.6676 49.5428L55.7086 47.9421Z" fill="#5869A3"/>
<path d="M23.6476 44.2055L7.21484 54.05L8.17381 55.6508L24.6066 45.8062L23.6476 44.2055Z" fill="#5869A3"/>
<path d="M25.9243 47.9416L15.9468 53.9189L16.9057 55.5197L26.8833 49.5423L25.9243 47.9416Z" fill="#5869A3"/>
<path d="M83.2171 44.2049L66.7852 54.049L67.7441 55.6497L84.1761 45.8056L83.2171 44.2049Z" fill="#5869A3"/>
<path d="M85.4938 47.9421L75.5171 53.9189L76.4761 55.5197L86.4527 49.5428L85.4938 47.9421Z" fill="#5869A3"/>
<path d="M55.9079 17.432H33.452C32.9159 17.4315 32.3894 17.2904 31.9249 17.0228C31.4604 16.7552 31.0743 16.3703 30.8051 15.9068C30.5359 15.4433 30.393 14.9172 30.3907 14.3811C30.3884 13.8451 30.5267 13.3178 30.792 12.852L36.871 2.215C37.1393 1.74696 37.5263 1.35795 37.993 1.08722C38.4596 0.816492 38.9894 0.673601 39.529 0.672974H49.829C50.3688 0.673293 50.8989 0.816262 51.3657 1.0874C51.8324 1.35854 52.2193 1.74823 52.487 2.21698L58.564 12.852C58.8297 13.3174 58.9685 13.8445 58.9667 14.3804C58.9649 14.9163 58.8224 15.4424 58.5535 15.9061C58.2847 16.3697 57.8988 16.7546 57.4346 17.0224C56.9703 17.2902 56.4439 17.4314 55.9079 17.432ZM39.529 2.53897C39.3189 2.53954 39.1126 2.59527 38.9308 2.70056C38.749 2.80586 38.598 2.95703 38.493 3.13898L32.416 13.776C32.3121 13.9576 32.2578 14.1633 32.2584 14.3725C32.2591 14.5817 32.3146 14.7871 32.4195 14.9681C32.5243 15.1491 32.6749 15.2994 32.8561 15.404C33.0373 15.5085 33.2428 15.5637 33.452 15.564H55.9079C56.1171 15.5637 56.3226 15.5085 56.5038 15.404C56.685 15.2994 56.8356 15.1491 56.9404 14.9681C57.0453 14.7871 57.1008 14.5817 57.1015 14.3725C57.1021 14.1633 57.0478 13.9576 56.944 13.776L50.863 3.13898C50.7589 2.95664 50.6084 2.80509 50.4268 2.69971C50.2452 2.59433 50.0389 2.53887 49.829 2.53897H39.529Z" fill="#5869A3"/>
<path d="M85.6889 55.7239H63.2348C62.699 55.7238 62.1725 55.5829 61.7082 55.3153C61.2438 55.0478 60.8579 54.6631 60.589 54.1995C60.3201 53.736 60.1776 53.21 60.1758 52.6741C60.174 52.1382 60.313 51.6112 60.5789 51.1459L66.6559 40.5089C66.9245 40.0412 67.3116 39.6524 67.7782 39.3817C68.2448 39.111 68.7744 38.968 69.3139 38.9669H79.6139C80.1528 38.9678 80.682 39.1106 81.1483 39.3809C81.6145 39.6513 82.0013 40.0396 82.2699 40.5069L88.3489 51.1459C88.6148 51.6114 88.7538 52.1385 88.7519 52.6746C88.75 53.2106 88.6074 53.7368 88.3382 54.2004C88.0691 54.664 87.6828 55.0487 87.2182 55.3161C86.7536 55.5835 86.2269 55.7241 85.6909 55.7239H85.6889ZM69.3149 40.8329C69.1044 40.8331 68.8977 40.8887 68.7155 40.994C68.5334 41.0993 68.3821 41.2507 68.2768 41.4329L62.2019 52.0679C62.0977 52.2492 62.043 52.4547 62.0433 52.6638C62.0436 52.8729 62.099 53.0782 62.2037 53.2592C62.3085 53.4401 62.459 53.5903 62.6402 53.6947C62.8213 53.7991 63.0268 53.854 63.2358 53.8539H85.6899C85.899 53.8541 86.1045 53.7992 86.2858 53.6949C86.467 53.5906 86.6177 53.4404 86.7226 53.2595C86.8276 53.0786 86.8831 52.8733 86.8837 52.6642C86.8842 52.455 86.8298 52.2494 86.7259 52.0679L80.6469 41.4309C80.542 41.2493 80.3913 41.0983 80.2099 40.993C80.0285 40.8877 79.8226 40.8318 79.6129 40.8309L69.3149 40.8329Z" fill="#5869A3"/>
<path d="M80.8965 40.4933L60.7861 52.541L61.7451 54.1417L81.8555 42.094L80.8965 40.4933Z" fill="#5869A3"/>
<path d="M41.012 36.578H18.56C18.0238 36.5781 17.4969 36.4373 17.0322 36.1697C16.5675 35.9022 16.1812 35.5172 15.9121 35.0534C15.6429 34.5896 15.5003 34.0633 15.4986 33.527C15.4968 32.9908 15.6359 32.4635 15.902 31.998L21.981 21.361C22.2498 20.8933 22.6369 20.5046 23.1034 20.2339C23.57 19.9632 24.0996 19.8201 24.639 19.819H34.939C35.478 19.8198 36.0072 19.9627 36.4734 20.233C36.9397 20.5033 37.3265 20.8917 37.595 21.359L43.671 31.994C43.9369 32.4597 44.0758 32.9871 44.0738 33.5234C44.0718 34.0597 43.929 34.5861 43.6596 35.0498C43.3903 35.5136 43.0039 35.8984 42.539 36.1659C42.0742 36.4334 41.5473 36.5741 41.011 36.574L41.012 36.578ZM24.639 21.685C24.4286 21.6852 24.2219 21.7408 24.0397 21.8461C23.8575 21.9514 23.7062 22.1027 23.601 22.285L17.524 32.924C17.4199 33.1056 17.3653 33.3113 17.3658 33.5206C17.3663 33.7299 17.4217 33.9355 17.5267 34.1166C17.6316 34.2977 17.7823 34.4481 17.9637 34.5526C18.1451 34.6571 18.3507 34.712 18.56 34.712H41.012C41.2215 34.7124 41.4274 34.6576 41.6091 34.5533C41.7907 34.4489 41.9417 34.2986 42.0469 34.1175C42.1521 33.9363 42.2077 33.7306 42.2083 33.5211C42.2088 33.3117 42.1542 33.1057 42.05 32.924L35.971 22.287C35.866 22.105 35.715 21.9539 35.5332 21.8486C35.3514 21.7433 35.1451 21.6875 34.935 21.687L24.639 21.685Z" fill="#5869A3"/>
<path d="M36.2184 21.3457L16.1089 33.3929L17.0679 34.9937L37.1774 22.9465L36.2184 21.3457Z" fill="#5869A3"/>
<path d="M52.0781 1.74729L30.501 14.802L31.4669 16.3985L53.044 3.34382L52.0781 1.74729Z" fill="#5869A3"/>
<path d="M70.7972 36.578H48.3452C47.8089 36.5781 47.2821 36.4373 46.8174 36.1697C46.3527 35.9022 45.9664 35.5172 45.6972 35.0534C45.4281 34.5896 45.2855 34.0633 45.2837 33.527C45.2819 32.9908 45.4211 32.4635 45.6872 31.998L51.7642 21.361C52.0331 20.893 52.4205 20.5041 52.8875 20.2334C53.3544 19.9627 53.8844 19.8198 54.4242 19.819H64.7222C65.2614 19.8196 65.791 19.9623 66.2576 20.2326C66.7243 20.503 67.1114 20.8915 67.3802 21.359L73.4592 31.998C73.7253 32.4635 73.8644 32.9908 73.8626 33.527C73.8609 34.0633 73.7183 34.5896 73.4491 35.0534C73.18 35.5172 72.7937 35.9022 72.329 36.1697C71.8643 36.4373 71.3374 36.5781 70.8012 36.578H70.7972ZM54.4222 21.685C54.2114 21.6848 54.0043 21.7402 53.8217 21.8456C53.6392 21.9509 53.4876 22.1024 53.3822 22.285L47.3092 32.924C47.205 33.1056 47.1505 33.3113 47.1509 33.5206C47.1514 33.7299 47.2069 33.9355 47.3118 34.1166C47.4168 34.2977 47.5675 34.4481 47.7488 34.5526C47.9302 34.6571 48.1359 34.712 48.3452 34.712H70.7972C71.0065 34.712 71.2121 34.6571 71.3935 34.5526C71.5749 34.4481 71.7256 34.2977 71.8305 34.1166C71.9355 33.9355 71.991 33.7299 71.9914 33.5206C71.9919 33.3113 71.9373 33.1056 71.8332 32.924L65.7562 22.287C65.651 22.1047 65.4997 21.9534 65.3175 21.8481C65.1353 21.7427 64.9286 21.6872 64.7182 21.687L54.4222 21.685Z" fill="#5869A3"/>
<path d="M66.0035 21.3457L45.894 33.3929L46.853 34.9937L66.9625 22.9465L66.0035 21.3457Z" fill="#5869A3"/>
<path d="M29.7862 30.3259H27.6592V32.4529H29.7862V30.3259Z" fill="#5869A3"/>
<path d="M34.0411 30.3259H31.9141V32.4529H34.0411V30.3259Z" fill="#5869A3"/>
<path d="M38.2959 30.3259H36.1689V32.4529H38.2959V30.3259Z" fill="#5869A3"/>
<path d="M59.5699 30.3259H57.4429V32.4529H59.5699V30.3259Z" fill="#5869A3"/>
<path d="M63.8248 30.3259H61.6978V32.4529H63.8248V30.3259Z" fill="#5869A3"/>
<path d="M68.0801 30.3259H65.9531V32.4529H68.0801V30.3259Z" fill="#5869A3"/>
<path d="M38.2959 17.296H40.4229V9.047L38.2959 11.175V17.296Z" fill="#5869A3"/>
<path d="M34.0409 16.537H36.1679V13.306L31.9199 14.671L34.0409 16.537Z" fill="#5869A3"/>
<path d="M55.3159 17.296L57.4429 14.666V11.174L55.3159 9.04602V17.296Z" fill="#5869A3"/>
<path d="M42.5552 17.301H44.6822V6.92395L42.5552 9.05197V17.301Z" fill="#5869A3"/>
<path d="M46.8052 17.2999H48.9302V4.79993L46.8052 6.91992V17.2999Z" fill="#5869A3"/>
<path d="M51.061 17.301H53.188V4.80099L51.061 2.67297V17.301Z" fill="#5869A3"/>
<path d="M89.7799 66.933H0.189941V59.467H89.7799V66.933ZM2.05594 65.067H87.9139V61.334H2.05594V65.067Z" fill="#5869A3"/>
<path d="M20.1369 76.2651H0.189941V68.7991H20.1369V76.2651ZM2.05694 74.3991H18.2699V70.6661H2.05594L2.05694 74.3991Z" fill="#5869A3"/>
<path d="M89.7807 76.2651H71.1157V68.7991H89.7807V76.2651ZM72.9807 74.3991H87.9157V70.6661H72.9817L72.9807 74.3991Z" fill="#5869A3"/>
</svg>
