<svg viewBox="0 0 86 56" xmlns="http://www.w3.org/2000/svg">
<path d="M50.2659 26.6139C50.0773 26.6144 49.893 26.5572 49.7379 26.4499C46.3839 24.1449 43.4379 22.2219 41.3379 22.0499C40.2649 21.9499 36.6639 23.3159 34.4469 24.3069C33.952 24.4999 33.4234 24.5916 32.8925 24.5764C32.3615 24.5613 31.839 24.4397 31.3559 24.2189C30.6411 23.8914 30.0402 23.3583 29.6297 22.6877C29.2193 22.0172 29.018 21.2395 29.0514 20.454C29.0849 19.6685 29.3517 18.9108 29.8177 18.2776C30.2837 17.6444 30.9279 17.1644 31.6679 16.8989C31.6679 16.8989 39.7819 13.8319 42.4749 12.7849C44.3299 12.0649 46.7399 12.2229 50.0749 12.4419C50.9149 12.4959 51.8149 12.5559 52.7749 12.6059C56.9839 12.8059 61.6149 8.77587 61.6629 8.73687C61.8503 8.57714 62.0932 8.49795 62.3388 8.5166C62.5843 8.53524 62.8125 8.65022 62.9736 8.83642C63.1348 9.02262 63.2158 9.26495 63.1989 9.51062C63.1821 9.75628 63.0689 9.98537 62.8839 10.1479C62.6689 10.3349 57.5759 14.7209 52.6839 14.4689C51.7119 14.4199 50.8009 14.3589 49.9529 14.3029C46.8599 14.1029 44.6219 13.9519 43.1529 14.5229C40.4529 15.5759 32.3129 18.6499 32.3129 18.6499C32.0548 18.7434 31.8176 18.8868 31.6149 19.072C31.4122 19.2571 31.248 19.4804 31.1316 19.729C31.0152 19.9776 30.9489 20.2468 30.9365 20.521C30.9241 20.7953 30.9659 21.0692 31.0594 21.3274C31.1529 21.5855 31.2963 21.8226 31.4815 22.0253C31.6666 22.228 31.8899 22.3923 32.1385 22.5087C32.3872 22.6251 32.6563 22.6913 32.9305 22.7037C33.2048 22.7161 33.4788 22.6744 33.7369 22.5809C34.6479 22.1699 39.5099 20.0429 41.4899 20.1899C44.0549 20.4029 47.0899 22.3659 50.7979 24.9139C50.9611 25.0269 51.084 25.1891 51.1487 25.3768C51.2134 25.5645 51.2166 25.768 51.1577 25.9576C51.0988 26.1472 50.9809 26.3131 50.8213 26.4311C50.6616 26.5492 50.4684 26.6132 50.2699 26.6139H50.2659Z" fill="#fff"/>
<path d="M65.0078 35.1529C64.8027 35.153 64.6032 35.0854 64.4403 34.9608C64.2774 34.8362 64.16 34.6614 64.1063 34.4635C64.0526 34.2655 64.0656 34.0554 64.1432 33.8655C64.2208 33.6756 64.3588 33.5166 64.5358 33.413L73.9518 27.8939C74.1657 27.7689 74.4205 27.7339 74.6602 27.7968C74.8998 27.8596 75.1047 28.015 75.2298 28.2289C75.3548 28.4428 75.3898 28.6977 75.327 28.9373C75.2642 29.177 75.1087 29.3819 74.8948 29.5069L65.4808 35.0259C65.337 35.1091 65.1739 35.153 65.0078 35.1529Z" fill="#fff"/>
<path d="M7.62483 33.7779C7.10173 33.778 6.5893 33.6299 6.14684 33.3509L1.42884 30.4019C1.11688 30.2075 0.846339 29.9534 0.632714 29.6542C0.419089 29.3551 0.266579 29.0167 0.183907 28.6585C0.101236 28.3003 0.0900281 27.9294 0.150933 27.5669C0.211838 27.2044 0.34366 26.8574 0.538842 26.5459L15.3038 3.0919C15.6979 2.4634 16.3254 2.017 17.0483 1.85069C17.7713 1.68439 18.5307 1.81178 19.1598 2.20491L23.8778 5.15392C24.5075 5.5469 24.9554 6.17381 25.123 6.89687C25.2907 7.61992 25.1643 8.37994 24.7718 9.0099L10.0038 32.4659C9.80927 32.7773 9.55513 33.0472 9.25603 33.2601C8.95693 33.4731 8.61873 33.6249 8.26083 33.7069C8.05208 33.7538 7.8388 33.7776 7.62483 33.7779ZM17.6738 3.64391C17.6028 3.64349 17.532 3.65153 17.4628 3.66789C17.3428 3.69519 17.2294 3.74602 17.1292 3.81743C17.0289 3.88883 16.9439 3.97941 16.8788 4.08391L2.11684 27.5359C1.98749 27.7449 1.94581 27.9964 2.00084 28.2359C2.02788 28.3551 2.07842 28.4677 2.14951 28.5671C2.22059 28.6665 2.3108 28.7508 2.41484 28.8149L7.13484 31.7679C7.23896 31.8331 7.35492 31.877 7.47608 31.8973C7.59723 31.9175 7.72118 31.9137 7.84084 31.8859C7.96012 31.8588 8.07284 31.8082 8.17241 31.7371C8.27198 31.6661 8.35642 31.5759 8.42084 31.4719L23.1848 8.0179C23.3146 7.80766 23.3559 7.5546 23.2997 7.31401C23.2435 7.07342 23.0943 6.86486 22.8848 6.7339L18.1648 3.7849C18.017 3.69418 17.8473 3.64545 17.6738 3.64391Z" fill="#fff"/>
<path d="M36.1328 16.9889C36.06 16.9893 35.9874 16.9805 35.9168 16.9629C33.1228 16.2949 26.2578 14.3309 22.8668 10.5419C22.7851 10.4505 22.7221 10.344 22.6815 10.2283C22.6409 10.1127 22.6236 9.99012 22.6303 9.86773C22.6371 9.74534 22.6679 9.62549 22.721 9.51501C22.7741 9.40453 22.8485 9.30559 22.9398 9.22384C23.0311 9.14209 23.1377 9.07914 23.2533 9.03857C23.369 8.998 23.4915 8.98061 23.6139 8.98739C23.7363 8.99417 23.8562 9.02499 23.9666 9.07809C24.0771 9.13119 24.176 9.2055 24.2578 9.29684C27.3818 12.7888 34.3028 14.6569 36.3508 15.1459C36.5729 15.1994 36.7677 15.3325 36.8983 15.5199C37.0289 15.7074 37.0863 15.9362 37.0595 16.1631C37.0328 16.39 36.9238 16.5993 36.7532 16.7512C36.5826 16.9032 36.3623 16.9874 36.1338 16.9878L36.1328 16.9889Z" fill="#fff"/>
<path d="M22.4999 38.7129C22.3254 38.7137 22.1543 38.6644 22.0069 38.5709L9.80694 30.9479C9.59703 30.8168 9.4478 30.6076 9.3921 30.3664C9.33641 30.1253 9.37879 29.8719 9.50994 29.6619C9.64109 29.452 9.85026 29.3028 10.0914 29.2471C10.3326 29.1914 10.586 29.2338 10.7959 29.3649L22.9959 36.9879C23.1682 37.0952 23.3007 37.2556 23.3736 37.445C23.4464 37.6343 23.4555 37.8423 23.3996 38.0373C23.3436 38.2323 23.2256 38.4037 23.0635 38.5256C22.9013 38.6476 22.7038 38.7133 22.5009 38.7129H22.4999Z" fill="#fff"/>
<path d="M64.778 42.2039C63.9996 42.2029 63.2373 41.9829 62.578 41.5689L58.505 39.0229C58.4012 38.958 58.3112 38.8732 58.2402 38.7735C58.1691 38.6738 58.1184 38.561 58.0909 38.4417C58.0634 38.3224 58.0597 38.1988 58.08 38.0781C58.1003 37.9573 58.1441 37.8417 58.209 37.7379C58.274 37.6341 58.3587 37.5441 58.4585 37.473C58.5582 37.402 58.6709 37.3513 58.7903 37.3238C58.9096 37.2963 59.0331 37.2926 59.1539 37.3128C59.2747 37.3331 59.3902 37.377 59.494 37.4419L63.565 39.9859C64.0838 40.3104 64.7102 40.4155 65.3065 40.2781C65.9028 40.1408 66.4201 39.7722 66.7446 39.2534C67.069 38.7346 67.1742 38.1082 67.0368 37.5119C66.8994 36.9157 66.5308 36.3984 66.0121 36.0739L53.5941 28.3239C53.4901 28.259 53.4 28.1742 53.3288 28.0744C53.2576 27.9746 53.2068 27.8618 53.1792 27.7424C53.1516 27.623 53.1478 27.4993 53.1681 27.3785C53.1883 27.2576 53.2321 27.1418 53.2971 27.0379C53.362 26.934 53.4468 26.8438 53.5465 26.7726C53.6463 26.7015 53.7591 26.6506 53.8785 26.6231C53.998 26.5955 54.1216 26.5917 54.2425 26.6119C54.3634 26.6321 54.4791 26.676 54.5831 26.7409L66.9991 34.4919C67.7665 34.9733 68.3564 35.6912 68.6799 36.5373C69.0034 37.3834 69.0429 38.3118 68.7923 39.1823C68.5418 40.0529 68.0149 40.8183 67.2911 41.363C66.5673 41.9077 65.6859 42.2022 64.7801 42.2019L64.778 42.2039Z" fill="#fff"/>
<path d="M60.9579 47.4619C60.1798 47.4612 59.4175 47.2418 58.7579 46.8289L52.8579 43.1429C52.6522 43.0102 52.507 42.8019 52.4536 42.563C52.4002 42.3241 52.4429 42.0738 52.5726 41.8662C52.7022 41.6585 52.9083 41.5102 53.1464 41.4533C53.3845 41.3963 53.6354 41.4353 53.8449 41.5619L59.7449 45.2459C60.2634 45.5704 60.8896 45.6756 61.4857 45.5384C62.0818 45.4013 62.5989 45.0329 62.9234 44.5144C63.2479 43.9959 63.3531 43.3697 63.216 42.7736C63.0788 42.1776 62.7104 41.6604 62.1919 41.3359L54.8919 36.7739C54.6862 36.6412 54.541 36.4329 54.4876 36.194C54.4342 35.9551 54.4769 35.7048 54.6066 35.4972C54.7362 35.2895 54.9423 35.1412 55.1804 35.0843C55.4185 35.0273 55.6694 35.0664 55.8789 35.1929L63.1789 39.7529C64.1171 40.3395 64.7839 41.2746 65.0327 42.3526C65.2815 43.4307 65.0921 44.5635 64.5059 45.5019C64.13 46.1034 63.6069 46.599 62.9861 46.942C62.3652 47.2849 61.6672 47.4639 60.9579 47.4619Z" fill="#fff"/>
<path d="M54.5637 51.1309C53.7855 51.1299 53.0233 50.9106 52.3637 50.4979L48.7837 48.2599C48.58 48.1261 48.4367 47.9181 48.3844 47.6801C48.3321 47.4421 48.375 47.193 48.5039 46.9863C48.6329 46.7795 48.8376 46.6314 49.0743 46.5736C49.311 46.5157 49.5609 46.5528 49.7707 46.6769L53.3507 48.9149C53.6075 49.0755 53.8935 49.1841 54.1923 49.2342C54.4911 49.2843 54.7969 49.2751 55.0921 49.2071C55.3874 49.1391 55.6663 49.0136 55.9131 48.8378C56.1598 48.6619 56.3695 48.4392 56.5302 48.1824C56.6908 47.9255 56.7994 47.6395 56.8495 47.3407C56.8996 47.0419 56.8904 46.7362 56.8224 46.4409C56.7544 46.1457 56.6289 45.8667 56.4531 45.62C56.2772 45.3732 56.0545 45.1635 55.7977 45.0029L48.4977 40.4409C48.294 40.3071 48.1507 40.0991 48.0984 39.8611C48.0461 39.6231 48.089 39.374 48.218 39.1673C48.3469 38.9605 48.5516 38.8124 48.7883 38.7546C49.025 38.6967 49.2749 38.7338 49.4847 38.8579L56.7847 43.4209C57.7227 44.0071 58.3894 44.9418 58.6383 46.0196C58.8871 47.0973 58.6977 48.2298 58.1117 49.1679C57.7364 49.7701 57.2135 50.2665 56.5925 50.61C55.9716 50.9536 55.2733 51.1328 54.5637 51.1309Z" fill="#fff"/>
<path d="M49.0349 55.3049C48.2564 55.3039 47.4939 55.0835 46.8349 54.6689L39.9629 50.3689C39.8572 50.305 39.7651 50.2207 39.6922 50.121C39.6193 50.0212 39.567 49.908 39.5382 49.7878C39.5095 49.6676 39.505 49.543 39.5249 49.421C39.5447 49.2991 39.5887 49.1823 39.6541 49.0775C39.7195 48.9727 39.8052 48.8819 39.906 48.8105C40.0068 48.7391 40.1208 48.6884 40.2414 48.6615C40.362 48.6345 40.4867 48.6318 40.6084 48.6535C40.73 48.6752 40.8461 48.7209 40.9499 48.7879L47.8239 53.0829C48.0808 53.2503 48.3686 53.3649 48.6703 53.4198C48.972 53.4747 49.2816 53.4688 49.5811 53.4026C49.8805 53.3364 50.1637 53.2111 50.4141 53.0341C50.6646 52.8571 50.8772 52.6319 51.0395 52.3717C51.2018 52.1116 51.3107 51.8216 51.3596 51.5189C51.4085 51.2161 51.3966 50.9067 51.3244 50.6086C51.2523 50.3106 51.1214 50.0299 50.9395 49.783C50.7576 49.5361 50.5283 49.328 50.2649 49.1709L42.9649 44.6089C42.8592 44.545 42.7671 44.4607 42.6942 44.361C42.6213 44.2612 42.569 44.148 42.5402 44.0278C42.5115 43.9076 42.507 43.7829 42.5269 43.661C42.5467 43.539 42.5907 43.4223 42.6561 43.3175C42.7215 43.2127 42.8072 43.1219 42.908 43.0505C43.0088 42.9791 43.1228 42.9284 43.2434 42.9015C43.364 42.8745 43.4887 42.8718 43.6104 42.8935C43.732 42.9152 43.8481 42.9609 43.9519 43.0278L51.2519 47.5878C52.19 48.1745 52.8568 49.1094 53.106 50.1874C53.3552 51.2653 53.1664 52.3981 52.5809 53.3369C52.2925 53.8033 51.9141 54.2076 51.4676 54.5261C51.0212 54.8446 50.5158 55.0709 49.9809 55.1918C49.6709 55.2652 49.3535 55.3031 49.0349 55.3049Z" fill="#fff"/>
<path d="M18.0657 41.1559C17.7465 41.1552 17.4285 41.1183 17.1177 41.0459C16.3144 40.8597 15.5844 40.4396 15.0198 39.8386C14.4552 39.2377 14.0814 38.4829 13.9456 37.6696C13.8098 36.8563 13.9181 36.021 14.2568 35.2693C14.5956 34.5175 15.1495 33.883 15.8487 33.4459C16.0584 33.3218 16.3083 33.2847 16.5451 33.3426C16.7818 33.4004 16.9865 33.5485 17.1154 33.7553C17.2443 33.9621 17.2872 34.2111 17.235 34.4491C17.1827 34.6871 17.0394 34.8952 16.8357 35.0289C16.5742 35.1872 16.3469 35.3959 16.1668 35.6428C15.9867 35.8897 15.8575 36.17 15.7867 36.4673C15.7159 36.7646 15.7049 37.0731 15.7544 37.3747C15.8038 37.6763 15.9127 37.965 16.0748 38.2242C16.2368 38.4833 16.4488 38.7076 16.6983 38.8841C16.9478 39.0606 17.2299 39.1858 17.5282 39.2523C17.8265 39.3188 18.135 39.3253 18.4359 39.2715C18.7367 39.2177 19.0239 39.1047 19.2807 38.9389L26.6257 34.3489C26.7296 34.2806 26.8462 34.2339 26.9685 34.2113C27.0908 34.1888 27.2164 34.1909 27.3378 34.2176C27.4593 34.2443 27.5742 34.2949 27.6758 34.3667C27.7774 34.4384 27.8636 34.5297 27.9294 34.6352C27.9952 34.7408 28.0392 34.8584 28.0589 34.9812C28.0786 35.104 28.0735 35.2294 28.044 35.3503C28.0145 35.4711 27.9612 35.5847 27.8871 35.6846C27.813 35.7845 27.7197 35.8686 27.6127 35.9319L20.2677 40.5219C19.6079 40.9361 18.8447 41.1558 18.0657 41.1559Z" fill="#fff"/>
<path d="M24.6339 44.6788C24.3154 44.6783 23.998 44.6414 23.6879 44.5688C22.8847 44.3827 22.1546 43.9628 21.5899 43.3621C21.0251 42.7614 20.651 42.0068 20.5148 41.1937C20.3786 40.3805 20.4864 39.5453 20.8246 38.7933C21.1628 38.0414 21.7161 37.4065 22.4149 36.9688L26.3149 34.5328C27.2532 33.9467 28.386 33.7573 29.4639 34.0064C30.5419 34.2554 31.4767 34.9225 32.0629 35.8608C32.649 36.7992 32.8384 37.9319 32.5893 39.0099C32.3403 40.0878 31.6732 41.0227 30.7349 41.6088L26.8349 44.0448C26.1751 44.4583 25.4125 44.678 24.6339 44.6788ZM28.5259 35.7588C28.092 35.7601 27.6673 35.8831 27.2999 36.1138L23.3999 38.5478C23.137 38.7055 22.9081 38.9139 22.7267 39.161C22.5453 39.4081 22.4149 39.6889 22.3433 39.9869C22.2716 40.285 22.26 40.5943 22.3093 40.8968C22.3585 41.1994 22.4675 41.4891 22.63 41.7491C22.7924 42.009 23.0051 42.234 23.2555 42.4108C23.5059 42.5876 23.789 42.7128 24.0883 42.779C24.3876 42.8451 24.6971 42.851 24.9987 42.7962C25.3003 42.7414 25.588 42.6271 25.8449 42.4598L29.7449 40.0238C30.1695 39.7584 30.4962 39.362 30.6758 38.8946C30.8554 38.4272 30.8781 37.914 30.7405 37.4326C30.6029 36.9511 30.3124 36.5275 29.9129 36.2255C29.5134 35.9236 29.0266 35.7598 28.5259 35.7588Z" fill="#fff"/>
<path d="M31.0231 48.3399C30.1166 48.3421 29.234 48.0489 28.5091 47.5046C27.7842 46.9604 27.2564 46.1947 27.0056 45.3236C26.7548 44.4525 26.7946 43.5234 27.1192 42.677C27.4437 41.8306 28.0352 41.113 28.8041 40.6329L31.2381 39.1119C31.9376 38.6746 32.7512 38.4545 33.5758 38.4795C34.4004 38.5044 35.1992 38.7733 35.871 39.2522C36.5428 39.731 37.0576 40.3983 37.3502 41.1697C37.6429 41.9411 37.7002 42.7819 37.5151 43.5859C37.394 44.1207 37.1676 44.6261 36.8491 45.0725C36.5306 45.5189 36.1264 45.8974 35.6601 46.1859L33.2261 47.7069C32.5657 48.1205 31.8022 48.3399 31.0231 48.3399ZM32.2231 40.6949L29.7891 42.2139C29.5322 42.3745 29.3095 42.5842 29.1337 42.831C28.9578 43.0777 28.8323 43.3567 28.7643 43.6519C28.6963 43.9472 28.6871 44.2529 28.7372 44.5517C28.7874 44.8505 28.8959 45.1365 29.0566 45.3934C29.2172 45.6502 29.4269 45.8729 29.6737 46.0488C29.9204 46.2246 30.1994 46.3501 30.4946 46.4181C30.7899 46.4861 31.0956 46.4953 31.3944 46.4452C31.6932 46.395 31.9792 46.2865 32.2361 46.1259L34.6701 44.6049C35.1887 44.2791 35.5568 43.7607 35.6933 43.1636C35.8298 42.5665 35.7236 41.9397 35.3981 41.4209C35.071 40.9063 34.5541 40.5414 33.9597 40.4055C33.3653 40.2696 32.7413 40.3736 32.2231 40.6949Z" fill="#fff"/>
<path d="M36.843 52.3849C35.9362 52.3874 35.0533 52.0943 34.3281 51.55C33.6028 51.0057 33.0747 50.2399 32.8239 49.3685C32.573 48.4971 32.613 47.5676 32.9379 46.721C33.2627 45.8744 33.8547 45.1568 34.624 44.6768L35.856 43.9058C36.7941 43.3306 37.9214 43.1491 38.9927 43.4009C40.0639 43.6528 40.9923 44.3176 41.5757 45.2506C42.1592 46.1836 42.3505 47.3093 42.108 48.3827C41.8656 49.4561 41.2089 50.3902 40.281 50.9818L39.045 51.7548C38.3848 52.1676 37.6216 52.3859 36.843 52.3849ZM38.064 45.1378C37.6328 45.1383 37.2104 45.2599 36.845 45.4888L35.613 46.2578C35.3534 46.417 35.1279 46.626 34.9495 46.8727C34.771 47.1195 34.6432 47.3991 34.5734 47.6955C34.5036 47.9919 34.4931 48.2992 34.5426 48.5997C34.5921 48.9001 34.7006 49.1878 34.8619 49.4461C35.0231 49.7044 35.2339 49.9283 35.482 50.1047C35.7302 50.2812 36.0109 50.4068 36.3078 50.4742C36.6047 50.5417 36.9121 50.5497 37.2121 50.4978C37.5122 50.4459 37.799 50.3351 38.056 50.1718L39.29 49.4008C39.6786 49.1615 39.9872 48.8119 40.1765 48.3966C40.3658 47.9813 40.4273 47.519 40.3531 47.0687C40.2789 46.6183 40.0724 46.2003 39.7598 45.8676C39.4473 45.535 39.0429 45.3029 38.598 45.2008C38.4232 45.1585 38.2439 45.137 38.064 45.1368V45.1378Z" fill="#fff"/>
<path d="M6.4546 28.7819C7.09911 28.7819 7.6216 28.2594 7.6216 27.6149C7.6216 26.9704 7.09911 26.4479 6.4546 26.4479C5.81008 26.4479 5.2876 26.9704 5.2876 27.6149C5.2876 28.2594 5.81008 28.7819 6.4546 28.7819Z" fill="#fff"/>
<path d="M77.9117 32.8719C77.6975 32.8726 77.4841 32.8481 77.2757 32.7989C76.9168 32.7173 76.5778 32.5653 76.2782 32.3516C75.9786 32.1378 75.7245 31.8667 75.5307 31.5539L60.7677 8.1079C60.5722 7.79598 60.4402 7.44855 60.3791 7.08554C60.3181 6.72253 60.3292 6.35104 60.4118 5.99233C60.4945 5.63363 60.6471 5.29476 60.8609 4.99508C61.0746 4.69541 61.3454 4.44083 61.6577 4.24591L66.3777 1.2969C67.0074 0.904223 67.7672 0.777593 68.4903 0.944849C69.2133 1.11211 69.8404 1.55957 70.2337 2.1889L84.9937 25.6359C85.1891 25.9478 85.3212 26.2952 85.3822 26.6582C85.4433 27.0212 85.4322 27.3927 85.3495 27.7514C85.2668 28.1101 85.1143 28.449 84.9005 28.7487C84.6867 29.0484 84.4159 29.303 84.1037 29.4979L79.3857 32.4469C78.9438 32.7238 78.4331 32.871 77.9117 32.8719ZM67.8677 2.73989C67.6935 2.73957 67.5227 2.78809 67.3747 2.87991L62.6547 5.82888C62.4443 5.96006 62.2945 6.16937 62.2383 6.41085C62.182 6.65233 62.2239 6.90626 62.3547 7.11691L77.1147 30.5639C77.1789 30.6689 77.2633 30.7601 77.3631 30.8321C77.4629 30.9042 77.576 30.9557 77.6959 30.9836C77.8157 31.0115 77.9399 31.0153 78.0613 30.9947C78.1826 30.9742 78.2987 30.9297 78.4027 30.8639L83.1227 27.9149C83.3326 27.7843 83.4821 27.5757 83.5383 27.335C83.5946 27.0942 83.553 26.841 83.4227 26.6309L68.6647 3.1809C68.5802 3.04581 68.4627 2.93444 68.3232 2.85729C68.1838 2.78014 68.027 2.73973 67.8677 2.73989Z" fill="#fff"/>
<path d="M79.0835 27.8768C79.728 27.8768 80.2505 27.3544 80.2505 26.7098C80.2505 26.0653 79.728 25.5428 79.0835 25.5428C78.439 25.5428 77.9165 26.0653 77.9165 26.7098C77.9165 27.3544 78.439 27.8768 79.0835 27.8768Z" fill="#fff"/>
</svg>